G75*
%MOIN*%
%OFA0B0*%
%FSLAX25Y25*%
%IPPOS*%
%LPD*%
%AMOC8*
5,1,8,0,0,1.08239X$1,22.5*
%
%ADD10C,0.00000*%
%ADD11C,0.00600*%
%ADD12R,0.00300X0.00150*%
%ADD13R,0.00150X0.00150*%
%ADD14R,0.00450X0.00150*%
%ADD15R,0.00750X0.00150*%
%ADD16R,0.00600X0.00150*%
%ADD17R,0.00900X0.00150*%
%ADD18R,0.01500X0.00150*%
%ADD19R,0.01200X0.00150*%
%ADD20C,0.00300*%
%ADD21C,0.00500*%
D10*
X0002083Y0001800D02*
X0002083Y0198650D01*
X0198934Y0198650D01*
X0198934Y0001800D01*
X0002083Y0001800D01*
X0007034Y0013050D02*
X0007036Y0013208D01*
X0007042Y0013366D01*
X0007052Y0013524D01*
X0007066Y0013682D01*
X0007084Y0013839D01*
X0007105Y0013996D01*
X0007131Y0014152D01*
X0007161Y0014308D01*
X0007194Y0014463D01*
X0007232Y0014616D01*
X0007273Y0014769D01*
X0007318Y0014921D01*
X0007367Y0015072D01*
X0007420Y0015221D01*
X0007476Y0015369D01*
X0007536Y0015515D01*
X0007600Y0015660D01*
X0007668Y0015803D01*
X0007739Y0015945D01*
X0007813Y0016085D01*
X0007891Y0016222D01*
X0007973Y0016358D01*
X0008057Y0016492D01*
X0008146Y0016623D01*
X0008237Y0016752D01*
X0008332Y0016879D01*
X0008429Y0017004D01*
X0008530Y0017126D01*
X0008634Y0017245D01*
X0008741Y0017362D01*
X0008851Y0017476D01*
X0008964Y0017587D01*
X0009079Y0017696D01*
X0009197Y0017801D01*
X0009318Y0017903D01*
X0009441Y0018003D01*
X0009567Y0018099D01*
X0009695Y0018192D01*
X0009825Y0018282D01*
X0009958Y0018368D01*
X0010093Y0018452D01*
X0010229Y0018531D01*
X0010368Y0018608D01*
X0010509Y0018680D01*
X0010651Y0018750D01*
X0010795Y0018815D01*
X0010941Y0018877D01*
X0011088Y0018935D01*
X0011237Y0018990D01*
X0011387Y0019041D01*
X0011538Y0019088D01*
X0011690Y0019131D01*
X0011843Y0019170D01*
X0011998Y0019206D01*
X0012153Y0019237D01*
X0012309Y0019265D01*
X0012465Y0019289D01*
X0012622Y0019309D01*
X0012780Y0019325D01*
X0012937Y0019337D01*
X0013096Y0019345D01*
X0013254Y0019349D01*
X0013412Y0019349D01*
X0013570Y0019345D01*
X0013729Y0019337D01*
X0013886Y0019325D01*
X0014044Y0019309D01*
X0014201Y0019289D01*
X0014357Y0019265D01*
X0014513Y0019237D01*
X0014668Y0019206D01*
X0014823Y0019170D01*
X0014976Y0019131D01*
X0015128Y0019088D01*
X0015279Y0019041D01*
X0015429Y0018990D01*
X0015578Y0018935D01*
X0015725Y0018877D01*
X0015871Y0018815D01*
X0016015Y0018750D01*
X0016157Y0018680D01*
X0016298Y0018608D01*
X0016437Y0018531D01*
X0016573Y0018452D01*
X0016708Y0018368D01*
X0016841Y0018282D01*
X0016971Y0018192D01*
X0017099Y0018099D01*
X0017225Y0018003D01*
X0017348Y0017903D01*
X0017469Y0017801D01*
X0017587Y0017696D01*
X0017702Y0017587D01*
X0017815Y0017476D01*
X0017925Y0017362D01*
X0018032Y0017245D01*
X0018136Y0017126D01*
X0018237Y0017004D01*
X0018334Y0016879D01*
X0018429Y0016752D01*
X0018520Y0016623D01*
X0018609Y0016492D01*
X0018693Y0016358D01*
X0018775Y0016222D01*
X0018853Y0016085D01*
X0018927Y0015945D01*
X0018998Y0015803D01*
X0019066Y0015660D01*
X0019130Y0015515D01*
X0019190Y0015369D01*
X0019246Y0015221D01*
X0019299Y0015072D01*
X0019348Y0014921D01*
X0019393Y0014769D01*
X0019434Y0014616D01*
X0019472Y0014463D01*
X0019505Y0014308D01*
X0019535Y0014152D01*
X0019561Y0013996D01*
X0019582Y0013839D01*
X0019600Y0013682D01*
X0019614Y0013524D01*
X0019624Y0013366D01*
X0019630Y0013208D01*
X0019632Y0013050D01*
X0019630Y0012892D01*
X0019624Y0012734D01*
X0019614Y0012576D01*
X0019600Y0012418D01*
X0019582Y0012261D01*
X0019561Y0012104D01*
X0019535Y0011948D01*
X0019505Y0011792D01*
X0019472Y0011637D01*
X0019434Y0011484D01*
X0019393Y0011331D01*
X0019348Y0011179D01*
X0019299Y0011028D01*
X0019246Y0010879D01*
X0019190Y0010731D01*
X0019130Y0010585D01*
X0019066Y0010440D01*
X0018998Y0010297D01*
X0018927Y0010155D01*
X0018853Y0010015D01*
X0018775Y0009878D01*
X0018693Y0009742D01*
X0018609Y0009608D01*
X0018520Y0009477D01*
X0018429Y0009348D01*
X0018334Y0009221D01*
X0018237Y0009096D01*
X0018136Y0008974D01*
X0018032Y0008855D01*
X0017925Y0008738D01*
X0017815Y0008624D01*
X0017702Y0008513D01*
X0017587Y0008404D01*
X0017469Y0008299D01*
X0017348Y0008197D01*
X0017225Y0008097D01*
X0017099Y0008001D01*
X0016971Y0007908D01*
X0016841Y0007818D01*
X0016708Y0007732D01*
X0016573Y0007648D01*
X0016437Y0007569D01*
X0016298Y0007492D01*
X0016157Y0007420D01*
X0016015Y0007350D01*
X0015871Y0007285D01*
X0015725Y0007223D01*
X0015578Y0007165D01*
X0015429Y0007110D01*
X0015279Y0007059D01*
X0015128Y0007012D01*
X0014976Y0006969D01*
X0014823Y0006930D01*
X0014668Y0006894D01*
X0014513Y0006863D01*
X0014357Y0006835D01*
X0014201Y0006811D01*
X0014044Y0006791D01*
X0013886Y0006775D01*
X0013729Y0006763D01*
X0013570Y0006755D01*
X0013412Y0006751D01*
X0013254Y0006751D01*
X0013096Y0006755D01*
X0012937Y0006763D01*
X0012780Y0006775D01*
X0012622Y0006791D01*
X0012465Y0006811D01*
X0012309Y0006835D01*
X0012153Y0006863D01*
X0011998Y0006894D01*
X0011843Y0006930D01*
X0011690Y0006969D01*
X0011538Y0007012D01*
X0011387Y0007059D01*
X0011237Y0007110D01*
X0011088Y0007165D01*
X0010941Y0007223D01*
X0010795Y0007285D01*
X0010651Y0007350D01*
X0010509Y0007420D01*
X0010368Y0007492D01*
X0010229Y0007569D01*
X0010093Y0007648D01*
X0009958Y0007732D01*
X0009825Y0007818D01*
X0009695Y0007908D01*
X0009567Y0008001D01*
X0009441Y0008097D01*
X0009318Y0008197D01*
X0009197Y0008299D01*
X0009079Y0008404D01*
X0008964Y0008513D01*
X0008851Y0008624D01*
X0008741Y0008738D01*
X0008634Y0008855D01*
X0008530Y0008974D01*
X0008429Y0009096D01*
X0008332Y0009221D01*
X0008237Y0009348D01*
X0008146Y0009477D01*
X0008057Y0009608D01*
X0007973Y0009742D01*
X0007891Y0009878D01*
X0007813Y0010015D01*
X0007739Y0010155D01*
X0007668Y0010297D01*
X0007600Y0010440D01*
X0007536Y0010585D01*
X0007476Y0010731D01*
X0007420Y0010879D01*
X0007367Y0011028D01*
X0007318Y0011179D01*
X0007273Y0011331D01*
X0007232Y0011484D01*
X0007194Y0011637D01*
X0007161Y0011792D01*
X0007131Y0011948D01*
X0007105Y0012104D01*
X0007084Y0012261D01*
X0007066Y0012418D01*
X0007052Y0012576D01*
X0007042Y0012734D01*
X0007036Y0012892D01*
X0007034Y0013050D01*
X0181385Y0013050D02*
X0181387Y0013208D01*
X0181393Y0013366D01*
X0181403Y0013524D01*
X0181417Y0013682D01*
X0181435Y0013839D01*
X0181456Y0013996D01*
X0181482Y0014152D01*
X0181512Y0014308D01*
X0181545Y0014463D01*
X0181583Y0014616D01*
X0181624Y0014769D01*
X0181669Y0014921D01*
X0181718Y0015072D01*
X0181771Y0015221D01*
X0181827Y0015369D01*
X0181887Y0015515D01*
X0181951Y0015660D01*
X0182019Y0015803D01*
X0182090Y0015945D01*
X0182164Y0016085D01*
X0182242Y0016222D01*
X0182324Y0016358D01*
X0182408Y0016492D01*
X0182497Y0016623D01*
X0182588Y0016752D01*
X0182683Y0016879D01*
X0182780Y0017004D01*
X0182881Y0017126D01*
X0182985Y0017245D01*
X0183092Y0017362D01*
X0183202Y0017476D01*
X0183315Y0017587D01*
X0183430Y0017696D01*
X0183548Y0017801D01*
X0183669Y0017903D01*
X0183792Y0018003D01*
X0183918Y0018099D01*
X0184046Y0018192D01*
X0184176Y0018282D01*
X0184309Y0018368D01*
X0184444Y0018452D01*
X0184580Y0018531D01*
X0184719Y0018608D01*
X0184860Y0018680D01*
X0185002Y0018750D01*
X0185146Y0018815D01*
X0185292Y0018877D01*
X0185439Y0018935D01*
X0185588Y0018990D01*
X0185738Y0019041D01*
X0185889Y0019088D01*
X0186041Y0019131D01*
X0186194Y0019170D01*
X0186349Y0019206D01*
X0186504Y0019237D01*
X0186660Y0019265D01*
X0186816Y0019289D01*
X0186973Y0019309D01*
X0187131Y0019325D01*
X0187288Y0019337D01*
X0187447Y0019345D01*
X0187605Y0019349D01*
X0187763Y0019349D01*
X0187921Y0019345D01*
X0188080Y0019337D01*
X0188237Y0019325D01*
X0188395Y0019309D01*
X0188552Y0019289D01*
X0188708Y0019265D01*
X0188864Y0019237D01*
X0189019Y0019206D01*
X0189174Y0019170D01*
X0189327Y0019131D01*
X0189479Y0019088D01*
X0189630Y0019041D01*
X0189780Y0018990D01*
X0189929Y0018935D01*
X0190076Y0018877D01*
X0190222Y0018815D01*
X0190366Y0018750D01*
X0190508Y0018680D01*
X0190649Y0018608D01*
X0190788Y0018531D01*
X0190924Y0018452D01*
X0191059Y0018368D01*
X0191192Y0018282D01*
X0191322Y0018192D01*
X0191450Y0018099D01*
X0191576Y0018003D01*
X0191699Y0017903D01*
X0191820Y0017801D01*
X0191938Y0017696D01*
X0192053Y0017587D01*
X0192166Y0017476D01*
X0192276Y0017362D01*
X0192383Y0017245D01*
X0192487Y0017126D01*
X0192588Y0017004D01*
X0192685Y0016879D01*
X0192780Y0016752D01*
X0192871Y0016623D01*
X0192960Y0016492D01*
X0193044Y0016358D01*
X0193126Y0016222D01*
X0193204Y0016085D01*
X0193278Y0015945D01*
X0193349Y0015803D01*
X0193417Y0015660D01*
X0193481Y0015515D01*
X0193541Y0015369D01*
X0193597Y0015221D01*
X0193650Y0015072D01*
X0193699Y0014921D01*
X0193744Y0014769D01*
X0193785Y0014616D01*
X0193823Y0014463D01*
X0193856Y0014308D01*
X0193886Y0014152D01*
X0193912Y0013996D01*
X0193933Y0013839D01*
X0193951Y0013682D01*
X0193965Y0013524D01*
X0193975Y0013366D01*
X0193981Y0013208D01*
X0193983Y0013050D01*
X0193981Y0012892D01*
X0193975Y0012734D01*
X0193965Y0012576D01*
X0193951Y0012418D01*
X0193933Y0012261D01*
X0193912Y0012104D01*
X0193886Y0011948D01*
X0193856Y0011792D01*
X0193823Y0011637D01*
X0193785Y0011484D01*
X0193744Y0011331D01*
X0193699Y0011179D01*
X0193650Y0011028D01*
X0193597Y0010879D01*
X0193541Y0010731D01*
X0193481Y0010585D01*
X0193417Y0010440D01*
X0193349Y0010297D01*
X0193278Y0010155D01*
X0193204Y0010015D01*
X0193126Y0009878D01*
X0193044Y0009742D01*
X0192960Y0009608D01*
X0192871Y0009477D01*
X0192780Y0009348D01*
X0192685Y0009221D01*
X0192588Y0009096D01*
X0192487Y0008974D01*
X0192383Y0008855D01*
X0192276Y0008738D01*
X0192166Y0008624D01*
X0192053Y0008513D01*
X0191938Y0008404D01*
X0191820Y0008299D01*
X0191699Y0008197D01*
X0191576Y0008097D01*
X0191450Y0008001D01*
X0191322Y0007908D01*
X0191192Y0007818D01*
X0191059Y0007732D01*
X0190924Y0007648D01*
X0190788Y0007569D01*
X0190649Y0007492D01*
X0190508Y0007420D01*
X0190366Y0007350D01*
X0190222Y0007285D01*
X0190076Y0007223D01*
X0189929Y0007165D01*
X0189780Y0007110D01*
X0189630Y0007059D01*
X0189479Y0007012D01*
X0189327Y0006969D01*
X0189174Y0006930D01*
X0189019Y0006894D01*
X0188864Y0006863D01*
X0188708Y0006835D01*
X0188552Y0006811D01*
X0188395Y0006791D01*
X0188237Y0006775D01*
X0188080Y0006763D01*
X0187921Y0006755D01*
X0187763Y0006751D01*
X0187605Y0006751D01*
X0187447Y0006755D01*
X0187288Y0006763D01*
X0187131Y0006775D01*
X0186973Y0006791D01*
X0186816Y0006811D01*
X0186660Y0006835D01*
X0186504Y0006863D01*
X0186349Y0006894D01*
X0186194Y0006930D01*
X0186041Y0006969D01*
X0185889Y0007012D01*
X0185738Y0007059D01*
X0185588Y0007110D01*
X0185439Y0007165D01*
X0185292Y0007223D01*
X0185146Y0007285D01*
X0185002Y0007350D01*
X0184860Y0007420D01*
X0184719Y0007492D01*
X0184580Y0007569D01*
X0184444Y0007648D01*
X0184309Y0007732D01*
X0184176Y0007818D01*
X0184046Y0007908D01*
X0183918Y0008001D01*
X0183792Y0008097D01*
X0183669Y0008197D01*
X0183548Y0008299D01*
X0183430Y0008404D01*
X0183315Y0008513D01*
X0183202Y0008624D01*
X0183092Y0008738D01*
X0182985Y0008855D01*
X0182881Y0008974D01*
X0182780Y0009096D01*
X0182683Y0009221D01*
X0182588Y0009348D01*
X0182497Y0009477D01*
X0182408Y0009608D01*
X0182324Y0009742D01*
X0182242Y0009878D01*
X0182164Y0010015D01*
X0182090Y0010155D01*
X0182019Y0010297D01*
X0181951Y0010440D01*
X0181887Y0010585D01*
X0181827Y0010731D01*
X0181771Y0010879D01*
X0181718Y0011028D01*
X0181669Y0011179D01*
X0181624Y0011331D01*
X0181583Y0011484D01*
X0181545Y0011637D01*
X0181512Y0011792D01*
X0181482Y0011948D01*
X0181456Y0012104D01*
X0181435Y0012261D01*
X0181417Y0012418D01*
X0181403Y0012576D01*
X0181393Y0012734D01*
X0181387Y0012892D01*
X0181385Y0013050D01*
D11*
X0182917Y0063850D02*
X0181850Y0064918D01*
X0181850Y0067053D01*
X0183985Y0067053D01*
X0186120Y0069188D02*
X0186120Y0064918D01*
X0185052Y0063850D01*
X0182917Y0063850D01*
X0179674Y0063850D02*
X0179674Y0070255D01*
X0175404Y0063850D01*
X0175404Y0070255D01*
X0173229Y0070255D02*
X0170026Y0070255D01*
X0168959Y0069188D01*
X0168959Y0064918D01*
X0170026Y0063850D01*
X0173229Y0063850D01*
X0173229Y0070255D01*
X0177318Y0075485D02*
X0177318Y0079755D01*
X0181588Y0079755D02*
X0181588Y0075485D01*
X0179453Y0073350D01*
X0177318Y0075485D01*
X0183763Y0074418D02*
X0184831Y0073350D01*
X0186966Y0073350D01*
X0188033Y0074418D01*
X0188033Y0076553D02*
X0185898Y0077620D01*
X0184831Y0077620D01*
X0183763Y0076553D01*
X0183763Y0074418D01*
X0182917Y0070255D02*
X0185052Y0070255D01*
X0186120Y0069188D01*
X0182917Y0070255D02*
X0181850Y0069188D01*
X0188033Y0076553D02*
X0188033Y0079755D01*
X0183763Y0079755D01*
X0184831Y0083350D02*
X0188033Y0083350D01*
X0188033Y0089755D01*
X0184831Y0089755D01*
X0183763Y0088688D01*
X0183763Y0087620D01*
X0184831Y0086553D01*
X0188033Y0086553D01*
X0184831Y0086553D02*
X0183763Y0085485D01*
X0183763Y0084418D01*
X0184831Y0083350D01*
X0181588Y0083350D02*
X0181588Y0084418D01*
X0177318Y0088688D01*
X0177318Y0089755D01*
X0181588Y0089755D01*
X0180520Y0093350D02*
X0178385Y0093350D01*
X0177318Y0094418D01*
X0177318Y0095485D01*
X0178385Y0096553D01*
X0180520Y0096553D01*
X0181588Y0097620D01*
X0181588Y0098688D01*
X0180520Y0099755D01*
X0178385Y0099755D01*
X0177318Y0098688D01*
X0177318Y0097620D01*
X0178385Y0096553D01*
X0180520Y0096553D02*
X0181588Y0095485D01*
X0181588Y0094418D01*
X0180520Y0093350D01*
X0183763Y0094418D02*
X0184831Y0093350D01*
X0188033Y0093350D01*
X0188033Y0099755D01*
X0184831Y0099755D01*
X0183763Y0098688D01*
X0183763Y0097620D01*
X0184831Y0096553D01*
X0188033Y0096553D01*
X0184831Y0096553D02*
X0183763Y0095485D01*
X0183763Y0094418D01*
X0184831Y0103350D02*
X0188033Y0103350D01*
X0188033Y0109755D01*
X0184831Y0109755D01*
X0183763Y0108688D01*
X0183763Y0107620D01*
X0184831Y0106553D01*
X0188033Y0106553D01*
X0184831Y0106553D02*
X0183763Y0105485D01*
X0183763Y0104418D01*
X0184831Y0103350D01*
X0181588Y0104418D02*
X0180520Y0103350D01*
X0178385Y0103350D01*
X0177318Y0104418D01*
X0177318Y0108688D01*
X0178385Y0109755D01*
X0180520Y0109755D01*
X0181588Y0108688D01*
X0181588Y0107620D01*
X0180520Y0106553D01*
X0177318Y0106553D01*
X0177318Y0113350D02*
X0181588Y0113350D01*
X0179453Y0113350D02*
X0179453Y0119755D01*
X0181588Y0117620D01*
X0183763Y0117620D02*
X0183763Y0118688D01*
X0184831Y0119755D01*
X0188033Y0119755D01*
X0188033Y0113350D01*
X0184831Y0113350D01*
X0183763Y0114418D01*
X0183763Y0115485D01*
X0184831Y0116553D01*
X0188033Y0116553D01*
X0184831Y0116553D02*
X0183763Y0117620D01*
X0184831Y0123350D02*
X0188033Y0123350D01*
X0188033Y0129755D01*
X0184831Y0129755D01*
X0183763Y0128688D01*
X0183763Y0127620D01*
X0184831Y0126553D01*
X0188033Y0126553D01*
X0184831Y0126553D02*
X0183763Y0125485D01*
X0183763Y0124418D01*
X0184831Y0123350D01*
X0181588Y0123350D02*
X0177318Y0123350D01*
X0179453Y0123350D02*
X0179453Y0129755D01*
X0181588Y0127620D01*
X0181588Y0133350D02*
X0177318Y0133350D01*
X0179453Y0133350D02*
X0179453Y0139755D01*
X0181588Y0137620D01*
X0183763Y0137620D02*
X0183763Y0138688D01*
X0184831Y0139755D01*
X0188033Y0139755D01*
X0188033Y0133350D01*
X0184831Y0133350D01*
X0183763Y0134418D01*
X0183763Y0135485D01*
X0184831Y0136553D01*
X0188033Y0136553D01*
X0184831Y0136553D02*
X0183763Y0137620D01*
X0175142Y0136553D02*
X0173007Y0137620D01*
X0171940Y0137620D01*
X0170872Y0136553D01*
X0170872Y0134418D01*
X0171940Y0133350D01*
X0174075Y0133350D01*
X0175142Y0134418D01*
X0175142Y0136553D02*
X0175142Y0139755D01*
X0170872Y0139755D01*
X0171940Y0129755D02*
X0175142Y0126553D01*
X0170872Y0126553D01*
X0171940Y0129755D02*
X0171940Y0123350D01*
X0171940Y0119755D02*
X0170872Y0118688D01*
X0170872Y0117620D01*
X0171940Y0116553D01*
X0170872Y0115485D01*
X0170872Y0114418D01*
X0171940Y0113350D01*
X0174075Y0113350D01*
X0175142Y0114418D01*
X0173007Y0116553D02*
X0171940Y0116553D01*
X0171940Y0119755D02*
X0174075Y0119755D01*
X0175142Y0118688D01*
X0033033Y0078688D02*
X0031966Y0079755D01*
X0029831Y0079755D01*
X0028763Y0078688D01*
X0028763Y0077620D01*
X0029831Y0076553D01*
X0028763Y0075485D01*
X0028763Y0074418D01*
X0029831Y0073350D01*
X0031966Y0073350D01*
X0033033Y0074418D01*
X0030898Y0076553D02*
X0029831Y0076553D01*
X0026588Y0074418D02*
X0025520Y0074418D01*
X0025520Y0073350D01*
X0026588Y0073350D01*
X0026588Y0074418D01*
X0023365Y0074418D02*
X0022298Y0073350D01*
X0020162Y0073350D01*
X0019095Y0074418D01*
X0019095Y0075485D01*
X0020162Y0076553D01*
X0021230Y0076553D01*
X0020162Y0076553D02*
X0019095Y0077620D01*
X0019095Y0078688D01*
X0020162Y0079755D01*
X0022298Y0079755D01*
X0023365Y0078688D01*
X0024283Y0083350D02*
X0024283Y0087620D01*
X0022148Y0089755D01*
X0020013Y0087620D01*
X0020013Y0083350D01*
X0020013Y0086553D02*
X0024283Y0086553D01*
X0024283Y0093350D02*
X0021081Y0093350D01*
X0020013Y0094418D01*
X0020013Y0095485D01*
X0021081Y0096553D01*
X0024283Y0096553D01*
X0024283Y0099755D02*
X0021081Y0099755D01*
X0020013Y0098688D01*
X0020013Y0097620D01*
X0021081Y0096553D01*
X0017838Y0096553D02*
X0013568Y0096553D01*
X0014635Y0099755D02*
X0017838Y0096553D01*
X0014635Y0093350D02*
X0014635Y0099755D01*
X0014635Y0103350D02*
X0016770Y0103350D01*
X0017838Y0104418D01*
X0020013Y0104418D02*
X0021081Y0103350D01*
X0024283Y0103350D01*
X0024283Y0109755D01*
X0021081Y0109755D01*
X0020013Y0108688D01*
X0020013Y0107620D01*
X0021081Y0106553D01*
X0024283Y0106553D01*
X0021081Y0106553D02*
X0020013Y0105485D01*
X0020013Y0104418D01*
X0017838Y0108688D02*
X0016770Y0109755D01*
X0014635Y0109755D01*
X0013568Y0108688D01*
X0013568Y0107620D01*
X0014635Y0106553D01*
X0013568Y0105485D01*
X0013568Y0104418D01*
X0014635Y0103350D01*
X0014635Y0106553D02*
X0015703Y0106553D01*
X0013568Y0113350D02*
X0017838Y0113350D01*
X0013568Y0117620D01*
X0013568Y0118688D01*
X0014635Y0119755D01*
X0016770Y0119755D01*
X0017838Y0118688D01*
X0020013Y0118688D02*
X0020013Y0117620D01*
X0021081Y0116553D01*
X0024283Y0116553D01*
X0024283Y0119755D02*
X0021081Y0119755D01*
X0020013Y0118688D01*
X0021081Y0116553D02*
X0020013Y0115485D01*
X0020013Y0114418D01*
X0021081Y0113350D01*
X0024283Y0113350D01*
X0024283Y0119755D01*
X0024283Y0123350D02*
X0024283Y0127620D01*
X0022148Y0129755D01*
X0020013Y0127620D01*
X0020013Y0123350D01*
X0017838Y0123350D02*
X0013568Y0123350D01*
X0015703Y0123350D02*
X0015703Y0129755D01*
X0017838Y0127620D01*
X0020013Y0126553D02*
X0024283Y0126553D01*
X0024283Y0133350D02*
X0024283Y0137620D01*
X0022148Y0139755D01*
X0020013Y0137620D01*
X0020013Y0133350D01*
X0017838Y0134418D02*
X0013568Y0138688D01*
X0013568Y0134418D01*
X0014635Y0133350D01*
X0016770Y0133350D01*
X0017838Y0134418D01*
X0017838Y0138688D01*
X0016770Y0139755D01*
X0014635Y0139755D01*
X0013568Y0138688D01*
X0020013Y0136553D02*
X0024283Y0136553D01*
X0024283Y0099755D02*
X0024283Y0093350D01*
X0017838Y0086553D02*
X0013568Y0086553D01*
X0014635Y0089755D02*
X0017838Y0086553D01*
X0014635Y0083350D02*
X0014635Y0089755D01*
X0012649Y0079755D02*
X0012649Y0075485D01*
X0014784Y0073350D01*
X0016920Y0075485D01*
X0016920Y0079755D01*
X0017838Y0059755D02*
X0013568Y0053350D01*
X0013568Y0059755D01*
X0011392Y0059755D02*
X0008190Y0059755D01*
X0007122Y0058688D01*
X0007122Y0054418D01*
X0008190Y0053350D01*
X0011392Y0053350D01*
X0011392Y0059755D01*
X0017838Y0059755D02*
X0017838Y0053350D01*
X0020013Y0054418D02*
X0020013Y0056553D01*
X0022148Y0056553D01*
X0020013Y0058688D02*
X0021081Y0059755D01*
X0023216Y0059755D01*
X0024283Y0058688D01*
X0024283Y0054418D01*
X0023216Y0053350D01*
X0021081Y0053350D01*
X0020013Y0054418D01*
D12*
X0143158Y0006450D03*
X0143608Y0006900D03*
X0143608Y0007350D03*
X0144058Y0007500D03*
X0144208Y0007800D03*
X0144358Y0008100D03*
X0144808Y0009000D03*
X0144658Y0009150D03*
X0145108Y0009300D03*
X0144958Y0009600D03*
X0145708Y0010200D03*
X0146008Y0011400D03*
X0146458Y0011550D03*
X0146458Y0012000D03*
X0146608Y0012450D03*
X0147508Y0013800D03*
X0147658Y0014100D03*
X0148108Y0014400D03*
X0148108Y0014850D03*
X0148858Y0015750D03*
X0149158Y0016200D03*
X0149008Y0016500D03*
X0149608Y0017550D03*
X0149908Y0017850D03*
X0150208Y0018150D03*
X0150208Y0018600D03*
X0150808Y0019050D03*
X0150808Y0019500D03*
X0150808Y0019650D03*
X0151408Y0020100D03*
X0151258Y0020400D03*
X0151708Y0020250D03*
X0151708Y0019950D03*
X0152608Y0020250D03*
X0153208Y0019800D03*
X0153508Y0020100D03*
X0153808Y0020250D03*
X0154708Y0020250D03*
X0155008Y0019950D03*
X0155458Y0019950D03*
X0155608Y0020250D03*
X0157108Y0019950D03*
X0158158Y0020250D03*
X0158608Y0020250D03*
X0159208Y0019950D03*
X0159508Y0020100D03*
X0159808Y0020250D03*
X0160708Y0020250D03*
X0161008Y0019950D03*
X0161308Y0020100D03*
X0161608Y0020250D03*
X0161908Y0020100D03*
X0164908Y0020250D03*
X0165508Y0020100D03*
X0165808Y0020250D03*
X0166708Y0019950D03*
X0166708Y0019800D03*
X0167008Y0020250D03*
X0167608Y0020250D03*
X0167758Y0019950D03*
X0167608Y0019800D03*
X0168208Y0019650D03*
X0168358Y0018900D03*
X0168508Y0018600D03*
X0169108Y0018150D03*
X0169108Y0017550D03*
X0169408Y0017100D03*
X0169708Y0016950D03*
X0170008Y0016200D03*
X0170608Y0015600D03*
X0170608Y0015000D03*
X0171208Y0014250D03*
X0171508Y0013650D03*
X0171658Y0013350D03*
X0171808Y0013200D03*
X0171808Y0012750D03*
X0172558Y0012300D03*
X0172708Y0011700D03*
X0173008Y0010950D03*
X0173308Y0010650D03*
X0173458Y0010200D03*
X0173758Y0009750D03*
X0174058Y0008850D03*
X0174358Y0008700D03*
X0174658Y0008400D03*
X0174808Y0008100D03*
X0174808Y0007650D03*
X0175408Y0007200D03*
X0175408Y0006600D03*
X0167608Y0020700D03*
X0166408Y0022500D03*
X0166558Y0022650D03*
X0165808Y0023250D03*
X0165808Y0023700D03*
X0165808Y0023850D03*
X0165208Y0024300D03*
X0165208Y0024750D03*
X0164608Y0025350D03*
X0164308Y0025950D03*
X0164308Y0026550D03*
X0163858Y0026700D03*
X0163858Y0027300D03*
X0163408Y0027300D03*
X0163408Y0027750D03*
X0162808Y0028500D03*
X0162208Y0029550D03*
X0161908Y0030000D03*
X0161908Y0030600D03*
X0161458Y0030750D03*
X0161308Y0031050D03*
X0160708Y0032100D03*
X0160708Y0032250D03*
X0160708Y0032700D03*
X0160408Y0033150D03*
X0159958Y0033600D03*
X0159208Y0033750D03*
X0158908Y0033450D03*
X0158608Y0033150D03*
X0158458Y0032550D03*
X0158008Y0032100D03*
X0157558Y0031500D03*
X0157858Y0031200D03*
X0157558Y0030900D03*
X0157408Y0030600D03*
X0156808Y0030150D03*
X0156958Y0029850D03*
X0156508Y0029100D03*
X0155908Y0028650D03*
X0155758Y0027750D03*
X0155308Y0027600D03*
X0153658Y0024000D03*
X0153208Y0023850D03*
X0153058Y0023550D03*
X0153208Y0023400D03*
X0152908Y0022800D03*
X0152458Y0022650D03*
X0152308Y0021900D03*
X0152308Y0021600D03*
X0159508Y0026100D03*
X0159508Y0026250D03*
D13*
X0162583Y0028800D03*
X0162583Y0028950D03*
X0162433Y0029100D03*
X0162583Y0029250D03*
X0162433Y0029400D03*
X0162583Y0029550D03*
X0162283Y0029700D03*
X0162283Y0029850D03*
X0161983Y0029850D03*
X0162283Y0030150D03*
X0162133Y0030300D03*
X0161683Y0030300D03*
X0161683Y0030450D03*
X0161533Y0030600D03*
X0161683Y0030900D03*
X0161683Y0031200D03*
X0161533Y0031350D03*
X0161383Y0031500D03*
X0161383Y0031650D03*
X0161233Y0031800D03*
X0160933Y0031800D03*
X0160933Y0031650D03*
X0160933Y0031500D03*
X0161083Y0031350D03*
X0161083Y0032100D03*
X0161083Y0032250D03*
X0160933Y0032400D03*
X0160483Y0032400D03*
X0160333Y0032700D03*
X0160483Y0032850D03*
X0160633Y0033000D03*
X0160183Y0033000D03*
X0160033Y0033150D03*
X0159883Y0033300D03*
X0159733Y0033450D03*
X0160183Y0033450D03*
X0160333Y0033600D03*
X0160183Y0033750D03*
X0159883Y0033900D03*
X0159883Y0034050D03*
X0159733Y0034200D03*
X0159733Y0034350D03*
X0159583Y0034500D03*
X0159583Y0034650D03*
X0159433Y0034800D03*
X0159283Y0034500D03*
X0159433Y0034350D03*
X0159283Y0034200D03*
X0159433Y0034050D03*
X0159583Y0033900D03*
X0159283Y0033600D03*
X0159133Y0033900D03*
X0158983Y0034050D03*
X0158683Y0033600D03*
X0158833Y0033300D03*
X0158983Y0033150D03*
X0158833Y0032850D03*
X0158683Y0032700D03*
X0158383Y0032850D03*
X0158533Y0033000D03*
X0158083Y0032550D03*
X0158083Y0032400D03*
X0158233Y0032250D03*
X0158383Y0032100D03*
X0158233Y0031950D03*
X0158083Y0031650D03*
X0157933Y0031500D03*
X0157783Y0031650D03*
X0157783Y0031800D03*
X0157483Y0031200D03*
X0157333Y0031050D03*
X0157183Y0030900D03*
X0157033Y0030600D03*
X0157183Y0030300D03*
X0157333Y0030450D03*
X0157333Y0030150D03*
X0157183Y0030000D03*
X0156883Y0029550D03*
X0156883Y0029400D03*
X0156583Y0029550D03*
X0156583Y0029700D03*
X0156583Y0029850D03*
X0156433Y0029400D03*
X0156283Y0029250D03*
X0156583Y0029250D03*
X0156433Y0028800D03*
X0156433Y0028650D03*
X0156283Y0028500D03*
X0155983Y0028350D03*
X0155683Y0028350D03*
X0155683Y0028200D03*
X0155533Y0027900D03*
X0155683Y0027600D03*
X0155383Y0027450D03*
X0155233Y0027300D03*
X0155083Y0027150D03*
X0155383Y0027150D03*
X0155383Y0027000D03*
X0155233Y0026850D03*
X0155083Y0026700D03*
X0155083Y0026550D03*
X0154783Y0026550D03*
X0154783Y0026700D03*
X0154933Y0026850D03*
X0154783Y0026400D03*
X0154633Y0026250D03*
X0154483Y0026100D03*
X0154333Y0025950D03*
X0154333Y0025800D03*
X0154633Y0025800D03*
X0154633Y0025650D03*
X0154483Y0025500D03*
X0154333Y0025350D03*
X0154333Y0025200D03*
X0154183Y0025050D03*
X0154033Y0025200D03*
X0154033Y0025350D03*
X0154183Y0025500D03*
X0154783Y0025950D03*
X0154783Y0026100D03*
X0155083Y0026250D03*
X0155533Y0027300D03*
X0155983Y0028800D03*
X0156133Y0028950D03*
X0158533Y0032250D03*
X0162133Y0029400D03*
X0162733Y0029100D03*
X0162883Y0029250D03*
X0163033Y0028800D03*
X0162733Y0028650D03*
X0163033Y0028350D03*
X0163183Y0028500D03*
X0163333Y0028200D03*
X0163183Y0028050D03*
X0163033Y0027900D03*
X0162883Y0028050D03*
X0163483Y0028050D03*
X0163333Y0027450D03*
X0163633Y0027000D03*
X0163783Y0026850D03*
X0163933Y0027000D03*
X0164233Y0026850D03*
X0164083Y0026400D03*
X0164083Y0026250D03*
X0164083Y0026100D03*
X0164383Y0025800D03*
X0164533Y0025650D03*
X0164833Y0025800D03*
X0164833Y0025500D03*
X0164983Y0025350D03*
X0164983Y0025200D03*
X0164833Y0025050D03*
X0164833Y0024900D03*
X0164833Y0024750D03*
X0164983Y0024450D03*
X0165283Y0024600D03*
X0165433Y0024450D03*
X0165583Y0024300D03*
X0165583Y0024150D03*
X0165433Y0024000D03*
X0165433Y0023850D03*
X0165583Y0023400D03*
X0165883Y0023100D03*
X0165883Y0022950D03*
X0166033Y0022650D03*
X0166183Y0022800D03*
X0166333Y0022950D03*
X0166333Y0023100D03*
X0166183Y0023250D03*
X0166033Y0023550D03*
X0166333Y0022050D03*
X0166633Y0021750D03*
X0166783Y0021900D03*
X0166933Y0022050D03*
X0167083Y0021750D03*
X0166933Y0021600D03*
X0166783Y0021450D03*
X0166933Y0021300D03*
X0167233Y0021300D03*
X0167233Y0021450D03*
X0167233Y0021600D03*
X0167383Y0021150D03*
X0167533Y0021000D03*
X0167533Y0020850D03*
X0167233Y0020700D03*
X0167083Y0020850D03*
X0167083Y0021000D03*
X0167383Y0020550D03*
X0167383Y0020100D03*
X0167233Y0019950D03*
X0167083Y0020100D03*
X0166633Y0020250D03*
X0166333Y0020100D03*
X0166183Y0019950D03*
X0166033Y0020100D03*
X0165733Y0019950D03*
X0165883Y0019800D03*
X0165433Y0019950D03*
X0165133Y0019950D03*
X0165133Y0019800D03*
X0164833Y0019950D03*
X0164833Y0020100D03*
X0164533Y0019950D03*
X0164533Y0019800D03*
X0164233Y0019800D03*
X0164083Y0019950D03*
X0163783Y0019950D03*
X0163783Y0020100D03*
X0163633Y0020250D03*
X0163483Y0020100D03*
X0163633Y0019800D03*
X0162283Y0019800D03*
X0162133Y0019950D03*
X0162133Y0020250D03*
X0161683Y0019800D03*
X0161533Y0019950D03*
X0161233Y0019800D03*
X0161083Y0020250D03*
X0160783Y0020100D03*
X0160633Y0019950D03*
X0160633Y0019800D03*
X0160333Y0020100D03*
X0160183Y0019950D03*
X0160033Y0020100D03*
X0159733Y0019950D03*
X0159883Y0019800D03*
X0159433Y0019800D03*
X0158983Y0020100D03*
X0158833Y0019950D03*
X0158833Y0019800D03*
X0158533Y0020100D03*
X0158383Y0019950D03*
X0158233Y0019800D03*
X0158083Y0019950D03*
X0157783Y0019950D03*
X0157783Y0020100D03*
X0157633Y0020250D03*
X0157333Y0020100D03*
X0157183Y0020250D03*
X0157033Y0020100D03*
X0156883Y0020250D03*
X0156583Y0020100D03*
X0156733Y0019950D03*
X0156883Y0019800D03*
X0156283Y0019950D03*
X0156133Y0020100D03*
X0155833Y0020100D03*
X0155233Y0020100D03*
X0155083Y0020250D03*
X0154783Y0020100D03*
X0154633Y0019950D03*
X0154633Y0019800D03*
X0154333Y0020100D03*
X0154183Y0019950D03*
X0154033Y0020100D03*
X0153733Y0019950D03*
X0153883Y0019800D03*
X0153283Y0019950D03*
X0153283Y0020250D03*
X0152983Y0020250D03*
X0152983Y0020100D03*
X0152833Y0019950D03*
X0152683Y0020100D03*
X0152383Y0019950D03*
X0152533Y0019800D03*
X0152083Y0019950D03*
X0152083Y0020100D03*
X0152083Y0020250D03*
X0152233Y0020400D03*
X0151633Y0020550D03*
X0151633Y0020700D03*
X0151483Y0020850D03*
X0151633Y0021000D03*
X0151633Y0021150D03*
X0151783Y0021300D03*
X0151783Y0021450D03*
X0151933Y0021600D03*
X0151933Y0021750D03*
X0152083Y0022050D03*
X0152383Y0022050D03*
X0152533Y0022200D03*
X0152533Y0022350D03*
X0152233Y0022350D03*
X0152833Y0022350D03*
X0152833Y0022500D03*
X0152683Y0022950D03*
X0152683Y0023100D03*
X0152833Y0023250D03*
X0152983Y0022950D03*
X0153283Y0023250D03*
X0153433Y0023700D03*
X0153433Y0024150D03*
X0153433Y0024300D03*
X0153583Y0024600D03*
X0153733Y0024750D03*
X0153883Y0024450D03*
X0153883Y0024300D03*
X0153733Y0024150D03*
X0154033Y0024600D03*
X0152233Y0021450D03*
X0152083Y0021300D03*
X0151933Y0021000D03*
X0151783Y0020850D03*
X0151333Y0020550D03*
X0151033Y0020100D03*
X0151033Y0019950D03*
X0151183Y0019800D03*
X0151183Y0019650D03*
X0151033Y0019350D03*
X0150583Y0019350D03*
X0150433Y0019050D03*
X0150433Y0018900D03*
X0150583Y0018750D03*
X0150583Y0018600D03*
X0150433Y0018450D03*
X0150133Y0018750D03*
X0149983Y0018300D03*
X0149833Y0018150D03*
X0149683Y0017700D03*
X0149833Y0017400D03*
X0149983Y0017550D03*
X0149533Y0017250D03*
X0149383Y0017400D03*
X0149383Y0017100D03*
X0149233Y0016950D03*
X0149083Y0016800D03*
X0149083Y0016650D03*
X0149383Y0016650D03*
X0149383Y0016500D03*
X0149533Y0016800D03*
X0149683Y0016950D03*
X0148783Y0016350D03*
X0148633Y0016050D03*
X0148933Y0016050D03*
X0148483Y0015750D03*
X0148333Y0015600D03*
X0148183Y0015300D03*
X0148333Y0015150D03*
X0148333Y0015000D03*
X0148333Y0014700D03*
X0147883Y0014700D03*
X0147733Y0014550D03*
X0147733Y0014400D03*
X0148033Y0014250D03*
X0148033Y0014100D03*
X0147733Y0013650D03*
X0147583Y0013500D03*
X0147433Y0013350D03*
X0147433Y0013200D03*
X0147133Y0013350D03*
X0146983Y0013200D03*
X0147133Y0013050D03*
X0147283Y0012900D03*
X0147133Y0012600D03*
X0146983Y0012450D03*
X0146833Y0012300D03*
X0146833Y0012150D03*
X0146533Y0012150D03*
X0146683Y0011850D03*
X0146233Y0011850D03*
X0146083Y0011550D03*
X0145933Y0011250D03*
X0145783Y0011100D03*
X0145783Y0010950D03*
X0146083Y0010950D03*
X0146083Y0010800D03*
X0146233Y0011100D03*
X0146383Y0011250D03*
X0145783Y0010500D03*
X0145483Y0010350D03*
X0145333Y0010500D03*
X0145183Y0010200D03*
X0145333Y0010050D03*
X0145483Y0009900D03*
X0145483Y0009750D03*
X0145333Y0009600D03*
X0145183Y0009750D03*
X0145033Y0009900D03*
X0145033Y0008850D03*
X0144733Y0008700D03*
X0144433Y0008700D03*
X0144433Y0008850D03*
X0144283Y0008550D03*
X0144133Y0008250D03*
X0143983Y0007950D03*
X0143833Y0007800D03*
X0144133Y0007650D03*
X0143533Y0007050D03*
X0143383Y0006750D03*
X0143533Y0006450D03*
X0143833Y0006750D03*
X0147283Y0013500D03*
X0147283Y0013650D03*
X0147433Y0013950D03*
X0148633Y0015150D03*
X0148483Y0015300D03*
X0150283Y0018000D03*
X0151783Y0019800D03*
X0154183Y0020400D03*
X0155233Y0019800D03*
X0157483Y0019950D03*
X0157633Y0019800D03*
X0159133Y0020250D03*
X0159433Y0020400D03*
X0160183Y0020400D03*
X0165283Y0020250D03*
X0166183Y0020400D03*
X0167833Y0020400D03*
X0168133Y0020100D03*
X0167983Y0019800D03*
X0168133Y0019500D03*
X0168133Y0019350D03*
X0167983Y0019200D03*
X0168283Y0019200D03*
X0168433Y0019350D03*
X0168583Y0019200D03*
X0168733Y0019050D03*
X0168733Y0018900D03*
X0168883Y0018750D03*
X0168883Y0018450D03*
X0168733Y0018300D03*
X0168583Y0018450D03*
X0168733Y0018000D03*
X0168883Y0017850D03*
X0169333Y0017850D03*
X0169333Y0017700D03*
X0169483Y0017550D03*
X0169183Y0017400D03*
X0169333Y0017250D03*
X0169633Y0017250D03*
X0169933Y0016800D03*
X0170083Y0016650D03*
X0170233Y0016350D03*
X0170383Y0016200D03*
X0170383Y0015900D03*
X0170083Y0015900D03*
X0170083Y0015750D03*
X0170233Y0015600D03*
X0170533Y0015450D03*
X0170533Y0015300D03*
X0170383Y0015150D03*
X0170833Y0015150D03*
X0170983Y0015000D03*
X0170983Y0014850D03*
X0171133Y0014700D03*
X0171283Y0014550D03*
X0170983Y0014400D03*
X0170833Y0014550D03*
X0170683Y0014700D03*
X0171133Y0013950D03*
X0171133Y0013800D03*
X0171433Y0013800D03*
X0171583Y0013950D03*
X0171433Y0014100D03*
X0171283Y0013500D03*
X0171883Y0013500D03*
X0171883Y0013650D03*
X0172183Y0013050D03*
X0172183Y0012750D03*
X0172183Y0012600D03*
X0172033Y0012450D03*
X0172183Y0012300D03*
X0172333Y0012150D03*
X0172483Y0012000D03*
X0172333Y0011850D03*
X0172483Y0011550D03*
X0172633Y0011250D03*
X0172783Y0011100D03*
X0172933Y0011400D03*
X0172933Y0011550D03*
X0172783Y0011850D03*
X0172483Y0012450D03*
X0171883Y0012900D03*
X0173083Y0011250D03*
X0173233Y0011100D03*
X0173383Y0010950D03*
X0172933Y0010800D03*
X0173233Y0010500D03*
X0173233Y0010350D03*
X0173533Y0010500D03*
X0173683Y0010350D03*
X0173683Y0010050D03*
X0173533Y0009900D03*
X0173683Y0009600D03*
X0173983Y0009600D03*
X0174133Y0009450D03*
X0174283Y0009300D03*
X0174283Y0009150D03*
X0173983Y0009150D03*
X0173833Y0009300D03*
X0173983Y0009900D03*
X0174433Y0008850D03*
X0174133Y0008550D03*
X0174433Y0008250D03*
X0174583Y0007950D03*
X0174883Y0008250D03*
X0174733Y0008550D03*
X0175033Y0007950D03*
X0175183Y0007800D03*
X0175183Y0007500D03*
X0174883Y0007500D03*
X0174883Y0007350D03*
X0175183Y0007050D03*
X0175183Y0006900D03*
X0175483Y0006750D03*
X0175633Y0006900D03*
X0175783Y0006750D03*
X0175633Y0006450D03*
X0175933Y0006450D03*
X0175483Y0007350D03*
X0170083Y0016050D03*
X0169483Y0016650D03*
X0169033Y0018300D03*
X0165133Y0025050D03*
X0164533Y0026100D03*
X0164533Y0026250D03*
D14*
X0163633Y0027600D03*
X0166633Y0022200D03*
X0169783Y0016500D03*
X0155983Y0019800D03*
X0154033Y0024900D03*
X0155983Y0028050D03*
X0148633Y0015450D03*
X0146833Y0012750D03*
X0145633Y0010650D03*
X0144583Y0008400D03*
X0143833Y0007200D03*
D15*
X0152983Y0014550D03*
X0153133Y0014700D03*
X0153133Y0014850D03*
X0153283Y0015000D03*
X0153283Y0015150D03*
X0153433Y0015300D03*
X0153583Y0015600D03*
X0153733Y0015750D03*
X0153733Y0015900D03*
X0153883Y0016050D03*
X0153883Y0016200D03*
X0154033Y0016350D03*
X0154183Y0016650D03*
X0154333Y0016800D03*
X0154333Y0016950D03*
X0154483Y0017100D03*
X0154483Y0017250D03*
X0154633Y0017400D03*
X0154783Y0017700D03*
X0154933Y0017850D03*
X0154933Y0018000D03*
X0155083Y0018150D03*
X0155083Y0018300D03*
X0155233Y0018450D03*
X0155383Y0018600D03*
X0155383Y0018750D03*
X0155533Y0018900D03*
X0155533Y0019050D03*
X0155683Y0019200D03*
X0155683Y0019350D03*
X0155833Y0019500D03*
X0155983Y0019650D03*
X0156283Y0020400D03*
X0156433Y0020550D03*
X0156583Y0020700D03*
X0156583Y0020850D03*
X0156733Y0021000D03*
X0156733Y0021150D03*
X0156883Y0021300D03*
X0157033Y0021600D03*
X0157183Y0021750D03*
X0157183Y0021900D03*
X0157333Y0022050D03*
X0157333Y0022200D03*
X0157483Y0022350D03*
X0157633Y0022650D03*
X0157783Y0022800D03*
X0157783Y0022950D03*
X0157933Y0023100D03*
X0158083Y0023400D03*
X0158233Y0023700D03*
X0158383Y0023850D03*
X0158383Y0024000D03*
X0158533Y0024150D03*
X0158533Y0024300D03*
X0158683Y0024450D03*
X0158833Y0024750D03*
X0158983Y0024900D03*
X0158983Y0025050D03*
X0160033Y0025050D03*
X0160033Y0024900D03*
X0160183Y0024750D03*
X0160333Y0024600D03*
X0160333Y0024450D03*
X0160483Y0024300D03*
X0160483Y0024150D03*
X0160633Y0024000D03*
X0160633Y0023850D03*
X0160783Y0023700D03*
X0160933Y0023400D03*
X0161083Y0023100D03*
X0161233Y0022950D03*
X0161233Y0022800D03*
X0161383Y0022650D03*
X0161533Y0022350D03*
X0161683Y0022200D03*
X0161683Y0022050D03*
X0161833Y0021900D03*
X0161833Y0021750D03*
X0161983Y0021600D03*
X0162133Y0021300D03*
X0162283Y0021150D03*
X0162283Y0021000D03*
X0162433Y0020850D03*
X0162583Y0020550D03*
X0162883Y0019950D03*
X0163033Y0019800D03*
X0163033Y0019650D03*
X0163183Y0019500D03*
X0163333Y0019200D03*
X0163483Y0019050D03*
X0163483Y0018900D03*
X0163633Y0018750D03*
X0163783Y0018450D03*
X0163933Y0018300D03*
X0163933Y0018150D03*
X0164083Y0018000D03*
X0164083Y0017850D03*
X0164233Y0017700D03*
X0164383Y0017400D03*
X0164533Y0017100D03*
X0164683Y0016950D03*
X0164683Y0016800D03*
X0164833Y0016650D03*
X0164983Y0016350D03*
X0165133Y0016200D03*
X0165133Y0016050D03*
X0165283Y0015900D03*
X0165283Y0015750D03*
X0165433Y0015600D03*
X0165583Y0015300D03*
X0165733Y0015150D03*
X0165733Y0015000D03*
X0165883Y0014850D03*
X0165883Y0014700D03*
X0166033Y0014550D03*
D16*
X0165508Y0015450D03*
X0164908Y0016500D03*
X0164458Y0017250D03*
X0164308Y0017550D03*
X0163708Y0018600D03*
X0163258Y0019350D03*
X0164308Y0020250D03*
X0162508Y0020700D03*
X0162058Y0021450D03*
X0161458Y0022500D03*
X0161008Y0023250D03*
X0160858Y0023550D03*
X0159508Y0025950D03*
X0158758Y0024600D03*
X0158158Y0023550D03*
X0158008Y0023250D03*
X0157558Y0022500D03*
X0156958Y0021450D03*
X0154708Y0017550D03*
X0154108Y0016500D03*
X0153508Y0015450D03*
D17*
X0162658Y0020400D03*
X0162808Y0020250D03*
X0162808Y0020100D03*
X0159508Y0025650D03*
X0159508Y0025800D03*
D18*
X0159508Y0025350D03*
X0159508Y0025200D03*
D19*
X0159508Y0025500D03*
D20*
X0067836Y0103897D02*
X0066868Y0102930D01*
X0064933Y0102930D01*
X0066385Y0102930D02*
X0066385Y0104865D01*
X0066868Y0104865D02*
X0064933Y0104865D01*
X0064933Y0105876D02*
X0064933Y0106844D01*
X0064933Y0106360D02*
X0067836Y0106360D01*
X0067836Y0105876D01*
X0066868Y0104865D02*
X0067836Y0103897D01*
X0066385Y0107841D02*
X0065417Y0107841D01*
X0064933Y0108324D01*
X0064933Y0109292D01*
X0065901Y0109776D02*
X0065901Y0107841D01*
X0066385Y0107841D02*
X0066868Y0108324D01*
X0066868Y0109292D01*
X0066385Y0109776D01*
X0065901Y0109776D01*
X0063966Y0110787D02*
X0063966Y0111271D01*
X0064450Y0111755D01*
X0066868Y0111755D01*
X0067836Y0111755D02*
X0068320Y0111755D01*
X0066868Y0113235D02*
X0066868Y0114203D01*
X0066385Y0114686D01*
X0064933Y0114686D01*
X0064933Y0113235D01*
X0065417Y0112751D01*
X0065901Y0113235D01*
X0065901Y0114686D01*
X0066868Y0115698D02*
X0064933Y0115698D01*
X0064933Y0117633D02*
X0066385Y0117633D01*
X0066868Y0117149D01*
X0066868Y0115698D01*
X0066385Y0118644D02*
X0065417Y0118644D01*
X0064933Y0119128D01*
X0064933Y0120579D01*
X0067836Y0120579D01*
X0066868Y0120579D02*
X0066868Y0119128D01*
X0066385Y0118644D01*
X0066868Y0121591D02*
X0064933Y0121591D01*
X0065901Y0121591D02*
X0066868Y0122558D01*
X0066868Y0123042D01*
X0066385Y0124046D02*
X0065417Y0124046D01*
X0064933Y0124530D01*
X0064933Y0125498D01*
X0065417Y0125981D01*
X0066385Y0125981D01*
X0066868Y0125498D01*
X0066868Y0124530D01*
X0066385Y0124046D01*
X0062552Y0125512D02*
X0060617Y0125512D01*
X0060133Y0125996D01*
X0060617Y0126993D02*
X0060133Y0127477D01*
X0060133Y0128444D01*
X0061101Y0128928D02*
X0061101Y0126993D01*
X0061585Y0126993D02*
X0062068Y0127477D01*
X0062068Y0128444D01*
X0061585Y0128928D01*
X0061101Y0128928D01*
X0061101Y0129939D02*
X0062068Y0130907D01*
X0062068Y0131391D01*
X0062068Y0132395D02*
X0060133Y0132395D01*
X0060133Y0134330D02*
X0061585Y0134330D01*
X0062068Y0133846D01*
X0062068Y0132395D01*
X0062068Y0129939D02*
X0060133Y0129939D01*
X0058236Y0129910D02*
X0055333Y0129910D01*
X0055333Y0128459D01*
X0055817Y0127975D01*
X0056785Y0127975D01*
X0057268Y0128459D01*
X0057268Y0129910D01*
X0057268Y0130922D02*
X0055333Y0131889D01*
X0057268Y0132857D01*
X0057268Y0134352D02*
X0057268Y0135319D01*
X0056785Y0135803D01*
X0055333Y0135803D01*
X0055333Y0134352D01*
X0055817Y0133868D01*
X0056301Y0134352D01*
X0056301Y0135803D01*
X0057268Y0136815D02*
X0057268Y0138266D01*
X0056785Y0138750D01*
X0055333Y0138750D01*
X0055817Y0139761D02*
X0055333Y0140245D01*
X0055333Y0141696D01*
X0055817Y0142708D02*
X0056785Y0142708D01*
X0057268Y0143191D01*
X0057268Y0144159D01*
X0056785Y0144643D01*
X0056301Y0144643D01*
X0056301Y0142708D01*
X0055817Y0142708D02*
X0055333Y0143191D01*
X0055333Y0144159D01*
X0055817Y0145654D02*
X0056785Y0145654D01*
X0057268Y0146138D01*
X0057268Y0147589D01*
X0058236Y0147589D02*
X0055333Y0147589D01*
X0055333Y0146138D01*
X0055817Y0145654D01*
X0057268Y0141696D02*
X0057268Y0140245D01*
X0056785Y0139761D01*
X0055817Y0139761D01*
X0055333Y0136815D02*
X0057268Y0136815D01*
X0060133Y0138772D02*
X0060133Y0139739D01*
X0060617Y0140223D01*
X0063036Y0140223D01*
X0062068Y0141234D02*
X0062068Y0142686D01*
X0061585Y0143169D01*
X0060133Y0143169D01*
X0060133Y0144181D02*
X0060133Y0145148D01*
X0060133Y0144665D02*
X0062068Y0144665D01*
X0062068Y0144181D01*
X0063036Y0144665D02*
X0063520Y0144665D01*
X0064933Y0144650D02*
X0064933Y0143682D01*
X0065417Y0143199D01*
X0066385Y0143199D01*
X0066868Y0143682D01*
X0066868Y0144650D01*
X0066385Y0145134D01*
X0065417Y0145134D01*
X0064933Y0144650D01*
X0065417Y0146145D02*
X0064933Y0146629D01*
X0064933Y0148080D01*
X0065417Y0149092D02*
X0065901Y0149576D01*
X0065901Y0151027D01*
X0066385Y0151027D02*
X0064933Y0151027D01*
X0064933Y0149576D01*
X0065417Y0149092D01*
X0066868Y0149576D02*
X0066868Y0150543D01*
X0066385Y0151027D01*
X0066868Y0152038D02*
X0064933Y0152038D01*
X0065901Y0152038D02*
X0066868Y0153006D01*
X0066868Y0153490D01*
X0066868Y0148080D02*
X0066868Y0146629D01*
X0066385Y0146145D01*
X0065417Y0146145D01*
X0062068Y0146145D02*
X0060133Y0147113D01*
X0062068Y0148080D01*
X0061585Y0149092D02*
X0062068Y0149576D01*
X0062068Y0150543D01*
X0061585Y0151027D01*
X0061101Y0151027D01*
X0061101Y0149092D01*
X0060617Y0149092D02*
X0061585Y0149092D01*
X0060617Y0149092D02*
X0060133Y0149576D01*
X0060133Y0150543D01*
X0060133Y0152038D02*
X0062068Y0152038D01*
X0061101Y0152038D02*
X0062068Y0153006D01*
X0062068Y0153490D01*
X0061585Y0154494D02*
X0062068Y0154977D01*
X0062068Y0156429D01*
X0062068Y0157440D02*
X0062068Y0157924D01*
X0060133Y0157924D01*
X0060133Y0157440D02*
X0060133Y0158408D01*
X0060617Y0159888D02*
X0060133Y0160372D01*
X0060617Y0159888D02*
X0062552Y0159888D01*
X0062068Y0159405D02*
X0062068Y0160372D01*
X0062068Y0161369D02*
X0060617Y0161369D01*
X0060133Y0161853D01*
X0060133Y0163304D01*
X0059650Y0163304D02*
X0059166Y0162820D01*
X0059166Y0162336D01*
X0059650Y0163304D02*
X0062068Y0163304D01*
X0058236Y0160387D02*
X0055333Y0160387D01*
X0055333Y0159375D02*
X0055333Y0157924D01*
X0055817Y0157440D01*
X0056785Y0157440D01*
X0057268Y0157924D01*
X0057268Y0159375D01*
X0056785Y0160387D02*
X0057268Y0160870D01*
X0057268Y0161838D01*
X0056785Y0162322D01*
X0055333Y0162322D01*
X0055817Y0163333D02*
X0056301Y0163817D01*
X0056301Y0165268D01*
X0056785Y0165268D02*
X0055333Y0165268D01*
X0055333Y0163817D01*
X0055817Y0163333D01*
X0057268Y0163817D02*
X0057268Y0164785D01*
X0056785Y0165268D01*
X0057268Y0166280D02*
X0057268Y0167247D01*
X0057752Y0166764D02*
X0055817Y0166764D01*
X0055333Y0167247D01*
X0055333Y0168244D02*
X0057268Y0168244D01*
X0056301Y0168244D02*
X0057268Y0169212D01*
X0057268Y0169695D01*
X0056785Y0170700D02*
X0055817Y0170700D01*
X0055333Y0171183D01*
X0055333Y0172151D01*
X0055817Y0172635D01*
X0056785Y0172635D01*
X0057268Y0172151D01*
X0057268Y0171183D01*
X0056785Y0170700D01*
X0057268Y0173646D02*
X0055333Y0173646D01*
X0055333Y0175581D02*
X0056785Y0175581D01*
X0057268Y0175097D01*
X0057268Y0173646D01*
X0057268Y0176593D02*
X0057268Y0177076D01*
X0055333Y0177076D01*
X0055333Y0176593D02*
X0055333Y0177560D01*
X0055817Y0178557D02*
X0055333Y0179041D01*
X0055333Y0180492D01*
X0055333Y0181503D02*
X0055333Y0182955D01*
X0055817Y0183438D01*
X0056301Y0182955D01*
X0056301Y0181987D01*
X0056785Y0181503D01*
X0057268Y0181987D01*
X0057268Y0183438D01*
X0057268Y0180492D02*
X0057268Y0179041D01*
X0056785Y0178557D01*
X0055817Y0178557D01*
X0058236Y0177076D02*
X0058720Y0177076D01*
X0063036Y0157924D02*
X0063520Y0157924D01*
X0061101Y0155945D02*
X0061101Y0154977D01*
X0061585Y0154494D01*
X0060133Y0154494D02*
X0060133Y0155945D01*
X0060617Y0156429D01*
X0061101Y0155945D01*
X0058236Y0153482D02*
X0055333Y0153482D01*
X0055817Y0154494D02*
X0056785Y0154494D01*
X0057268Y0154977D01*
X0057268Y0155945D01*
X0056785Y0156429D01*
X0056301Y0156429D01*
X0056301Y0154494D01*
X0055817Y0154494D02*
X0055333Y0154977D01*
X0055333Y0155945D01*
X0058236Y0153482D02*
X0057268Y0152515D01*
X0058236Y0151547D01*
X0055333Y0151547D01*
X0060133Y0141234D02*
X0062068Y0141234D01*
X0063036Y0138288D02*
X0060617Y0138288D01*
X0060133Y0138772D01*
X0064933Y0139241D02*
X0066868Y0139241D01*
X0067836Y0138273D01*
X0066868Y0137306D01*
X0064933Y0137306D01*
X0066385Y0137306D02*
X0066385Y0139241D01*
X0066868Y0140252D02*
X0066868Y0142187D01*
X0064933Y0140252D01*
X0064933Y0142187D01*
X0064933Y0133370D02*
X0064933Y0132886D01*
X0065417Y0132886D01*
X0065417Y0133370D01*
X0064933Y0133370D01*
X0066385Y0130907D02*
X0066385Y0129939D01*
X0067836Y0129939D02*
X0067836Y0131874D01*
X0067836Y0129939D02*
X0064933Y0129939D01*
X0061585Y0126993D02*
X0060617Y0126993D01*
X0062068Y0125996D02*
X0062068Y0125029D01*
X0062068Y0124017D02*
X0062068Y0122566D01*
X0061585Y0122082D01*
X0061101Y0122566D01*
X0061101Y0123533D01*
X0060617Y0124017D01*
X0060133Y0123533D01*
X0060133Y0122082D01*
X0061101Y0121070D02*
X0061101Y0119136D01*
X0061585Y0119136D02*
X0062068Y0119619D01*
X0062068Y0120587D01*
X0061585Y0121070D01*
X0061101Y0121070D01*
X0060133Y0120587D02*
X0060133Y0119619D01*
X0060617Y0119136D01*
X0061585Y0119136D01*
X0062068Y0118124D02*
X0060617Y0118124D01*
X0060133Y0117640D01*
X0060617Y0117156D01*
X0060133Y0116673D01*
X0060617Y0116189D01*
X0062068Y0116189D01*
X0061585Y0115177D02*
X0060133Y0115177D01*
X0061585Y0115177D02*
X0062068Y0114694D01*
X0062068Y0113726D01*
X0061585Y0113242D01*
X0062068Y0112246D02*
X0062068Y0111278D01*
X0062552Y0111762D02*
X0060617Y0111762D01*
X0060133Y0112246D01*
X0060133Y0113242D02*
X0063036Y0113242D01*
X0062068Y0110274D02*
X0062068Y0109790D01*
X0061101Y0108823D01*
X0062068Y0108823D02*
X0060133Y0108823D01*
X0060617Y0107811D02*
X0060133Y0107327D01*
X0060133Y0106360D01*
X0060617Y0105876D01*
X0061585Y0105876D01*
X0062068Y0106360D01*
X0062068Y0107327D01*
X0061585Y0107811D01*
X0060617Y0107811D01*
X0058236Y0107811D02*
X0058236Y0105876D01*
X0055333Y0105876D01*
X0055333Y0107811D01*
X0056785Y0106844D02*
X0056785Y0105876D01*
X0058236Y0104865D02*
X0055333Y0104865D01*
X0055333Y0102930D02*
X0058236Y0102930D01*
X0057268Y0103897D01*
X0058236Y0104865D01*
X0060133Y0104865D02*
X0063036Y0104865D01*
X0063036Y0102930D02*
X0060133Y0104865D01*
X0060133Y0102930D02*
X0063036Y0102930D01*
X0056785Y0111769D02*
X0056785Y0113704D01*
X0057752Y0114716D02*
X0058236Y0115199D01*
X0058236Y0116167D01*
X0057752Y0116651D01*
X0057268Y0116651D01*
X0056785Y0116167D01*
X0056301Y0116651D01*
X0055817Y0116651D01*
X0055333Y0116167D01*
X0055333Y0115199D01*
X0055817Y0114716D01*
X0056785Y0115683D02*
X0056785Y0116167D01*
X0057752Y0117662D02*
X0058236Y0118146D01*
X0058236Y0119113D01*
X0057752Y0119597D01*
X0057268Y0119597D01*
X0056785Y0119113D01*
X0056301Y0119597D01*
X0055817Y0119597D01*
X0055333Y0119113D01*
X0055333Y0118146D01*
X0055817Y0117662D01*
X0056785Y0118630D02*
X0056785Y0119113D01*
X0056785Y0120609D02*
X0057268Y0120609D01*
X0057268Y0121093D01*
X0056785Y0121093D01*
X0056785Y0120609D01*
X0055817Y0120609D02*
X0055333Y0120609D01*
X0055333Y0121093D01*
X0055817Y0121093D01*
X0055817Y0120609D01*
X0053436Y0121576D02*
X0050533Y0121576D01*
X0050533Y0120609D02*
X0050533Y0122544D01*
X0051985Y0123555D02*
X0051985Y0125490D01*
X0053436Y0125007D02*
X0050533Y0125007D01*
X0051985Y0123555D02*
X0053436Y0125007D01*
X0055333Y0125029D02*
X0057268Y0125029D01*
X0058236Y0125996D01*
X0057268Y0126964D01*
X0055333Y0126964D01*
X0056785Y0126964D02*
X0056785Y0125029D01*
X0053436Y0121576D02*
X0052468Y0120609D01*
X0051985Y0119597D02*
X0051985Y0117662D01*
X0053436Y0119113D01*
X0050533Y0119113D01*
X0051017Y0116651D02*
X0050533Y0116167D01*
X0050533Y0115199D01*
X0051017Y0114716D01*
X0052952Y0116651D01*
X0051017Y0116651D01*
X0052952Y0116651D02*
X0053436Y0116167D01*
X0053436Y0115199D01*
X0052952Y0114716D01*
X0051017Y0114716D01*
X0051017Y0113704D02*
X0051501Y0113704D01*
X0051985Y0113220D01*
X0051985Y0111769D01*
X0051017Y0111769D01*
X0050533Y0112253D01*
X0050533Y0113220D01*
X0051017Y0113704D01*
X0052952Y0112737D02*
X0051985Y0111769D01*
X0052952Y0112737D02*
X0053436Y0113704D01*
X0055333Y0113220D02*
X0058236Y0113220D01*
X0056785Y0111769D01*
X0053436Y0109790D02*
X0050533Y0109790D01*
X0050533Y0108823D02*
X0050533Y0110758D01*
X0052468Y0108823D02*
X0053436Y0109790D01*
X0052952Y0107811D02*
X0051017Y0105876D01*
X0050533Y0106360D01*
X0050533Y0107327D01*
X0051017Y0107811D01*
X0052952Y0107811D01*
X0053436Y0107327D01*
X0053436Y0106360D01*
X0052952Y0105876D01*
X0051017Y0105876D01*
X0050533Y0104865D02*
X0050533Y0102930D01*
X0052468Y0104865D01*
X0052952Y0104865D01*
X0053436Y0104381D01*
X0053436Y0103413D01*
X0052952Y0102930D01*
D21*
X0037753Y0161446D02*
X0002320Y0161446D01*
X0002320Y0192154D01*
X0037753Y0192154D01*
X0037753Y0161446D01*
X0023973Y0173847D02*
X0004288Y0171879D01*
X0004288Y0168926D02*
X0022005Y0170894D01*
X0023973Y0173847D02*
X0023973Y0179753D01*
X0004288Y0181721D01*
X0004288Y0184674D02*
X0020036Y0182706D01*
X0020036Y0190580D02*
X0004288Y0188611D01*
X0004288Y0184674D01*
X0004288Y0168926D02*
X0004288Y0164989D01*
X0022005Y0163020D01*
M02*
