%
M48
M72
T01C0.01969
T02C0.02362
T03C0.02800
T04C0.03150
T05C0.03200
T06C0.04000
T07C0.07480
T08C0.12598
%
T01
X22083Y51800
X63333Y35550
X32083Y141800
X148333Y171800
X157083Y171800
X164583Y176800
T02
X73333Y101800
X67083Y166800
X142083Y26800
T03
X127333Y85550
X134333Y85550
X135583Y186800
X128583Y186800
T04
X32438Y179950
X37162Y183099
X37162Y176800
X32438Y173650
X37162Y170501
T05
X29583Y31800
X39583Y31800
X54583Y31800
X54583Y16800
X54583Y6800
X85508Y35225
X85508Y45225
X85508Y55225
X85508Y65225
X85508Y75225
X85508Y85225
X85508Y95225
X85508Y105225
X85508Y115225
X85508Y125225
X85508Y135225
X85508Y145225
X85508Y155225
X85508Y165225
X79583Y176800
X69583Y176800
X105508Y189300
X110508Y181800
X115508Y189300
X115508Y165225
X115508Y155225
X115508Y145225
X115508Y135225
X115508Y125225
X115508Y115225
X115508Y105225
X115508Y95225
X115508Y85225
X115508Y75225
X115508Y65225
X115508Y55225
X115508Y45225
X115508Y35225
X73333Y45550
X63333Y45550
X54583Y71800
X39583Y71800
X29583Y71800
X12083Y46800
X12083Y36800
X128333Y115550
X138333Y115550
X164583Y115550
X164583Y155550
X138333Y165550
X128333Y165550
X148333Y181800
X148333Y191800
T06
X7083Y66800
X7083Y76800
X7083Y86800
X7083Y96800
X7083Y106800
X7083Y116800
X7083Y126800
X7083Y136800
X49583Y193050
X59583Y193050
X69583Y193050
X79583Y193050
X89583Y193050
X160833Y189300
X170833Y189300
X180833Y189300
X194583Y189300
X194583Y179300
X194583Y169300
X194583Y159300
X194583Y149300
X194583Y136800
X194583Y126800
X194583Y116800
X194583Y106800
X194583Y96800
X194583Y86800
X194583Y76800
X194583Y66800
X97083Y11800
X87083Y11800
X77083Y11800
X72083Y70550
X72083Y80550
X72083Y90550
T07
X17083Y162430
X17083Y191170
T08
X13333Y13050
X187684Y13050
M30
