G75*
%MOIN*%
%OFA0B0*%
%FSLAX25Y25*%
%IPPOS*%
%LPD*%
%AMOC8*
5,1,8,0,0,1.08239X$1,22.5*
%
%ADD10C,0.00000*%
%ADD11C,0.01600*%
%ADD12C,0.00600*%
%ADD13R,0.00300X0.00150*%
%ADD14R,0.00150X0.00150*%
%ADD15R,0.00450X0.00150*%
%ADD16R,0.00750X0.00150*%
%ADD17R,0.00600X0.00150*%
%ADD18R,0.00900X0.00150*%
%ADD19R,0.01500X0.00150*%
%ADD20R,0.01200X0.00150*%
%ADD21C,0.01200*%
%ADD22C,0.00500*%
%ADD23C,0.00800*%
%ADD24C,0.00400*%
%ADD25C,0.01000*%
%ADD26R,0.02400X0.03400*%
D10*
X0002083Y0001800D02*
X0002083Y0198650D01*
X0198934Y0198650D01*
X0198934Y0001800D01*
X0002083Y0001800D01*
X0007034Y0013050D02*
X0007036Y0013208D01*
X0007042Y0013366D01*
X0007052Y0013524D01*
X0007066Y0013682D01*
X0007084Y0013839D01*
X0007105Y0013996D01*
X0007131Y0014152D01*
X0007161Y0014308D01*
X0007194Y0014463D01*
X0007232Y0014616D01*
X0007273Y0014769D01*
X0007318Y0014921D01*
X0007367Y0015072D01*
X0007420Y0015221D01*
X0007476Y0015369D01*
X0007536Y0015515D01*
X0007600Y0015660D01*
X0007668Y0015803D01*
X0007739Y0015945D01*
X0007813Y0016085D01*
X0007891Y0016222D01*
X0007973Y0016358D01*
X0008057Y0016492D01*
X0008146Y0016623D01*
X0008237Y0016752D01*
X0008332Y0016879D01*
X0008429Y0017004D01*
X0008530Y0017126D01*
X0008634Y0017245D01*
X0008741Y0017362D01*
X0008851Y0017476D01*
X0008964Y0017587D01*
X0009079Y0017696D01*
X0009197Y0017801D01*
X0009318Y0017903D01*
X0009441Y0018003D01*
X0009567Y0018099D01*
X0009695Y0018192D01*
X0009825Y0018282D01*
X0009958Y0018368D01*
X0010093Y0018452D01*
X0010229Y0018531D01*
X0010368Y0018608D01*
X0010509Y0018680D01*
X0010651Y0018750D01*
X0010795Y0018815D01*
X0010941Y0018877D01*
X0011088Y0018935D01*
X0011237Y0018990D01*
X0011387Y0019041D01*
X0011538Y0019088D01*
X0011690Y0019131D01*
X0011843Y0019170D01*
X0011998Y0019206D01*
X0012153Y0019237D01*
X0012309Y0019265D01*
X0012465Y0019289D01*
X0012622Y0019309D01*
X0012780Y0019325D01*
X0012937Y0019337D01*
X0013096Y0019345D01*
X0013254Y0019349D01*
X0013412Y0019349D01*
X0013570Y0019345D01*
X0013729Y0019337D01*
X0013886Y0019325D01*
X0014044Y0019309D01*
X0014201Y0019289D01*
X0014357Y0019265D01*
X0014513Y0019237D01*
X0014668Y0019206D01*
X0014823Y0019170D01*
X0014976Y0019131D01*
X0015128Y0019088D01*
X0015279Y0019041D01*
X0015429Y0018990D01*
X0015578Y0018935D01*
X0015725Y0018877D01*
X0015871Y0018815D01*
X0016015Y0018750D01*
X0016157Y0018680D01*
X0016298Y0018608D01*
X0016437Y0018531D01*
X0016573Y0018452D01*
X0016708Y0018368D01*
X0016841Y0018282D01*
X0016971Y0018192D01*
X0017099Y0018099D01*
X0017225Y0018003D01*
X0017348Y0017903D01*
X0017469Y0017801D01*
X0017587Y0017696D01*
X0017702Y0017587D01*
X0017815Y0017476D01*
X0017925Y0017362D01*
X0018032Y0017245D01*
X0018136Y0017126D01*
X0018237Y0017004D01*
X0018334Y0016879D01*
X0018429Y0016752D01*
X0018520Y0016623D01*
X0018609Y0016492D01*
X0018693Y0016358D01*
X0018775Y0016222D01*
X0018853Y0016085D01*
X0018927Y0015945D01*
X0018998Y0015803D01*
X0019066Y0015660D01*
X0019130Y0015515D01*
X0019190Y0015369D01*
X0019246Y0015221D01*
X0019299Y0015072D01*
X0019348Y0014921D01*
X0019393Y0014769D01*
X0019434Y0014616D01*
X0019472Y0014463D01*
X0019505Y0014308D01*
X0019535Y0014152D01*
X0019561Y0013996D01*
X0019582Y0013839D01*
X0019600Y0013682D01*
X0019614Y0013524D01*
X0019624Y0013366D01*
X0019630Y0013208D01*
X0019632Y0013050D01*
X0019630Y0012892D01*
X0019624Y0012734D01*
X0019614Y0012576D01*
X0019600Y0012418D01*
X0019582Y0012261D01*
X0019561Y0012104D01*
X0019535Y0011948D01*
X0019505Y0011792D01*
X0019472Y0011637D01*
X0019434Y0011484D01*
X0019393Y0011331D01*
X0019348Y0011179D01*
X0019299Y0011028D01*
X0019246Y0010879D01*
X0019190Y0010731D01*
X0019130Y0010585D01*
X0019066Y0010440D01*
X0018998Y0010297D01*
X0018927Y0010155D01*
X0018853Y0010015D01*
X0018775Y0009878D01*
X0018693Y0009742D01*
X0018609Y0009608D01*
X0018520Y0009477D01*
X0018429Y0009348D01*
X0018334Y0009221D01*
X0018237Y0009096D01*
X0018136Y0008974D01*
X0018032Y0008855D01*
X0017925Y0008738D01*
X0017815Y0008624D01*
X0017702Y0008513D01*
X0017587Y0008404D01*
X0017469Y0008299D01*
X0017348Y0008197D01*
X0017225Y0008097D01*
X0017099Y0008001D01*
X0016971Y0007908D01*
X0016841Y0007818D01*
X0016708Y0007732D01*
X0016573Y0007648D01*
X0016437Y0007569D01*
X0016298Y0007492D01*
X0016157Y0007420D01*
X0016015Y0007350D01*
X0015871Y0007285D01*
X0015725Y0007223D01*
X0015578Y0007165D01*
X0015429Y0007110D01*
X0015279Y0007059D01*
X0015128Y0007012D01*
X0014976Y0006969D01*
X0014823Y0006930D01*
X0014668Y0006894D01*
X0014513Y0006863D01*
X0014357Y0006835D01*
X0014201Y0006811D01*
X0014044Y0006791D01*
X0013886Y0006775D01*
X0013729Y0006763D01*
X0013570Y0006755D01*
X0013412Y0006751D01*
X0013254Y0006751D01*
X0013096Y0006755D01*
X0012937Y0006763D01*
X0012780Y0006775D01*
X0012622Y0006791D01*
X0012465Y0006811D01*
X0012309Y0006835D01*
X0012153Y0006863D01*
X0011998Y0006894D01*
X0011843Y0006930D01*
X0011690Y0006969D01*
X0011538Y0007012D01*
X0011387Y0007059D01*
X0011237Y0007110D01*
X0011088Y0007165D01*
X0010941Y0007223D01*
X0010795Y0007285D01*
X0010651Y0007350D01*
X0010509Y0007420D01*
X0010368Y0007492D01*
X0010229Y0007569D01*
X0010093Y0007648D01*
X0009958Y0007732D01*
X0009825Y0007818D01*
X0009695Y0007908D01*
X0009567Y0008001D01*
X0009441Y0008097D01*
X0009318Y0008197D01*
X0009197Y0008299D01*
X0009079Y0008404D01*
X0008964Y0008513D01*
X0008851Y0008624D01*
X0008741Y0008738D01*
X0008634Y0008855D01*
X0008530Y0008974D01*
X0008429Y0009096D01*
X0008332Y0009221D01*
X0008237Y0009348D01*
X0008146Y0009477D01*
X0008057Y0009608D01*
X0007973Y0009742D01*
X0007891Y0009878D01*
X0007813Y0010015D01*
X0007739Y0010155D01*
X0007668Y0010297D01*
X0007600Y0010440D01*
X0007536Y0010585D01*
X0007476Y0010731D01*
X0007420Y0010879D01*
X0007367Y0011028D01*
X0007318Y0011179D01*
X0007273Y0011331D01*
X0007232Y0011484D01*
X0007194Y0011637D01*
X0007161Y0011792D01*
X0007131Y0011948D01*
X0007105Y0012104D01*
X0007084Y0012261D01*
X0007066Y0012418D01*
X0007052Y0012576D01*
X0007042Y0012734D01*
X0007036Y0012892D01*
X0007034Y0013050D01*
X0181385Y0013050D02*
X0181387Y0013208D01*
X0181393Y0013366D01*
X0181403Y0013524D01*
X0181417Y0013682D01*
X0181435Y0013839D01*
X0181456Y0013996D01*
X0181482Y0014152D01*
X0181512Y0014308D01*
X0181545Y0014463D01*
X0181583Y0014616D01*
X0181624Y0014769D01*
X0181669Y0014921D01*
X0181718Y0015072D01*
X0181771Y0015221D01*
X0181827Y0015369D01*
X0181887Y0015515D01*
X0181951Y0015660D01*
X0182019Y0015803D01*
X0182090Y0015945D01*
X0182164Y0016085D01*
X0182242Y0016222D01*
X0182324Y0016358D01*
X0182408Y0016492D01*
X0182497Y0016623D01*
X0182588Y0016752D01*
X0182683Y0016879D01*
X0182780Y0017004D01*
X0182881Y0017126D01*
X0182985Y0017245D01*
X0183092Y0017362D01*
X0183202Y0017476D01*
X0183315Y0017587D01*
X0183430Y0017696D01*
X0183548Y0017801D01*
X0183669Y0017903D01*
X0183792Y0018003D01*
X0183918Y0018099D01*
X0184046Y0018192D01*
X0184176Y0018282D01*
X0184309Y0018368D01*
X0184444Y0018452D01*
X0184580Y0018531D01*
X0184719Y0018608D01*
X0184860Y0018680D01*
X0185002Y0018750D01*
X0185146Y0018815D01*
X0185292Y0018877D01*
X0185439Y0018935D01*
X0185588Y0018990D01*
X0185738Y0019041D01*
X0185889Y0019088D01*
X0186041Y0019131D01*
X0186194Y0019170D01*
X0186349Y0019206D01*
X0186504Y0019237D01*
X0186660Y0019265D01*
X0186816Y0019289D01*
X0186973Y0019309D01*
X0187131Y0019325D01*
X0187288Y0019337D01*
X0187447Y0019345D01*
X0187605Y0019349D01*
X0187763Y0019349D01*
X0187921Y0019345D01*
X0188080Y0019337D01*
X0188237Y0019325D01*
X0188395Y0019309D01*
X0188552Y0019289D01*
X0188708Y0019265D01*
X0188864Y0019237D01*
X0189019Y0019206D01*
X0189174Y0019170D01*
X0189327Y0019131D01*
X0189479Y0019088D01*
X0189630Y0019041D01*
X0189780Y0018990D01*
X0189929Y0018935D01*
X0190076Y0018877D01*
X0190222Y0018815D01*
X0190366Y0018750D01*
X0190508Y0018680D01*
X0190649Y0018608D01*
X0190788Y0018531D01*
X0190924Y0018452D01*
X0191059Y0018368D01*
X0191192Y0018282D01*
X0191322Y0018192D01*
X0191450Y0018099D01*
X0191576Y0018003D01*
X0191699Y0017903D01*
X0191820Y0017801D01*
X0191938Y0017696D01*
X0192053Y0017587D01*
X0192166Y0017476D01*
X0192276Y0017362D01*
X0192383Y0017245D01*
X0192487Y0017126D01*
X0192588Y0017004D01*
X0192685Y0016879D01*
X0192780Y0016752D01*
X0192871Y0016623D01*
X0192960Y0016492D01*
X0193044Y0016358D01*
X0193126Y0016222D01*
X0193204Y0016085D01*
X0193278Y0015945D01*
X0193349Y0015803D01*
X0193417Y0015660D01*
X0193481Y0015515D01*
X0193541Y0015369D01*
X0193597Y0015221D01*
X0193650Y0015072D01*
X0193699Y0014921D01*
X0193744Y0014769D01*
X0193785Y0014616D01*
X0193823Y0014463D01*
X0193856Y0014308D01*
X0193886Y0014152D01*
X0193912Y0013996D01*
X0193933Y0013839D01*
X0193951Y0013682D01*
X0193965Y0013524D01*
X0193975Y0013366D01*
X0193981Y0013208D01*
X0193983Y0013050D01*
X0193981Y0012892D01*
X0193975Y0012734D01*
X0193965Y0012576D01*
X0193951Y0012418D01*
X0193933Y0012261D01*
X0193912Y0012104D01*
X0193886Y0011948D01*
X0193856Y0011792D01*
X0193823Y0011637D01*
X0193785Y0011484D01*
X0193744Y0011331D01*
X0193699Y0011179D01*
X0193650Y0011028D01*
X0193597Y0010879D01*
X0193541Y0010731D01*
X0193481Y0010585D01*
X0193417Y0010440D01*
X0193349Y0010297D01*
X0193278Y0010155D01*
X0193204Y0010015D01*
X0193126Y0009878D01*
X0193044Y0009742D01*
X0192960Y0009608D01*
X0192871Y0009477D01*
X0192780Y0009348D01*
X0192685Y0009221D01*
X0192588Y0009096D01*
X0192487Y0008974D01*
X0192383Y0008855D01*
X0192276Y0008738D01*
X0192166Y0008624D01*
X0192053Y0008513D01*
X0191938Y0008404D01*
X0191820Y0008299D01*
X0191699Y0008197D01*
X0191576Y0008097D01*
X0191450Y0008001D01*
X0191322Y0007908D01*
X0191192Y0007818D01*
X0191059Y0007732D01*
X0190924Y0007648D01*
X0190788Y0007569D01*
X0190649Y0007492D01*
X0190508Y0007420D01*
X0190366Y0007350D01*
X0190222Y0007285D01*
X0190076Y0007223D01*
X0189929Y0007165D01*
X0189780Y0007110D01*
X0189630Y0007059D01*
X0189479Y0007012D01*
X0189327Y0006969D01*
X0189174Y0006930D01*
X0189019Y0006894D01*
X0188864Y0006863D01*
X0188708Y0006835D01*
X0188552Y0006811D01*
X0188395Y0006791D01*
X0188237Y0006775D01*
X0188080Y0006763D01*
X0187921Y0006755D01*
X0187763Y0006751D01*
X0187605Y0006751D01*
X0187447Y0006755D01*
X0187288Y0006763D01*
X0187131Y0006775D01*
X0186973Y0006791D01*
X0186816Y0006811D01*
X0186660Y0006835D01*
X0186504Y0006863D01*
X0186349Y0006894D01*
X0186194Y0006930D01*
X0186041Y0006969D01*
X0185889Y0007012D01*
X0185738Y0007059D01*
X0185588Y0007110D01*
X0185439Y0007165D01*
X0185292Y0007223D01*
X0185146Y0007285D01*
X0185002Y0007350D01*
X0184860Y0007420D01*
X0184719Y0007492D01*
X0184580Y0007569D01*
X0184444Y0007648D01*
X0184309Y0007732D01*
X0184176Y0007818D01*
X0184046Y0007908D01*
X0183918Y0008001D01*
X0183792Y0008097D01*
X0183669Y0008197D01*
X0183548Y0008299D01*
X0183430Y0008404D01*
X0183315Y0008513D01*
X0183202Y0008624D01*
X0183092Y0008738D01*
X0182985Y0008855D01*
X0182881Y0008974D01*
X0182780Y0009096D01*
X0182683Y0009221D01*
X0182588Y0009348D01*
X0182497Y0009477D01*
X0182408Y0009608D01*
X0182324Y0009742D01*
X0182242Y0009878D01*
X0182164Y0010015D01*
X0182090Y0010155D01*
X0182019Y0010297D01*
X0181951Y0010440D01*
X0181887Y0010585D01*
X0181827Y0010731D01*
X0181771Y0010879D01*
X0181718Y0011028D01*
X0181669Y0011179D01*
X0181624Y0011331D01*
X0181583Y0011484D01*
X0181545Y0011637D01*
X0181512Y0011792D01*
X0181482Y0011948D01*
X0181456Y0012104D01*
X0181435Y0012261D01*
X0181417Y0012418D01*
X0181403Y0012576D01*
X0181393Y0012734D01*
X0181387Y0012892D01*
X0181385Y0013050D01*
D11*
X0102083Y0011800D02*
X0102081Y0011940D01*
X0102075Y0012080D01*
X0102065Y0012220D01*
X0102052Y0012360D01*
X0102034Y0012499D01*
X0102012Y0012638D01*
X0101987Y0012775D01*
X0101958Y0012913D01*
X0101925Y0013049D01*
X0101888Y0013184D01*
X0101847Y0013318D01*
X0101802Y0013451D01*
X0101754Y0013583D01*
X0101702Y0013713D01*
X0101647Y0013842D01*
X0101588Y0013969D01*
X0101525Y0014095D01*
X0101459Y0014219D01*
X0101390Y0014340D01*
X0101317Y0014460D01*
X0101240Y0014578D01*
X0101161Y0014693D01*
X0101078Y0014807D01*
X0100992Y0014917D01*
X0100903Y0015026D01*
X0100811Y0015132D01*
X0100716Y0015235D01*
X0100619Y0015336D01*
X0100518Y0015433D01*
X0100415Y0015528D01*
X0100309Y0015620D01*
X0100200Y0015709D01*
X0100090Y0015795D01*
X0099976Y0015878D01*
X0099861Y0015957D01*
X0099743Y0016034D01*
X0099623Y0016107D01*
X0099502Y0016176D01*
X0099378Y0016242D01*
X0099252Y0016305D01*
X0099125Y0016364D01*
X0098996Y0016419D01*
X0098866Y0016471D01*
X0098734Y0016519D01*
X0098601Y0016564D01*
X0098467Y0016605D01*
X0098332Y0016642D01*
X0098196Y0016675D01*
X0098058Y0016704D01*
X0097921Y0016729D01*
X0097782Y0016751D01*
X0097643Y0016769D01*
X0097503Y0016782D01*
X0097363Y0016792D01*
X0097223Y0016798D01*
X0097083Y0016800D01*
X0077083Y0016800D01*
X0076943Y0016798D01*
X0076803Y0016792D01*
X0076663Y0016782D01*
X0076523Y0016769D01*
X0076384Y0016751D01*
X0076245Y0016729D01*
X0076108Y0016704D01*
X0075970Y0016675D01*
X0075834Y0016642D01*
X0075699Y0016605D01*
X0075565Y0016564D01*
X0075432Y0016519D01*
X0075300Y0016471D01*
X0075170Y0016419D01*
X0075041Y0016364D01*
X0074914Y0016305D01*
X0074788Y0016242D01*
X0074664Y0016176D01*
X0074543Y0016107D01*
X0074423Y0016034D01*
X0074305Y0015957D01*
X0074190Y0015878D01*
X0074076Y0015795D01*
X0073966Y0015709D01*
X0073857Y0015620D01*
X0073751Y0015528D01*
X0073648Y0015433D01*
X0073547Y0015336D01*
X0073450Y0015235D01*
X0073355Y0015132D01*
X0073263Y0015026D01*
X0073174Y0014917D01*
X0073088Y0014807D01*
X0073005Y0014693D01*
X0072926Y0014578D01*
X0072849Y0014460D01*
X0072776Y0014340D01*
X0072707Y0014219D01*
X0072641Y0014095D01*
X0072578Y0013969D01*
X0072519Y0013842D01*
X0072464Y0013713D01*
X0072412Y0013583D01*
X0072364Y0013451D01*
X0072319Y0013318D01*
X0072278Y0013184D01*
X0072241Y0013049D01*
X0072208Y0012913D01*
X0072179Y0012775D01*
X0072154Y0012638D01*
X0072132Y0012499D01*
X0072114Y0012360D01*
X0072101Y0012220D01*
X0072091Y0012080D01*
X0072085Y0011940D01*
X0072083Y0011800D01*
X0072085Y0011660D01*
X0072091Y0011520D01*
X0072101Y0011380D01*
X0072114Y0011240D01*
X0072132Y0011101D01*
X0072154Y0010962D01*
X0072179Y0010825D01*
X0072208Y0010687D01*
X0072241Y0010551D01*
X0072278Y0010416D01*
X0072319Y0010282D01*
X0072364Y0010149D01*
X0072412Y0010017D01*
X0072464Y0009887D01*
X0072519Y0009758D01*
X0072578Y0009631D01*
X0072641Y0009505D01*
X0072707Y0009381D01*
X0072776Y0009260D01*
X0072849Y0009140D01*
X0072926Y0009022D01*
X0073005Y0008907D01*
X0073088Y0008793D01*
X0073174Y0008683D01*
X0073263Y0008574D01*
X0073355Y0008468D01*
X0073450Y0008365D01*
X0073547Y0008264D01*
X0073648Y0008167D01*
X0073751Y0008072D01*
X0073857Y0007980D01*
X0073966Y0007891D01*
X0074076Y0007805D01*
X0074190Y0007722D01*
X0074305Y0007643D01*
X0074423Y0007566D01*
X0074543Y0007493D01*
X0074664Y0007424D01*
X0074788Y0007358D01*
X0074914Y0007295D01*
X0075041Y0007236D01*
X0075170Y0007181D01*
X0075300Y0007129D01*
X0075432Y0007081D01*
X0075565Y0007036D01*
X0075699Y0006995D01*
X0075834Y0006958D01*
X0075970Y0006925D01*
X0076108Y0006896D01*
X0076245Y0006871D01*
X0076384Y0006849D01*
X0076523Y0006831D01*
X0076663Y0006818D01*
X0076803Y0006808D01*
X0076943Y0006802D01*
X0077083Y0006800D01*
X0097083Y0006800D01*
X0097223Y0006802D01*
X0097363Y0006808D01*
X0097503Y0006818D01*
X0097643Y0006831D01*
X0097782Y0006849D01*
X0097921Y0006871D01*
X0098058Y0006896D01*
X0098196Y0006925D01*
X0098332Y0006958D01*
X0098467Y0006995D01*
X0098601Y0007036D01*
X0098734Y0007081D01*
X0098866Y0007129D01*
X0098996Y0007181D01*
X0099125Y0007236D01*
X0099252Y0007295D01*
X0099378Y0007358D01*
X0099502Y0007424D01*
X0099623Y0007493D01*
X0099743Y0007566D01*
X0099861Y0007643D01*
X0099976Y0007722D01*
X0100090Y0007805D01*
X0100200Y0007891D01*
X0100309Y0007980D01*
X0100415Y0008072D01*
X0100518Y0008167D01*
X0100619Y0008264D01*
X0100716Y0008365D01*
X0100811Y0008468D01*
X0100903Y0008574D01*
X0100992Y0008683D01*
X0101078Y0008793D01*
X0101161Y0008907D01*
X0101240Y0009022D01*
X0101317Y0009140D01*
X0101390Y0009260D01*
X0101459Y0009381D01*
X0101525Y0009505D01*
X0101588Y0009631D01*
X0101647Y0009758D01*
X0101702Y0009887D01*
X0101754Y0010017D01*
X0101802Y0010149D01*
X0101847Y0010282D01*
X0101888Y0010416D01*
X0101925Y0010551D01*
X0101958Y0010687D01*
X0101987Y0010825D01*
X0102012Y0010962D01*
X0102034Y0011101D01*
X0102052Y0011240D01*
X0102065Y0011380D01*
X0102075Y0011520D01*
X0102081Y0011660D01*
X0102083Y0011800D01*
X0085833Y0171800D02*
X0085835Y0171870D01*
X0085841Y0171940D01*
X0085851Y0172009D01*
X0085864Y0172078D01*
X0085882Y0172146D01*
X0085903Y0172213D01*
X0085928Y0172278D01*
X0085957Y0172342D01*
X0085989Y0172405D01*
X0086025Y0172465D01*
X0086064Y0172523D01*
X0086106Y0172579D01*
X0086151Y0172633D01*
X0086199Y0172684D01*
X0086250Y0172732D01*
X0086304Y0172777D01*
X0086360Y0172819D01*
X0086418Y0172858D01*
X0086478Y0172894D01*
X0086541Y0172926D01*
X0086605Y0172955D01*
X0086670Y0172980D01*
X0086737Y0173001D01*
X0086805Y0173019D01*
X0086874Y0173032D01*
X0086943Y0173042D01*
X0087013Y0173048D01*
X0087083Y0173050D01*
X0087153Y0173048D01*
X0087223Y0173042D01*
X0087292Y0173032D01*
X0087361Y0173019D01*
X0087429Y0173001D01*
X0087496Y0172980D01*
X0087561Y0172955D01*
X0087625Y0172926D01*
X0087688Y0172894D01*
X0087748Y0172858D01*
X0087806Y0172819D01*
X0087862Y0172777D01*
X0087916Y0172732D01*
X0087967Y0172684D01*
X0088015Y0172633D01*
X0088060Y0172579D01*
X0088102Y0172523D01*
X0088141Y0172465D01*
X0088177Y0172405D01*
X0088209Y0172342D01*
X0088238Y0172278D01*
X0088263Y0172213D01*
X0088284Y0172146D01*
X0088302Y0172078D01*
X0088315Y0172009D01*
X0088325Y0171940D01*
X0088331Y0171870D01*
X0088333Y0171800D01*
X0088331Y0171730D01*
X0088325Y0171660D01*
X0088315Y0171591D01*
X0088302Y0171522D01*
X0088284Y0171454D01*
X0088263Y0171387D01*
X0088238Y0171322D01*
X0088209Y0171258D01*
X0088177Y0171195D01*
X0088141Y0171135D01*
X0088102Y0171077D01*
X0088060Y0171021D01*
X0088015Y0170967D01*
X0087967Y0170916D01*
X0087916Y0170868D01*
X0087862Y0170823D01*
X0087806Y0170781D01*
X0087748Y0170742D01*
X0087688Y0170706D01*
X0087625Y0170674D01*
X0087561Y0170645D01*
X0087496Y0170620D01*
X0087429Y0170599D01*
X0087361Y0170581D01*
X0087292Y0170568D01*
X0087223Y0170558D01*
X0087153Y0170552D01*
X0087083Y0170550D01*
X0087013Y0170552D01*
X0086943Y0170558D01*
X0086874Y0170568D01*
X0086805Y0170581D01*
X0086737Y0170599D01*
X0086670Y0170620D01*
X0086605Y0170645D01*
X0086541Y0170674D01*
X0086478Y0170706D01*
X0086418Y0170742D01*
X0086360Y0170781D01*
X0086304Y0170823D01*
X0086250Y0170868D01*
X0086199Y0170916D01*
X0086151Y0170967D01*
X0086106Y0171021D01*
X0086064Y0171077D01*
X0086025Y0171135D01*
X0085989Y0171195D01*
X0085957Y0171258D01*
X0085928Y0171322D01*
X0085903Y0171387D01*
X0085882Y0171454D01*
X0085864Y0171522D01*
X0085851Y0171591D01*
X0085841Y0171660D01*
X0085835Y0171730D01*
X0085833Y0171800D01*
X0160833Y0184300D02*
X0180833Y0184300D01*
X0182083Y0184300D01*
X0180833Y0184300D02*
X0180973Y0184302D01*
X0181113Y0184308D01*
X0181253Y0184318D01*
X0181393Y0184331D01*
X0181532Y0184349D01*
X0181671Y0184371D01*
X0181808Y0184396D01*
X0181946Y0184425D01*
X0182082Y0184458D01*
X0182217Y0184495D01*
X0182351Y0184536D01*
X0182484Y0184581D01*
X0182616Y0184629D01*
X0182746Y0184681D01*
X0182875Y0184736D01*
X0183002Y0184795D01*
X0183128Y0184858D01*
X0183252Y0184924D01*
X0183373Y0184993D01*
X0183493Y0185066D01*
X0183611Y0185143D01*
X0183726Y0185222D01*
X0183840Y0185305D01*
X0183950Y0185391D01*
X0184059Y0185480D01*
X0184165Y0185572D01*
X0184268Y0185667D01*
X0184369Y0185764D01*
X0184466Y0185865D01*
X0184561Y0185968D01*
X0184653Y0186074D01*
X0184742Y0186183D01*
X0184828Y0186293D01*
X0184911Y0186407D01*
X0184990Y0186522D01*
X0185067Y0186640D01*
X0185140Y0186760D01*
X0185209Y0186881D01*
X0185275Y0187005D01*
X0185338Y0187131D01*
X0185397Y0187258D01*
X0185452Y0187387D01*
X0185504Y0187517D01*
X0185552Y0187649D01*
X0185597Y0187782D01*
X0185638Y0187916D01*
X0185675Y0188051D01*
X0185708Y0188187D01*
X0185737Y0188325D01*
X0185762Y0188462D01*
X0185784Y0188601D01*
X0185802Y0188740D01*
X0185815Y0188880D01*
X0185825Y0189020D01*
X0185831Y0189160D01*
X0185833Y0189300D01*
X0185831Y0189440D01*
X0185825Y0189580D01*
X0185815Y0189720D01*
X0185802Y0189860D01*
X0185784Y0189999D01*
X0185762Y0190138D01*
X0185737Y0190275D01*
X0185708Y0190413D01*
X0185675Y0190549D01*
X0185638Y0190684D01*
X0185597Y0190818D01*
X0185552Y0190951D01*
X0185504Y0191083D01*
X0185452Y0191213D01*
X0185397Y0191342D01*
X0185338Y0191469D01*
X0185275Y0191595D01*
X0185209Y0191719D01*
X0185140Y0191840D01*
X0185067Y0191960D01*
X0184990Y0192078D01*
X0184911Y0192193D01*
X0184828Y0192307D01*
X0184742Y0192417D01*
X0184653Y0192526D01*
X0184561Y0192632D01*
X0184466Y0192735D01*
X0184369Y0192836D01*
X0184268Y0192933D01*
X0184165Y0193028D01*
X0184059Y0193120D01*
X0183950Y0193209D01*
X0183840Y0193295D01*
X0183726Y0193378D01*
X0183611Y0193457D01*
X0183493Y0193534D01*
X0183373Y0193607D01*
X0183252Y0193676D01*
X0183128Y0193742D01*
X0183002Y0193805D01*
X0182875Y0193864D01*
X0182746Y0193919D01*
X0182616Y0193971D01*
X0182484Y0194019D01*
X0182351Y0194064D01*
X0182217Y0194105D01*
X0182082Y0194142D01*
X0181946Y0194175D01*
X0181808Y0194204D01*
X0181671Y0194229D01*
X0181532Y0194251D01*
X0181393Y0194269D01*
X0181253Y0194282D01*
X0181113Y0194292D01*
X0180973Y0194298D01*
X0180833Y0194300D01*
X0160833Y0194300D01*
X0160693Y0194298D01*
X0160553Y0194292D01*
X0160413Y0194282D01*
X0160273Y0194269D01*
X0160134Y0194251D01*
X0159995Y0194229D01*
X0159858Y0194204D01*
X0159720Y0194175D01*
X0159584Y0194142D01*
X0159449Y0194105D01*
X0159315Y0194064D01*
X0159182Y0194019D01*
X0159050Y0193971D01*
X0158920Y0193919D01*
X0158791Y0193864D01*
X0158664Y0193805D01*
X0158538Y0193742D01*
X0158414Y0193676D01*
X0158293Y0193607D01*
X0158173Y0193534D01*
X0158055Y0193457D01*
X0157940Y0193378D01*
X0157826Y0193295D01*
X0157716Y0193209D01*
X0157607Y0193120D01*
X0157501Y0193028D01*
X0157398Y0192933D01*
X0157297Y0192836D01*
X0157200Y0192735D01*
X0157105Y0192632D01*
X0157013Y0192526D01*
X0156924Y0192417D01*
X0156838Y0192307D01*
X0156755Y0192193D01*
X0156676Y0192078D01*
X0156599Y0191960D01*
X0156526Y0191840D01*
X0156457Y0191719D01*
X0156391Y0191595D01*
X0156328Y0191469D01*
X0156269Y0191342D01*
X0156214Y0191213D01*
X0156162Y0191083D01*
X0156114Y0190951D01*
X0156069Y0190818D01*
X0156028Y0190684D01*
X0155991Y0190549D01*
X0155958Y0190413D01*
X0155929Y0190275D01*
X0155904Y0190138D01*
X0155882Y0189999D01*
X0155864Y0189860D01*
X0155851Y0189720D01*
X0155841Y0189580D01*
X0155835Y0189440D01*
X0155833Y0189300D01*
X0155835Y0189160D01*
X0155841Y0189020D01*
X0155851Y0188880D01*
X0155864Y0188740D01*
X0155882Y0188601D01*
X0155904Y0188462D01*
X0155929Y0188325D01*
X0155958Y0188187D01*
X0155991Y0188051D01*
X0156028Y0187916D01*
X0156069Y0187782D01*
X0156114Y0187649D01*
X0156162Y0187517D01*
X0156214Y0187387D01*
X0156269Y0187258D01*
X0156328Y0187131D01*
X0156391Y0187005D01*
X0156457Y0186881D01*
X0156526Y0186760D01*
X0156599Y0186640D01*
X0156676Y0186522D01*
X0156755Y0186407D01*
X0156838Y0186293D01*
X0156924Y0186183D01*
X0157013Y0186074D01*
X0157105Y0185968D01*
X0157200Y0185865D01*
X0157297Y0185764D01*
X0157398Y0185667D01*
X0157501Y0185572D01*
X0157607Y0185480D01*
X0157716Y0185391D01*
X0157826Y0185305D01*
X0157940Y0185222D01*
X0158055Y0185143D01*
X0158173Y0185066D01*
X0158293Y0184993D01*
X0158414Y0184924D01*
X0158538Y0184858D01*
X0158664Y0184795D01*
X0158791Y0184736D01*
X0158920Y0184681D01*
X0159050Y0184629D01*
X0159182Y0184581D01*
X0159315Y0184536D01*
X0159449Y0184495D01*
X0159584Y0184458D01*
X0159720Y0184425D01*
X0159858Y0184396D01*
X0159995Y0184371D01*
X0160134Y0184349D01*
X0160273Y0184331D01*
X0160413Y0184318D01*
X0160553Y0184308D01*
X0160693Y0184302D01*
X0160833Y0184300D01*
X0187083Y0195550D02*
X0187085Y0195620D01*
X0187091Y0195690D01*
X0187101Y0195759D01*
X0187114Y0195828D01*
X0187132Y0195896D01*
X0187153Y0195963D01*
X0187178Y0196028D01*
X0187207Y0196092D01*
X0187239Y0196155D01*
X0187275Y0196215D01*
X0187314Y0196273D01*
X0187356Y0196329D01*
X0187401Y0196383D01*
X0187449Y0196434D01*
X0187500Y0196482D01*
X0187554Y0196527D01*
X0187610Y0196569D01*
X0187668Y0196608D01*
X0187728Y0196644D01*
X0187791Y0196676D01*
X0187855Y0196705D01*
X0187920Y0196730D01*
X0187987Y0196751D01*
X0188055Y0196769D01*
X0188124Y0196782D01*
X0188193Y0196792D01*
X0188263Y0196798D01*
X0188333Y0196800D01*
X0188403Y0196798D01*
X0188473Y0196792D01*
X0188542Y0196782D01*
X0188611Y0196769D01*
X0188679Y0196751D01*
X0188746Y0196730D01*
X0188811Y0196705D01*
X0188875Y0196676D01*
X0188938Y0196644D01*
X0188998Y0196608D01*
X0189056Y0196569D01*
X0189112Y0196527D01*
X0189166Y0196482D01*
X0189217Y0196434D01*
X0189265Y0196383D01*
X0189310Y0196329D01*
X0189352Y0196273D01*
X0189391Y0196215D01*
X0189427Y0196155D01*
X0189459Y0196092D01*
X0189488Y0196028D01*
X0189513Y0195963D01*
X0189534Y0195896D01*
X0189552Y0195828D01*
X0189565Y0195759D01*
X0189575Y0195690D01*
X0189581Y0195620D01*
X0189583Y0195550D01*
X0189581Y0195480D01*
X0189575Y0195410D01*
X0189565Y0195341D01*
X0189552Y0195272D01*
X0189534Y0195204D01*
X0189513Y0195137D01*
X0189488Y0195072D01*
X0189459Y0195008D01*
X0189427Y0194945D01*
X0189391Y0194885D01*
X0189352Y0194827D01*
X0189310Y0194771D01*
X0189265Y0194717D01*
X0189217Y0194666D01*
X0189166Y0194618D01*
X0189112Y0194573D01*
X0189056Y0194531D01*
X0188998Y0194492D01*
X0188938Y0194456D01*
X0188875Y0194424D01*
X0188811Y0194395D01*
X0188746Y0194370D01*
X0188679Y0194349D01*
X0188611Y0194331D01*
X0188542Y0194318D01*
X0188473Y0194308D01*
X0188403Y0194302D01*
X0188333Y0194300D01*
X0188263Y0194302D01*
X0188193Y0194308D01*
X0188124Y0194318D01*
X0188055Y0194331D01*
X0187987Y0194349D01*
X0187920Y0194370D01*
X0187855Y0194395D01*
X0187791Y0194424D01*
X0187728Y0194456D01*
X0187668Y0194492D01*
X0187610Y0194531D01*
X0187554Y0194573D01*
X0187500Y0194618D01*
X0187449Y0194666D01*
X0187401Y0194717D01*
X0187356Y0194771D01*
X0187314Y0194827D01*
X0187275Y0194885D01*
X0187239Y0194945D01*
X0187207Y0195008D01*
X0187178Y0195072D01*
X0187153Y0195137D01*
X0187132Y0195204D01*
X0187114Y0195272D01*
X0187101Y0195341D01*
X0187091Y0195410D01*
X0187085Y0195480D01*
X0187083Y0195550D01*
D12*
X0152833Y0193300D02*
X0152833Y0180300D01*
X0152831Y0180213D01*
X0152825Y0180126D01*
X0152816Y0180039D01*
X0152803Y0179953D01*
X0152786Y0179867D01*
X0152765Y0179782D01*
X0152740Y0179699D01*
X0152712Y0179616D01*
X0152681Y0179535D01*
X0152646Y0179455D01*
X0152607Y0179377D01*
X0152565Y0179300D01*
X0152520Y0179225D01*
X0152471Y0179153D01*
X0152420Y0179082D01*
X0152365Y0179014D01*
X0152308Y0178949D01*
X0152247Y0178886D01*
X0152184Y0178825D01*
X0152119Y0178768D01*
X0152051Y0178713D01*
X0151980Y0178662D01*
X0151908Y0178613D01*
X0151833Y0178568D01*
X0151756Y0178526D01*
X0151678Y0178487D01*
X0151598Y0178452D01*
X0151517Y0178421D01*
X0151434Y0178393D01*
X0151351Y0178368D01*
X0151266Y0178347D01*
X0151180Y0178330D01*
X0151094Y0178317D01*
X0151007Y0178308D01*
X0150920Y0178302D01*
X0150833Y0178300D01*
X0145833Y0178300D01*
X0145746Y0178302D01*
X0145659Y0178308D01*
X0145572Y0178317D01*
X0145486Y0178330D01*
X0145400Y0178347D01*
X0145315Y0178368D01*
X0145232Y0178393D01*
X0145149Y0178421D01*
X0145068Y0178452D01*
X0144988Y0178487D01*
X0144910Y0178526D01*
X0144833Y0178568D01*
X0144758Y0178613D01*
X0144686Y0178662D01*
X0144615Y0178713D01*
X0144547Y0178768D01*
X0144482Y0178825D01*
X0144419Y0178886D01*
X0144358Y0178949D01*
X0144301Y0179014D01*
X0144246Y0179082D01*
X0144195Y0179153D01*
X0144146Y0179225D01*
X0144101Y0179300D01*
X0144059Y0179377D01*
X0144020Y0179455D01*
X0143985Y0179535D01*
X0143954Y0179616D01*
X0143926Y0179699D01*
X0143901Y0179782D01*
X0143880Y0179867D01*
X0143863Y0179953D01*
X0143850Y0180039D01*
X0143841Y0180126D01*
X0143835Y0180213D01*
X0143833Y0180300D01*
X0143833Y0193300D01*
X0143835Y0193387D01*
X0143841Y0193474D01*
X0143850Y0193561D01*
X0143863Y0193647D01*
X0143880Y0193733D01*
X0143901Y0193818D01*
X0143926Y0193901D01*
X0143954Y0193984D01*
X0143985Y0194065D01*
X0144020Y0194145D01*
X0144059Y0194223D01*
X0144101Y0194300D01*
X0144146Y0194375D01*
X0144195Y0194447D01*
X0144246Y0194518D01*
X0144301Y0194586D01*
X0144358Y0194651D01*
X0144419Y0194714D01*
X0144482Y0194775D01*
X0144547Y0194832D01*
X0144615Y0194887D01*
X0144686Y0194938D01*
X0144758Y0194987D01*
X0144833Y0195032D01*
X0144910Y0195074D01*
X0144988Y0195113D01*
X0145068Y0195148D01*
X0145149Y0195179D01*
X0145232Y0195207D01*
X0145315Y0195232D01*
X0145400Y0195253D01*
X0145486Y0195270D01*
X0145572Y0195283D01*
X0145659Y0195292D01*
X0145746Y0195298D01*
X0145833Y0195300D01*
X0150833Y0195300D01*
X0150920Y0195298D01*
X0151007Y0195292D01*
X0151094Y0195283D01*
X0151180Y0195270D01*
X0151266Y0195253D01*
X0151351Y0195232D01*
X0151434Y0195207D01*
X0151517Y0195179D01*
X0151598Y0195148D01*
X0151678Y0195113D01*
X0151756Y0195074D01*
X0151833Y0195032D01*
X0151908Y0194987D01*
X0151980Y0194938D01*
X0152051Y0194887D01*
X0152119Y0194832D01*
X0152184Y0194775D01*
X0152247Y0194714D01*
X0152308Y0194651D01*
X0152365Y0194586D01*
X0152420Y0194518D01*
X0152471Y0194447D01*
X0152520Y0194375D01*
X0152565Y0194300D01*
X0152607Y0194223D01*
X0152646Y0194145D01*
X0152681Y0194065D01*
X0152712Y0193984D01*
X0152740Y0193901D01*
X0152765Y0193818D01*
X0152786Y0193733D01*
X0152803Y0193647D01*
X0152816Y0193561D01*
X0152825Y0193474D01*
X0152831Y0193387D01*
X0152833Y0193300D01*
X0124083Y0186800D02*
X0124085Y0186996D01*
X0124093Y0187193D01*
X0124105Y0187389D01*
X0124122Y0187584D01*
X0124143Y0187779D01*
X0124170Y0187974D01*
X0124201Y0188168D01*
X0124237Y0188361D01*
X0124277Y0188553D01*
X0124323Y0188744D01*
X0124373Y0188934D01*
X0124427Y0189122D01*
X0124487Y0189309D01*
X0124551Y0189495D01*
X0124619Y0189679D01*
X0124692Y0189861D01*
X0124769Y0190042D01*
X0124851Y0190220D01*
X0124937Y0190397D01*
X0125028Y0190571D01*
X0125122Y0190743D01*
X0125221Y0190913D01*
X0125324Y0191080D01*
X0125431Y0191245D01*
X0125542Y0191406D01*
X0125657Y0191566D01*
X0125776Y0191722D01*
X0125899Y0191875D01*
X0126025Y0192025D01*
X0126155Y0192172D01*
X0126289Y0192316D01*
X0126426Y0192457D01*
X0126567Y0192594D01*
X0126711Y0192728D01*
X0126858Y0192858D01*
X0127008Y0192984D01*
X0127161Y0193107D01*
X0127317Y0193226D01*
X0127477Y0193341D01*
X0127638Y0193452D01*
X0127803Y0193559D01*
X0127970Y0193662D01*
X0128140Y0193761D01*
X0128312Y0193855D01*
X0128486Y0193946D01*
X0128663Y0194032D01*
X0128841Y0194114D01*
X0129022Y0194191D01*
X0129204Y0194264D01*
X0129388Y0194332D01*
X0129574Y0194396D01*
X0129761Y0194456D01*
X0129949Y0194510D01*
X0130139Y0194560D01*
X0130330Y0194606D01*
X0130522Y0194646D01*
X0130715Y0194682D01*
X0130909Y0194713D01*
X0131104Y0194740D01*
X0131299Y0194761D01*
X0131494Y0194778D01*
X0131690Y0194790D01*
X0131887Y0194798D01*
X0132083Y0194800D01*
X0132279Y0194798D01*
X0132476Y0194790D01*
X0132672Y0194778D01*
X0132867Y0194761D01*
X0133062Y0194740D01*
X0133257Y0194713D01*
X0133451Y0194682D01*
X0133644Y0194646D01*
X0133836Y0194606D01*
X0134027Y0194560D01*
X0134217Y0194510D01*
X0134405Y0194456D01*
X0134592Y0194396D01*
X0134778Y0194332D01*
X0134962Y0194264D01*
X0135144Y0194191D01*
X0135325Y0194114D01*
X0135503Y0194032D01*
X0135680Y0193946D01*
X0135854Y0193855D01*
X0136026Y0193761D01*
X0136196Y0193662D01*
X0136363Y0193559D01*
X0136528Y0193452D01*
X0136689Y0193341D01*
X0136849Y0193226D01*
X0137005Y0193107D01*
X0137158Y0192984D01*
X0137308Y0192858D01*
X0137455Y0192728D01*
X0137599Y0192594D01*
X0137740Y0192457D01*
X0137877Y0192316D01*
X0138011Y0192172D01*
X0138141Y0192025D01*
X0138267Y0191875D01*
X0138390Y0191722D01*
X0138509Y0191566D01*
X0138624Y0191406D01*
X0138735Y0191245D01*
X0138842Y0191080D01*
X0138945Y0190913D01*
X0139044Y0190743D01*
X0139138Y0190571D01*
X0139229Y0190397D01*
X0139315Y0190220D01*
X0139397Y0190042D01*
X0139474Y0189861D01*
X0139547Y0189679D01*
X0139615Y0189495D01*
X0139679Y0189309D01*
X0139739Y0189122D01*
X0139793Y0188934D01*
X0139843Y0188744D01*
X0139889Y0188553D01*
X0139929Y0188361D01*
X0139965Y0188168D01*
X0139996Y0187974D01*
X0140023Y0187779D01*
X0140044Y0187584D01*
X0140061Y0187389D01*
X0140073Y0187193D01*
X0140081Y0186996D01*
X0140083Y0186800D01*
X0140081Y0186604D01*
X0140073Y0186407D01*
X0140061Y0186211D01*
X0140044Y0186016D01*
X0140023Y0185821D01*
X0139996Y0185626D01*
X0139965Y0185432D01*
X0139929Y0185239D01*
X0139889Y0185047D01*
X0139843Y0184856D01*
X0139793Y0184666D01*
X0139739Y0184478D01*
X0139679Y0184291D01*
X0139615Y0184105D01*
X0139547Y0183921D01*
X0139474Y0183739D01*
X0139397Y0183558D01*
X0139315Y0183380D01*
X0139229Y0183203D01*
X0139138Y0183029D01*
X0139044Y0182857D01*
X0138945Y0182687D01*
X0138842Y0182520D01*
X0138735Y0182355D01*
X0138624Y0182194D01*
X0138509Y0182034D01*
X0138390Y0181878D01*
X0138267Y0181725D01*
X0138141Y0181575D01*
X0138011Y0181428D01*
X0137877Y0181284D01*
X0137740Y0181143D01*
X0137599Y0181006D01*
X0137455Y0180872D01*
X0137308Y0180742D01*
X0137158Y0180616D01*
X0137005Y0180493D01*
X0136849Y0180374D01*
X0136689Y0180259D01*
X0136528Y0180148D01*
X0136363Y0180041D01*
X0136196Y0179938D01*
X0136026Y0179839D01*
X0135854Y0179745D01*
X0135680Y0179654D01*
X0135503Y0179568D01*
X0135325Y0179486D01*
X0135144Y0179409D01*
X0134962Y0179336D01*
X0134778Y0179268D01*
X0134592Y0179204D01*
X0134405Y0179144D01*
X0134217Y0179090D01*
X0134027Y0179040D01*
X0133836Y0178994D01*
X0133644Y0178954D01*
X0133451Y0178918D01*
X0133257Y0178887D01*
X0133062Y0178860D01*
X0132867Y0178839D01*
X0132672Y0178822D01*
X0132476Y0178810D01*
X0132279Y0178802D01*
X0132083Y0178800D01*
X0131887Y0178802D01*
X0131690Y0178810D01*
X0131494Y0178822D01*
X0131299Y0178839D01*
X0131104Y0178860D01*
X0130909Y0178887D01*
X0130715Y0178918D01*
X0130522Y0178954D01*
X0130330Y0178994D01*
X0130139Y0179040D01*
X0129949Y0179090D01*
X0129761Y0179144D01*
X0129574Y0179204D01*
X0129388Y0179268D01*
X0129204Y0179336D01*
X0129022Y0179409D01*
X0128841Y0179486D01*
X0128663Y0179568D01*
X0128486Y0179654D01*
X0128312Y0179745D01*
X0128140Y0179839D01*
X0127970Y0179938D01*
X0127803Y0180041D01*
X0127638Y0180148D01*
X0127477Y0180259D01*
X0127317Y0180374D01*
X0127161Y0180493D01*
X0127008Y0180616D01*
X0126858Y0180742D01*
X0126711Y0180872D01*
X0126567Y0181006D01*
X0126426Y0181143D01*
X0126289Y0181284D01*
X0126155Y0181428D01*
X0126025Y0181575D01*
X0125899Y0181725D01*
X0125776Y0181878D01*
X0125657Y0182034D01*
X0125542Y0182194D01*
X0125431Y0182355D01*
X0125324Y0182520D01*
X0125221Y0182687D01*
X0125122Y0182857D01*
X0125028Y0183029D01*
X0124937Y0183203D01*
X0124851Y0183380D01*
X0124769Y0183558D01*
X0124692Y0183739D01*
X0124619Y0183921D01*
X0124551Y0184105D01*
X0124487Y0184291D01*
X0124427Y0184478D01*
X0124373Y0184666D01*
X0124323Y0184856D01*
X0124277Y0185047D01*
X0124237Y0185239D01*
X0124201Y0185432D01*
X0124170Y0185626D01*
X0124143Y0185821D01*
X0124122Y0186016D01*
X0124105Y0186211D01*
X0124093Y0186407D01*
X0124085Y0186604D01*
X0124083Y0186800D01*
X0129083Y0191300D02*
X0129083Y0193300D01*
X0128083Y0192300D02*
X0130083Y0192300D01*
X0126833Y0170050D02*
X0139833Y0170050D01*
X0139920Y0170048D01*
X0140007Y0170042D01*
X0140094Y0170033D01*
X0140180Y0170020D01*
X0140266Y0170003D01*
X0140351Y0169982D01*
X0140434Y0169957D01*
X0140517Y0169929D01*
X0140598Y0169898D01*
X0140678Y0169863D01*
X0140756Y0169824D01*
X0140833Y0169782D01*
X0140908Y0169737D01*
X0140980Y0169688D01*
X0141051Y0169637D01*
X0141119Y0169582D01*
X0141184Y0169525D01*
X0141247Y0169464D01*
X0141308Y0169401D01*
X0141365Y0169336D01*
X0141420Y0169268D01*
X0141471Y0169197D01*
X0141520Y0169125D01*
X0141565Y0169050D01*
X0141607Y0168973D01*
X0141646Y0168895D01*
X0141681Y0168815D01*
X0141712Y0168734D01*
X0141740Y0168651D01*
X0141765Y0168568D01*
X0141786Y0168483D01*
X0141803Y0168397D01*
X0141816Y0168311D01*
X0141825Y0168224D01*
X0141831Y0168137D01*
X0141833Y0168050D01*
X0141833Y0163050D01*
X0141831Y0162963D01*
X0141825Y0162876D01*
X0141816Y0162789D01*
X0141803Y0162703D01*
X0141786Y0162617D01*
X0141765Y0162532D01*
X0141740Y0162449D01*
X0141712Y0162366D01*
X0141681Y0162285D01*
X0141646Y0162205D01*
X0141607Y0162127D01*
X0141565Y0162050D01*
X0141520Y0161975D01*
X0141471Y0161903D01*
X0141420Y0161832D01*
X0141365Y0161764D01*
X0141308Y0161699D01*
X0141247Y0161636D01*
X0141184Y0161575D01*
X0141119Y0161518D01*
X0141051Y0161463D01*
X0140980Y0161412D01*
X0140908Y0161363D01*
X0140833Y0161318D01*
X0140756Y0161276D01*
X0140678Y0161237D01*
X0140598Y0161202D01*
X0140517Y0161171D01*
X0140434Y0161143D01*
X0140351Y0161118D01*
X0140266Y0161097D01*
X0140180Y0161080D01*
X0140094Y0161067D01*
X0140007Y0161058D01*
X0139920Y0161052D01*
X0139833Y0161050D01*
X0126833Y0161050D01*
X0126746Y0161052D01*
X0126659Y0161058D01*
X0126572Y0161067D01*
X0126486Y0161080D01*
X0126400Y0161097D01*
X0126315Y0161118D01*
X0126232Y0161143D01*
X0126149Y0161171D01*
X0126068Y0161202D01*
X0125988Y0161237D01*
X0125910Y0161276D01*
X0125833Y0161318D01*
X0125758Y0161363D01*
X0125686Y0161412D01*
X0125615Y0161463D01*
X0125547Y0161518D01*
X0125482Y0161575D01*
X0125419Y0161636D01*
X0125358Y0161699D01*
X0125301Y0161764D01*
X0125246Y0161832D01*
X0125195Y0161903D01*
X0125146Y0161975D01*
X0125101Y0162050D01*
X0125059Y0162127D01*
X0125020Y0162205D01*
X0124985Y0162285D01*
X0124954Y0162366D01*
X0124926Y0162449D01*
X0124901Y0162532D01*
X0124880Y0162617D01*
X0124863Y0162703D01*
X0124850Y0162789D01*
X0124841Y0162876D01*
X0124835Y0162963D01*
X0124833Y0163050D01*
X0124833Y0168050D01*
X0124835Y0168137D01*
X0124841Y0168224D01*
X0124850Y0168311D01*
X0124863Y0168397D01*
X0124880Y0168483D01*
X0124901Y0168568D01*
X0124926Y0168651D01*
X0124954Y0168734D01*
X0124985Y0168815D01*
X0125020Y0168895D01*
X0125059Y0168973D01*
X0125101Y0169050D01*
X0125146Y0169125D01*
X0125195Y0169197D01*
X0125246Y0169268D01*
X0125301Y0169336D01*
X0125358Y0169401D01*
X0125419Y0169464D01*
X0125482Y0169525D01*
X0125547Y0169582D01*
X0125615Y0169637D01*
X0125686Y0169688D01*
X0125758Y0169737D01*
X0125833Y0169782D01*
X0125910Y0169824D01*
X0125988Y0169863D01*
X0126068Y0169898D01*
X0126149Y0169929D01*
X0126232Y0169957D01*
X0126315Y0169982D01*
X0126400Y0170003D01*
X0126486Y0170020D01*
X0126572Y0170033D01*
X0126659Y0170042D01*
X0126746Y0170048D01*
X0126833Y0170050D01*
X0112008Y0170225D02*
X0104508Y0170225D01*
X0104506Y0170099D01*
X0104500Y0169974D01*
X0104490Y0169849D01*
X0104476Y0169724D01*
X0104459Y0169599D01*
X0104437Y0169475D01*
X0104412Y0169352D01*
X0104382Y0169230D01*
X0104349Y0169109D01*
X0104312Y0168989D01*
X0104272Y0168870D01*
X0104227Y0168753D01*
X0104179Y0168636D01*
X0104127Y0168522D01*
X0104072Y0168409D01*
X0104013Y0168298D01*
X0103951Y0168189D01*
X0103885Y0168082D01*
X0103816Y0167977D01*
X0103744Y0167874D01*
X0103669Y0167773D01*
X0103590Y0167675D01*
X0103508Y0167580D01*
X0103424Y0167487D01*
X0103336Y0167397D01*
X0103246Y0167309D01*
X0103153Y0167225D01*
X0103058Y0167143D01*
X0102960Y0167064D01*
X0102859Y0166989D01*
X0102756Y0166917D01*
X0102651Y0166848D01*
X0102544Y0166782D01*
X0102435Y0166720D01*
X0102324Y0166661D01*
X0102211Y0166606D01*
X0102097Y0166554D01*
X0101980Y0166506D01*
X0101863Y0166461D01*
X0101744Y0166421D01*
X0101624Y0166384D01*
X0101503Y0166351D01*
X0101381Y0166321D01*
X0101258Y0166296D01*
X0101134Y0166274D01*
X0101009Y0166257D01*
X0100884Y0166243D01*
X0100759Y0166233D01*
X0100634Y0166227D01*
X0100508Y0166225D01*
X0100382Y0166227D01*
X0100257Y0166233D01*
X0100132Y0166243D01*
X0100007Y0166257D01*
X0099882Y0166274D01*
X0099758Y0166296D01*
X0099635Y0166321D01*
X0099513Y0166351D01*
X0099392Y0166384D01*
X0099272Y0166421D01*
X0099153Y0166461D01*
X0099036Y0166506D01*
X0098919Y0166554D01*
X0098805Y0166606D01*
X0098692Y0166661D01*
X0098581Y0166720D01*
X0098472Y0166782D01*
X0098365Y0166848D01*
X0098260Y0166917D01*
X0098157Y0166989D01*
X0098056Y0167064D01*
X0097958Y0167143D01*
X0097863Y0167225D01*
X0097770Y0167309D01*
X0097680Y0167397D01*
X0097592Y0167487D01*
X0097508Y0167580D01*
X0097426Y0167675D01*
X0097347Y0167773D01*
X0097272Y0167874D01*
X0097200Y0167977D01*
X0097131Y0168082D01*
X0097065Y0168189D01*
X0097003Y0168298D01*
X0096944Y0168409D01*
X0096889Y0168522D01*
X0096837Y0168636D01*
X0096789Y0168753D01*
X0096744Y0168870D01*
X0096704Y0168989D01*
X0096667Y0169109D01*
X0096634Y0169230D01*
X0096604Y0169352D01*
X0096579Y0169475D01*
X0096557Y0169599D01*
X0096540Y0169724D01*
X0096526Y0169849D01*
X0096516Y0169974D01*
X0096510Y0170099D01*
X0096508Y0170225D01*
X0089008Y0170225D01*
X0089008Y0030225D01*
X0112008Y0030225D01*
X0112008Y0170225D01*
X0083083Y0174300D02*
X0083083Y0179300D01*
X0083081Y0179387D01*
X0083075Y0179474D01*
X0083066Y0179561D01*
X0083053Y0179647D01*
X0083036Y0179733D01*
X0083015Y0179818D01*
X0082990Y0179901D01*
X0082962Y0179984D01*
X0082931Y0180065D01*
X0082896Y0180145D01*
X0082857Y0180223D01*
X0082815Y0180300D01*
X0082770Y0180375D01*
X0082721Y0180447D01*
X0082670Y0180518D01*
X0082615Y0180586D01*
X0082558Y0180651D01*
X0082497Y0180714D01*
X0082434Y0180775D01*
X0082369Y0180832D01*
X0082301Y0180887D01*
X0082230Y0180938D01*
X0082158Y0180987D01*
X0082083Y0181032D01*
X0082006Y0181074D01*
X0081928Y0181113D01*
X0081848Y0181148D01*
X0081767Y0181179D01*
X0081684Y0181207D01*
X0081601Y0181232D01*
X0081516Y0181253D01*
X0081430Y0181270D01*
X0081344Y0181283D01*
X0081257Y0181292D01*
X0081170Y0181298D01*
X0081083Y0181300D01*
X0068083Y0181300D01*
X0067996Y0181298D01*
X0067909Y0181292D01*
X0067822Y0181283D01*
X0067736Y0181270D01*
X0067650Y0181253D01*
X0067565Y0181232D01*
X0067482Y0181207D01*
X0067399Y0181179D01*
X0067318Y0181148D01*
X0067238Y0181113D01*
X0067160Y0181074D01*
X0067083Y0181032D01*
X0067008Y0180987D01*
X0066936Y0180938D01*
X0066865Y0180887D01*
X0066797Y0180832D01*
X0066732Y0180775D01*
X0066669Y0180714D01*
X0066608Y0180651D01*
X0066551Y0180586D01*
X0066496Y0180518D01*
X0066445Y0180447D01*
X0066396Y0180375D01*
X0066351Y0180300D01*
X0066309Y0180223D01*
X0066270Y0180145D01*
X0066235Y0180065D01*
X0066204Y0179984D01*
X0066176Y0179901D01*
X0066151Y0179818D01*
X0066130Y0179733D01*
X0066113Y0179647D01*
X0066100Y0179561D01*
X0066091Y0179474D01*
X0066085Y0179387D01*
X0066083Y0179300D01*
X0066083Y0174300D01*
X0066085Y0174213D01*
X0066091Y0174126D01*
X0066100Y0174039D01*
X0066113Y0173953D01*
X0066130Y0173867D01*
X0066151Y0173782D01*
X0066176Y0173699D01*
X0066204Y0173616D01*
X0066235Y0173535D01*
X0066270Y0173455D01*
X0066309Y0173377D01*
X0066351Y0173300D01*
X0066396Y0173225D01*
X0066445Y0173153D01*
X0066496Y0173082D01*
X0066551Y0173014D01*
X0066608Y0172949D01*
X0066669Y0172886D01*
X0066732Y0172825D01*
X0066797Y0172768D01*
X0066865Y0172713D01*
X0066936Y0172662D01*
X0067008Y0172613D01*
X0067083Y0172568D01*
X0067160Y0172526D01*
X0067238Y0172487D01*
X0067318Y0172452D01*
X0067399Y0172421D01*
X0067482Y0172393D01*
X0067565Y0172368D01*
X0067650Y0172347D01*
X0067736Y0172330D01*
X0067822Y0172317D01*
X0067909Y0172308D01*
X0067996Y0172302D01*
X0068083Y0172300D01*
X0081083Y0172300D01*
X0081170Y0172302D01*
X0081257Y0172308D01*
X0081344Y0172317D01*
X0081430Y0172330D01*
X0081516Y0172347D01*
X0081601Y0172368D01*
X0081684Y0172393D01*
X0081767Y0172421D01*
X0081848Y0172452D01*
X0081928Y0172487D01*
X0082006Y0172526D01*
X0082083Y0172568D01*
X0082158Y0172613D01*
X0082230Y0172662D01*
X0082301Y0172713D01*
X0082369Y0172768D01*
X0082434Y0172825D01*
X0082497Y0172886D01*
X0082558Y0172949D01*
X0082615Y0173014D01*
X0082670Y0173082D01*
X0082721Y0173153D01*
X0082770Y0173225D01*
X0082815Y0173300D01*
X0082857Y0173377D01*
X0082896Y0173455D01*
X0082931Y0173535D01*
X0082962Y0173616D01*
X0082990Y0173699D01*
X0083015Y0173782D01*
X0083036Y0173867D01*
X0083053Y0173953D01*
X0083066Y0174039D01*
X0083075Y0174126D01*
X0083081Y0174213D01*
X0083083Y0174300D01*
X0126833Y0120050D02*
X0139833Y0120050D01*
X0139920Y0120048D01*
X0140007Y0120042D01*
X0140094Y0120033D01*
X0140180Y0120020D01*
X0140266Y0120003D01*
X0140351Y0119982D01*
X0140434Y0119957D01*
X0140517Y0119929D01*
X0140598Y0119898D01*
X0140678Y0119863D01*
X0140756Y0119824D01*
X0140833Y0119782D01*
X0140908Y0119737D01*
X0140980Y0119688D01*
X0141051Y0119637D01*
X0141119Y0119582D01*
X0141184Y0119525D01*
X0141247Y0119464D01*
X0141308Y0119401D01*
X0141365Y0119336D01*
X0141420Y0119268D01*
X0141471Y0119197D01*
X0141520Y0119125D01*
X0141565Y0119050D01*
X0141607Y0118973D01*
X0141646Y0118895D01*
X0141681Y0118815D01*
X0141712Y0118734D01*
X0141740Y0118651D01*
X0141765Y0118568D01*
X0141786Y0118483D01*
X0141803Y0118397D01*
X0141816Y0118311D01*
X0141825Y0118224D01*
X0141831Y0118137D01*
X0141833Y0118050D01*
X0141833Y0113050D01*
X0141831Y0112963D01*
X0141825Y0112876D01*
X0141816Y0112789D01*
X0141803Y0112703D01*
X0141786Y0112617D01*
X0141765Y0112532D01*
X0141740Y0112449D01*
X0141712Y0112366D01*
X0141681Y0112285D01*
X0141646Y0112205D01*
X0141607Y0112127D01*
X0141565Y0112050D01*
X0141520Y0111975D01*
X0141471Y0111903D01*
X0141420Y0111832D01*
X0141365Y0111764D01*
X0141308Y0111699D01*
X0141247Y0111636D01*
X0141184Y0111575D01*
X0141119Y0111518D01*
X0141051Y0111463D01*
X0140980Y0111412D01*
X0140908Y0111363D01*
X0140833Y0111318D01*
X0140756Y0111276D01*
X0140678Y0111237D01*
X0140598Y0111202D01*
X0140517Y0111171D01*
X0140434Y0111143D01*
X0140351Y0111118D01*
X0140266Y0111097D01*
X0140180Y0111080D01*
X0140094Y0111067D01*
X0140007Y0111058D01*
X0139920Y0111052D01*
X0139833Y0111050D01*
X0126833Y0111050D01*
X0126746Y0111052D01*
X0126659Y0111058D01*
X0126572Y0111067D01*
X0126486Y0111080D01*
X0126400Y0111097D01*
X0126315Y0111118D01*
X0126232Y0111143D01*
X0126149Y0111171D01*
X0126068Y0111202D01*
X0125988Y0111237D01*
X0125910Y0111276D01*
X0125833Y0111318D01*
X0125758Y0111363D01*
X0125686Y0111412D01*
X0125615Y0111463D01*
X0125547Y0111518D01*
X0125482Y0111575D01*
X0125419Y0111636D01*
X0125358Y0111699D01*
X0125301Y0111764D01*
X0125246Y0111832D01*
X0125195Y0111903D01*
X0125146Y0111975D01*
X0125101Y0112050D01*
X0125059Y0112127D01*
X0125020Y0112205D01*
X0124985Y0112285D01*
X0124954Y0112366D01*
X0124926Y0112449D01*
X0124901Y0112532D01*
X0124880Y0112617D01*
X0124863Y0112703D01*
X0124850Y0112789D01*
X0124841Y0112876D01*
X0124835Y0112963D01*
X0124833Y0113050D01*
X0124833Y0118050D01*
X0124835Y0118137D01*
X0124841Y0118224D01*
X0124850Y0118311D01*
X0124863Y0118397D01*
X0124880Y0118483D01*
X0124901Y0118568D01*
X0124926Y0118651D01*
X0124954Y0118734D01*
X0124985Y0118815D01*
X0125020Y0118895D01*
X0125059Y0118973D01*
X0125101Y0119050D01*
X0125146Y0119125D01*
X0125195Y0119197D01*
X0125246Y0119268D01*
X0125301Y0119336D01*
X0125358Y0119401D01*
X0125419Y0119464D01*
X0125482Y0119525D01*
X0125547Y0119582D01*
X0125615Y0119637D01*
X0125686Y0119688D01*
X0125758Y0119737D01*
X0125833Y0119782D01*
X0125910Y0119824D01*
X0125988Y0119863D01*
X0126068Y0119898D01*
X0126149Y0119929D01*
X0126232Y0119957D01*
X0126315Y0119982D01*
X0126400Y0120003D01*
X0126486Y0120020D01*
X0126572Y0120033D01*
X0126659Y0120042D01*
X0126746Y0120048D01*
X0126833Y0120050D01*
X0127833Y0092050D02*
X0127833Y0090050D01*
X0126833Y0091050D02*
X0128833Y0091050D01*
X0122833Y0085550D02*
X0122835Y0085746D01*
X0122843Y0085943D01*
X0122855Y0086139D01*
X0122872Y0086334D01*
X0122893Y0086529D01*
X0122920Y0086724D01*
X0122951Y0086918D01*
X0122987Y0087111D01*
X0123027Y0087303D01*
X0123073Y0087494D01*
X0123123Y0087684D01*
X0123177Y0087872D01*
X0123237Y0088059D01*
X0123301Y0088245D01*
X0123369Y0088429D01*
X0123442Y0088611D01*
X0123519Y0088792D01*
X0123601Y0088970D01*
X0123687Y0089147D01*
X0123778Y0089321D01*
X0123872Y0089493D01*
X0123971Y0089663D01*
X0124074Y0089830D01*
X0124181Y0089995D01*
X0124292Y0090156D01*
X0124407Y0090316D01*
X0124526Y0090472D01*
X0124649Y0090625D01*
X0124775Y0090775D01*
X0124905Y0090922D01*
X0125039Y0091066D01*
X0125176Y0091207D01*
X0125317Y0091344D01*
X0125461Y0091478D01*
X0125608Y0091608D01*
X0125758Y0091734D01*
X0125911Y0091857D01*
X0126067Y0091976D01*
X0126227Y0092091D01*
X0126388Y0092202D01*
X0126553Y0092309D01*
X0126720Y0092412D01*
X0126890Y0092511D01*
X0127062Y0092605D01*
X0127236Y0092696D01*
X0127413Y0092782D01*
X0127591Y0092864D01*
X0127772Y0092941D01*
X0127954Y0093014D01*
X0128138Y0093082D01*
X0128324Y0093146D01*
X0128511Y0093206D01*
X0128699Y0093260D01*
X0128889Y0093310D01*
X0129080Y0093356D01*
X0129272Y0093396D01*
X0129465Y0093432D01*
X0129659Y0093463D01*
X0129854Y0093490D01*
X0130049Y0093511D01*
X0130244Y0093528D01*
X0130440Y0093540D01*
X0130637Y0093548D01*
X0130833Y0093550D01*
X0131029Y0093548D01*
X0131226Y0093540D01*
X0131422Y0093528D01*
X0131617Y0093511D01*
X0131812Y0093490D01*
X0132007Y0093463D01*
X0132201Y0093432D01*
X0132394Y0093396D01*
X0132586Y0093356D01*
X0132777Y0093310D01*
X0132967Y0093260D01*
X0133155Y0093206D01*
X0133342Y0093146D01*
X0133528Y0093082D01*
X0133712Y0093014D01*
X0133894Y0092941D01*
X0134075Y0092864D01*
X0134253Y0092782D01*
X0134430Y0092696D01*
X0134604Y0092605D01*
X0134776Y0092511D01*
X0134946Y0092412D01*
X0135113Y0092309D01*
X0135278Y0092202D01*
X0135439Y0092091D01*
X0135599Y0091976D01*
X0135755Y0091857D01*
X0135908Y0091734D01*
X0136058Y0091608D01*
X0136205Y0091478D01*
X0136349Y0091344D01*
X0136490Y0091207D01*
X0136627Y0091066D01*
X0136761Y0090922D01*
X0136891Y0090775D01*
X0137017Y0090625D01*
X0137140Y0090472D01*
X0137259Y0090316D01*
X0137374Y0090156D01*
X0137485Y0089995D01*
X0137592Y0089830D01*
X0137695Y0089663D01*
X0137794Y0089493D01*
X0137888Y0089321D01*
X0137979Y0089147D01*
X0138065Y0088970D01*
X0138147Y0088792D01*
X0138224Y0088611D01*
X0138297Y0088429D01*
X0138365Y0088245D01*
X0138429Y0088059D01*
X0138489Y0087872D01*
X0138543Y0087684D01*
X0138593Y0087494D01*
X0138639Y0087303D01*
X0138679Y0087111D01*
X0138715Y0086918D01*
X0138746Y0086724D01*
X0138773Y0086529D01*
X0138794Y0086334D01*
X0138811Y0086139D01*
X0138823Y0085943D01*
X0138831Y0085746D01*
X0138833Y0085550D01*
X0138831Y0085354D01*
X0138823Y0085157D01*
X0138811Y0084961D01*
X0138794Y0084766D01*
X0138773Y0084571D01*
X0138746Y0084376D01*
X0138715Y0084182D01*
X0138679Y0083989D01*
X0138639Y0083797D01*
X0138593Y0083606D01*
X0138543Y0083416D01*
X0138489Y0083228D01*
X0138429Y0083041D01*
X0138365Y0082855D01*
X0138297Y0082671D01*
X0138224Y0082489D01*
X0138147Y0082308D01*
X0138065Y0082130D01*
X0137979Y0081953D01*
X0137888Y0081779D01*
X0137794Y0081607D01*
X0137695Y0081437D01*
X0137592Y0081270D01*
X0137485Y0081105D01*
X0137374Y0080944D01*
X0137259Y0080784D01*
X0137140Y0080628D01*
X0137017Y0080475D01*
X0136891Y0080325D01*
X0136761Y0080178D01*
X0136627Y0080034D01*
X0136490Y0079893D01*
X0136349Y0079756D01*
X0136205Y0079622D01*
X0136058Y0079492D01*
X0135908Y0079366D01*
X0135755Y0079243D01*
X0135599Y0079124D01*
X0135439Y0079009D01*
X0135278Y0078898D01*
X0135113Y0078791D01*
X0134946Y0078688D01*
X0134776Y0078589D01*
X0134604Y0078495D01*
X0134430Y0078404D01*
X0134253Y0078318D01*
X0134075Y0078236D01*
X0133894Y0078159D01*
X0133712Y0078086D01*
X0133528Y0078018D01*
X0133342Y0077954D01*
X0133155Y0077894D01*
X0132967Y0077840D01*
X0132777Y0077790D01*
X0132586Y0077744D01*
X0132394Y0077704D01*
X0132201Y0077668D01*
X0132007Y0077637D01*
X0131812Y0077610D01*
X0131617Y0077589D01*
X0131422Y0077572D01*
X0131226Y0077560D01*
X0131029Y0077552D01*
X0130833Y0077550D01*
X0130637Y0077552D01*
X0130440Y0077560D01*
X0130244Y0077572D01*
X0130049Y0077589D01*
X0129854Y0077610D01*
X0129659Y0077637D01*
X0129465Y0077668D01*
X0129272Y0077704D01*
X0129080Y0077744D01*
X0128889Y0077790D01*
X0128699Y0077840D01*
X0128511Y0077894D01*
X0128324Y0077954D01*
X0128138Y0078018D01*
X0127954Y0078086D01*
X0127772Y0078159D01*
X0127591Y0078236D01*
X0127413Y0078318D01*
X0127236Y0078404D01*
X0127062Y0078495D01*
X0126890Y0078589D01*
X0126720Y0078688D01*
X0126553Y0078791D01*
X0126388Y0078898D01*
X0126227Y0079009D01*
X0126067Y0079124D01*
X0125911Y0079243D01*
X0125758Y0079366D01*
X0125608Y0079492D01*
X0125461Y0079622D01*
X0125317Y0079756D01*
X0125176Y0079893D01*
X0125039Y0080034D01*
X0124905Y0080178D01*
X0124775Y0080325D01*
X0124649Y0080475D01*
X0124526Y0080628D01*
X0124407Y0080784D01*
X0124292Y0080944D01*
X0124181Y0081105D01*
X0124074Y0081270D01*
X0123971Y0081437D01*
X0123872Y0081607D01*
X0123778Y0081779D01*
X0123687Y0081953D01*
X0123601Y0082130D01*
X0123519Y0082308D01*
X0123442Y0082489D01*
X0123369Y0082671D01*
X0123301Y0082855D01*
X0123237Y0083041D01*
X0123177Y0083228D01*
X0123123Y0083416D01*
X0123073Y0083606D01*
X0123027Y0083797D01*
X0122987Y0083989D01*
X0122951Y0084182D01*
X0122920Y0084376D01*
X0122893Y0084571D01*
X0122872Y0084766D01*
X0122855Y0084961D01*
X0122843Y0085157D01*
X0122835Y0085354D01*
X0122833Y0085550D01*
X0161083Y0123050D02*
X0168083Y0123050D01*
X0168143Y0123052D01*
X0168204Y0123057D01*
X0168263Y0123066D01*
X0168322Y0123079D01*
X0168381Y0123095D01*
X0168438Y0123115D01*
X0168493Y0123138D01*
X0168548Y0123165D01*
X0168600Y0123194D01*
X0168651Y0123227D01*
X0168700Y0123263D01*
X0168746Y0123301D01*
X0168790Y0123343D01*
X0168832Y0123387D01*
X0168870Y0123433D01*
X0168906Y0123482D01*
X0168939Y0123533D01*
X0168968Y0123585D01*
X0168995Y0123640D01*
X0169018Y0123695D01*
X0169038Y0123752D01*
X0169054Y0123811D01*
X0169067Y0123870D01*
X0169076Y0123929D01*
X0169081Y0123990D01*
X0169083Y0124050D01*
X0169083Y0125550D01*
X0168583Y0126050D01*
X0168583Y0145050D01*
X0169083Y0145550D01*
X0169083Y0147050D01*
X0169081Y0147110D01*
X0169076Y0147171D01*
X0169067Y0147230D01*
X0169054Y0147289D01*
X0169038Y0147348D01*
X0169018Y0147405D01*
X0168995Y0147460D01*
X0168968Y0147515D01*
X0168939Y0147567D01*
X0168906Y0147618D01*
X0168870Y0147667D01*
X0168832Y0147713D01*
X0168790Y0147757D01*
X0168746Y0147799D01*
X0168700Y0147837D01*
X0168651Y0147873D01*
X0168600Y0147906D01*
X0168548Y0147935D01*
X0168493Y0147962D01*
X0168438Y0147985D01*
X0168381Y0148005D01*
X0168322Y0148021D01*
X0168263Y0148034D01*
X0168204Y0148043D01*
X0168143Y0148048D01*
X0168083Y0148050D01*
X0161083Y0148050D01*
X0161023Y0148048D01*
X0160962Y0148043D01*
X0160903Y0148034D01*
X0160844Y0148021D01*
X0160785Y0148005D01*
X0160728Y0147985D01*
X0160673Y0147962D01*
X0160618Y0147935D01*
X0160566Y0147906D01*
X0160515Y0147873D01*
X0160466Y0147837D01*
X0160420Y0147799D01*
X0160376Y0147757D01*
X0160334Y0147713D01*
X0160296Y0147667D01*
X0160260Y0147618D01*
X0160227Y0147567D01*
X0160198Y0147515D01*
X0160171Y0147460D01*
X0160148Y0147405D01*
X0160128Y0147348D01*
X0160112Y0147289D01*
X0160099Y0147230D01*
X0160090Y0147171D01*
X0160085Y0147110D01*
X0160083Y0147050D01*
X0160083Y0145550D01*
X0160583Y0145050D01*
X0160583Y0126050D01*
X0160083Y0125550D01*
X0160083Y0124050D01*
X0160085Y0123990D01*
X0160090Y0123929D01*
X0160099Y0123870D01*
X0160112Y0123811D01*
X0160128Y0123752D01*
X0160148Y0123695D01*
X0160171Y0123640D01*
X0160198Y0123585D01*
X0160227Y0123533D01*
X0160260Y0123482D01*
X0160296Y0123433D01*
X0160334Y0123387D01*
X0160376Y0123343D01*
X0160420Y0123301D01*
X0160466Y0123263D01*
X0160515Y0123227D01*
X0160566Y0123194D01*
X0160618Y0123165D01*
X0160673Y0123138D01*
X0160728Y0123115D01*
X0160785Y0123095D01*
X0160844Y0123079D01*
X0160903Y0123066D01*
X0160962Y0123057D01*
X0161023Y0123052D01*
X0161083Y0123050D01*
X0172383Y0123350D02*
X0175586Y0123350D01*
X0176654Y0124418D01*
X0176654Y0125485D01*
X0175586Y0126553D01*
X0172383Y0126553D01*
X0172383Y0129755D02*
X0175586Y0129755D01*
X0176654Y0128688D01*
X0176654Y0127620D01*
X0175586Y0126553D01*
X0178829Y0127620D02*
X0180964Y0129755D01*
X0180964Y0123350D01*
X0178829Y0123350D02*
X0183099Y0123350D01*
X0185274Y0126553D02*
X0189545Y0126553D01*
X0188477Y0129755D02*
X0185274Y0126553D01*
X0188477Y0123350D02*
X0188477Y0129755D01*
X0188477Y0133350D02*
X0186342Y0133350D01*
X0185274Y0134418D01*
X0185274Y0136553D02*
X0187409Y0137620D01*
X0188477Y0137620D01*
X0189545Y0136553D01*
X0189545Y0134418D01*
X0188477Y0133350D01*
X0185274Y0136553D02*
X0185274Y0139755D01*
X0189545Y0139755D01*
X0180964Y0139755D02*
X0180964Y0133350D01*
X0178829Y0133350D02*
X0183099Y0133350D01*
X0178829Y0137620D02*
X0180964Y0139755D01*
X0176654Y0138688D02*
X0176654Y0137620D01*
X0175586Y0136553D01*
X0172383Y0136553D01*
X0172383Y0139755D02*
X0172383Y0133350D01*
X0175586Y0133350D01*
X0176654Y0134418D01*
X0176654Y0135485D01*
X0175586Y0136553D01*
X0176654Y0138688D02*
X0175586Y0139755D01*
X0172383Y0139755D01*
X0172383Y0129755D02*
X0172383Y0123350D01*
X0172383Y0119755D02*
X0175586Y0119755D01*
X0176654Y0118688D01*
X0176654Y0117620D01*
X0175586Y0116553D01*
X0172383Y0116553D01*
X0172383Y0119755D02*
X0172383Y0113350D01*
X0175586Y0113350D01*
X0176654Y0114418D01*
X0176654Y0115485D01*
X0175586Y0116553D01*
X0178829Y0117620D02*
X0180964Y0119755D01*
X0180964Y0113350D01*
X0178829Y0113350D02*
X0183099Y0113350D01*
X0185274Y0114418D02*
X0186342Y0113350D01*
X0188477Y0113350D01*
X0189545Y0114418D01*
X0189545Y0115485D01*
X0188477Y0116553D01*
X0187409Y0116553D01*
X0188477Y0116553D02*
X0189545Y0117620D01*
X0189545Y0118688D01*
X0188477Y0119755D01*
X0186342Y0119755D01*
X0185274Y0118688D01*
X0184896Y0109755D02*
X0183829Y0108688D01*
X0183829Y0107620D01*
X0184896Y0106553D01*
X0188099Y0106553D01*
X0188099Y0104418D02*
X0188099Y0108688D01*
X0187032Y0109755D01*
X0184896Y0109755D01*
X0181654Y0108688D02*
X0181654Y0107620D01*
X0180586Y0106553D01*
X0177383Y0106553D01*
X0177383Y0109755D02*
X0180586Y0109755D01*
X0181654Y0108688D01*
X0180586Y0106553D02*
X0181654Y0105485D01*
X0181654Y0104418D01*
X0180586Y0103350D01*
X0177383Y0103350D01*
X0177383Y0109755D01*
X0183829Y0104418D02*
X0184896Y0103350D01*
X0187032Y0103350D01*
X0188099Y0104418D01*
X0187032Y0099755D02*
X0184896Y0099755D01*
X0183829Y0098688D01*
X0183829Y0097620D01*
X0184896Y0096553D01*
X0187032Y0096553D01*
X0188099Y0095485D01*
X0188099Y0094418D01*
X0187032Y0093350D01*
X0184896Y0093350D01*
X0183829Y0094418D01*
X0183829Y0095485D01*
X0184896Y0096553D01*
X0181654Y0097620D02*
X0181654Y0098688D01*
X0180586Y0099755D01*
X0177383Y0099755D01*
X0177383Y0093350D01*
X0180586Y0093350D01*
X0181654Y0094418D01*
X0181654Y0095485D01*
X0180586Y0096553D01*
X0177383Y0096553D01*
X0180586Y0096553D02*
X0181654Y0097620D01*
X0187032Y0096553D02*
X0188099Y0097620D01*
X0188099Y0098688D01*
X0187032Y0099755D01*
X0188099Y0089755D02*
X0183829Y0089755D01*
X0181654Y0088688D02*
X0181654Y0087620D01*
X0180586Y0086553D01*
X0177383Y0086553D01*
X0177383Y0089755D02*
X0180586Y0089755D01*
X0181654Y0088688D01*
X0180586Y0086553D02*
X0181654Y0085485D01*
X0181654Y0084418D01*
X0180586Y0083350D01*
X0177383Y0083350D01*
X0177383Y0089755D01*
X0183829Y0084418D02*
X0183829Y0083350D01*
X0183829Y0084418D02*
X0188099Y0088688D01*
X0188099Y0089755D01*
X0188099Y0079755D02*
X0188099Y0075485D01*
X0185964Y0073350D01*
X0183829Y0075485D01*
X0183829Y0079755D01*
X0181654Y0079755D02*
X0177383Y0079755D01*
X0177383Y0076553D01*
X0179518Y0077620D01*
X0180586Y0077620D01*
X0181654Y0076553D01*
X0181654Y0074418D01*
X0180586Y0073350D01*
X0178451Y0073350D01*
X0177383Y0074418D01*
X0176992Y0070255D02*
X0181263Y0063850D01*
X0181263Y0070255D01*
X0183438Y0070255D02*
X0186641Y0070255D01*
X0187708Y0069188D01*
X0187708Y0064918D01*
X0186641Y0063850D01*
X0183438Y0063850D01*
X0183438Y0070255D01*
X0176992Y0070255D02*
X0176992Y0063850D01*
X0174817Y0064918D02*
X0174817Y0067053D01*
X0172682Y0067053D01*
X0174817Y0069188D02*
X0173750Y0070255D01*
X0171614Y0070255D01*
X0170547Y0069188D01*
X0170547Y0064918D01*
X0171614Y0063850D01*
X0173750Y0063850D01*
X0174817Y0064918D01*
X0076833Y0048050D02*
X0076833Y0043050D01*
X0076831Y0042963D01*
X0076825Y0042876D01*
X0076816Y0042789D01*
X0076803Y0042703D01*
X0076786Y0042617D01*
X0076765Y0042532D01*
X0076740Y0042449D01*
X0076712Y0042366D01*
X0076681Y0042285D01*
X0076646Y0042205D01*
X0076607Y0042127D01*
X0076565Y0042050D01*
X0076520Y0041975D01*
X0076471Y0041903D01*
X0076420Y0041832D01*
X0076365Y0041764D01*
X0076308Y0041699D01*
X0076247Y0041636D01*
X0076184Y0041575D01*
X0076119Y0041518D01*
X0076051Y0041463D01*
X0075980Y0041412D01*
X0075908Y0041363D01*
X0075833Y0041318D01*
X0075756Y0041276D01*
X0075678Y0041237D01*
X0075598Y0041202D01*
X0075517Y0041171D01*
X0075434Y0041143D01*
X0075351Y0041118D01*
X0075266Y0041097D01*
X0075180Y0041080D01*
X0075094Y0041067D01*
X0075007Y0041058D01*
X0074920Y0041052D01*
X0074833Y0041050D01*
X0061833Y0041050D01*
X0061746Y0041052D01*
X0061659Y0041058D01*
X0061572Y0041067D01*
X0061486Y0041080D01*
X0061400Y0041097D01*
X0061315Y0041118D01*
X0061232Y0041143D01*
X0061149Y0041171D01*
X0061068Y0041202D01*
X0060988Y0041237D01*
X0060910Y0041276D01*
X0060833Y0041318D01*
X0060758Y0041363D01*
X0060686Y0041412D01*
X0060615Y0041463D01*
X0060547Y0041518D01*
X0060482Y0041575D01*
X0060419Y0041636D01*
X0060358Y0041699D01*
X0060301Y0041764D01*
X0060246Y0041832D01*
X0060195Y0041903D01*
X0060146Y0041975D01*
X0060101Y0042050D01*
X0060059Y0042127D01*
X0060020Y0042205D01*
X0059985Y0042285D01*
X0059954Y0042366D01*
X0059926Y0042449D01*
X0059901Y0042532D01*
X0059880Y0042617D01*
X0059863Y0042703D01*
X0059850Y0042789D01*
X0059841Y0042876D01*
X0059835Y0042963D01*
X0059833Y0043050D01*
X0059833Y0048050D01*
X0059835Y0048137D01*
X0059841Y0048224D01*
X0059850Y0048311D01*
X0059863Y0048397D01*
X0059880Y0048483D01*
X0059901Y0048568D01*
X0059926Y0048651D01*
X0059954Y0048734D01*
X0059985Y0048815D01*
X0060020Y0048895D01*
X0060059Y0048973D01*
X0060101Y0049050D01*
X0060146Y0049125D01*
X0060195Y0049197D01*
X0060246Y0049268D01*
X0060301Y0049336D01*
X0060358Y0049401D01*
X0060419Y0049464D01*
X0060482Y0049525D01*
X0060547Y0049582D01*
X0060615Y0049637D01*
X0060686Y0049688D01*
X0060758Y0049737D01*
X0060833Y0049782D01*
X0060910Y0049824D01*
X0060988Y0049863D01*
X0061068Y0049898D01*
X0061149Y0049929D01*
X0061232Y0049957D01*
X0061315Y0049982D01*
X0061400Y0050003D01*
X0061486Y0050020D01*
X0061572Y0050033D01*
X0061659Y0050042D01*
X0061746Y0050048D01*
X0061833Y0050050D01*
X0074833Y0050050D01*
X0074920Y0050048D01*
X0075007Y0050042D01*
X0075094Y0050033D01*
X0075180Y0050020D01*
X0075266Y0050003D01*
X0075351Y0049982D01*
X0075434Y0049957D01*
X0075517Y0049929D01*
X0075598Y0049898D01*
X0075678Y0049863D01*
X0075756Y0049824D01*
X0075833Y0049782D01*
X0075908Y0049737D01*
X0075980Y0049688D01*
X0076051Y0049637D01*
X0076119Y0049582D01*
X0076184Y0049525D01*
X0076247Y0049464D01*
X0076308Y0049401D01*
X0076365Y0049336D01*
X0076420Y0049268D01*
X0076471Y0049197D01*
X0076520Y0049125D01*
X0076565Y0049050D01*
X0076607Y0048973D01*
X0076646Y0048895D01*
X0076681Y0048815D01*
X0076712Y0048734D01*
X0076740Y0048651D01*
X0076765Y0048568D01*
X0076786Y0048483D01*
X0076803Y0048397D01*
X0076816Y0048311D01*
X0076825Y0048224D01*
X0076831Y0048137D01*
X0076833Y0048050D01*
X0059083Y0041800D02*
X0058583Y0042300D01*
X0058583Y0061300D01*
X0059083Y0061800D01*
X0059083Y0063300D01*
X0059081Y0063360D01*
X0059076Y0063421D01*
X0059067Y0063480D01*
X0059054Y0063539D01*
X0059038Y0063598D01*
X0059018Y0063655D01*
X0058995Y0063710D01*
X0058968Y0063765D01*
X0058939Y0063817D01*
X0058906Y0063868D01*
X0058870Y0063917D01*
X0058832Y0063963D01*
X0058790Y0064007D01*
X0058746Y0064049D01*
X0058700Y0064087D01*
X0058651Y0064123D01*
X0058600Y0064156D01*
X0058548Y0064185D01*
X0058493Y0064212D01*
X0058438Y0064235D01*
X0058381Y0064255D01*
X0058322Y0064271D01*
X0058263Y0064284D01*
X0058204Y0064293D01*
X0058143Y0064298D01*
X0058083Y0064300D01*
X0051083Y0064300D01*
X0051023Y0064298D01*
X0050962Y0064293D01*
X0050903Y0064284D01*
X0050844Y0064271D01*
X0050785Y0064255D01*
X0050728Y0064235D01*
X0050673Y0064212D01*
X0050618Y0064185D01*
X0050566Y0064156D01*
X0050515Y0064123D01*
X0050466Y0064087D01*
X0050420Y0064049D01*
X0050376Y0064007D01*
X0050334Y0063963D01*
X0050296Y0063917D01*
X0050260Y0063868D01*
X0050227Y0063817D01*
X0050198Y0063765D01*
X0050171Y0063710D01*
X0050148Y0063655D01*
X0050128Y0063598D01*
X0050112Y0063539D01*
X0050099Y0063480D01*
X0050090Y0063421D01*
X0050085Y0063360D01*
X0050083Y0063300D01*
X0050083Y0061800D01*
X0050583Y0061300D01*
X0050583Y0042300D01*
X0050083Y0041800D01*
X0050083Y0040300D01*
X0050085Y0040240D01*
X0050090Y0040179D01*
X0050099Y0040120D01*
X0050112Y0040061D01*
X0050128Y0040002D01*
X0050148Y0039945D01*
X0050171Y0039890D01*
X0050198Y0039835D01*
X0050227Y0039783D01*
X0050260Y0039732D01*
X0050296Y0039683D01*
X0050334Y0039637D01*
X0050376Y0039593D01*
X0050420Y0039551D01*
X0050466Y0039513D01*
X0050515Y0039477D01*
X0050566Y0039444D01*
X0050618Y0039415D01*
X0050673Y0039388D01*
X0050728Y0039365D01*
X0050785Y0039345D01*
X0050844Y0039329D01*
X0050903Y0039316D01*
X0050962Y0039307D01*
X0051023Y0039302D01*
X0051083Y0039300D01*
X0058083Y0039300D01*
X0058143Y0039302D01*
X0058204Y0039307D01*
X0058263Y0039316D01*
X0058322Y0039329D01*
X0058381Y0039345D01*
X0058438Y0039365D01*
X0058493Y0039388D01*
X0058548Y0039415D01*
X0058600Y0039444D01*
X0058651Y0039477D01*
X0058700Y0039513D01*
X0058746Y0039551D01*
X0058790Y0039593D01*
X0058832Y0039637D01*
X0058870Y0039683D01*
X0058906Y0039732D01*
X0058939Y0039783D01*
X0058968Y0039835D01*
X0058995Y0039890D01*
X0059018Y0039945D01*
X0059038Y0040002D01*
X0059054Y0040061D01*
X0059067Y0040120D01*
X0059076Y0040179D01*
X0059081Y0040240D01*
X0059083Y0040300D01*
X0059083Y0041800D01*
X0044083Y0041800D02*
X0044083Y0040300D01*
X0044081Y0040240D01*
X0044076Y0040179D01*
X0044067Y0040120D01*
X0044054Y0040061D01*
X0044038Y0040002D01*
X0044018Y0039945D01*
X0043995Y0039890D01*
X0043968Y0039835D01*
X0043939Y0039783D01*
X0043906Y0039732D01*
X0043870Y0039683D01*
X0043832Y0039637D01*
X0043790Y0039593D01*
X0043746Y0039551D01*
X0043700Y0039513D01*
X0043651Y0039477D01*
X0043600Y0039444D01*
X0043548Y0039415D01*
X0043493Y0039388D01*
X0043438Y0039365D01*
X0043381Y0039345D01*
X0043322Y0039329D01*
X0043263Y0039316D01*
X0043204Y0039307D01*
X0043143Y0039302D01*
X0043083Y0039300D01*
X0036083Y0039300D01*
X0036023Y0039302D01*
X0035962Y0039307D01*
X0035903Y0039316D01*
X0035844Y0039329D01*
X0035785Y0039345D01*
X0035728Y0039365D01*
X0035673Y0039388D01*
X0035618Y0039415D01*
X0035566Y0039444D01*
X0035515Y0039477D01*
X0035466Y0039513D01*
X0035420Y0039551D01*
X0035376Y0039593D01*
X0035334Y0039637D01*
X0035296Y0039683D01*
X0035260Y0039732D01*
X0035227Y0039783D01*
X0035198Y0039835D01*
X0035171Y0039890D01*
X0035148Y0039945D01*
X0035128Y0040002D01*
X0035112Y0040061D01*
X0035099Y0040120D01*
X0035090Y0040179D01*
X0035085Y0040240D01*
X0035083Y0040300D01*
X0035083Y0041800D01*
X0035583Y0042300D01*
X0035583Y0061300D01*
X0035083Y0061800D01*
X0035083Y0063300D01*
X0034083Y0063300D02*
X0034083Y0061800D01*
X0033583Y0061300D01*
X0033583Y0042300D01*
X0034083Y0041800D01*
X0034083Y0040300D01*
X0034081Y0040240D01*
X0034076Y0040179D01*
X0034067Y0040120D01*
X0034054Y0040061D01*
X0034038Y0040002D01*
X0034018Y0039945D01*
X0033995Y0039890D01*
X0033968Y0039835D01*
X0033939Y0039783D01*
X0033906Y0039732D01*
X0033870Y0039683D01*
X0033832Y0039637D01*
X0033790Y0039593D01*
X0033746Y0039551D01*
X0033700Y0039513D01*
X0033651Y0039477D01*
X0033600Y0039444D01*
X0033548Y0039415D01*
X0033493Y0039388D01*
X0033438Y0039365D01*
X0033381Y0039345D01*
X0033322Y0039329D01*
X0033263Y0039316D01*
X0033204Y0039307D01*
X0033143Y0039302D01*
X0033083Y0039300D01*
X0026083Y0039300D01*
X0026023Y0039302D01*
X0025962Y0039307D01*
X0025903Y0039316D01*
X0025844Y0039329D01*
X0025785Y0039345D01*
X0025728Y0039365D01*
X0025673Y0039388D01*
X0025618Y0039415D01*
X0025566Y0039444D01*
X0025515Y0039477D01*
X0025466Y0039513D01*
X0025420Y0039551D01*
X0025376Y0039593D01*
X0025334Y0039637D01*
X0025296Y0039683D01*
X0025260Y0039732D01*
X0025227Y0039783D01*
X0025198Y0039835D01*
X0025171Y0039890D01*
X0025148Y0039945D01*
X0025128Y0040002D01*
X0025112Y0040061D01*
X0025099Y0040120D01*
X0025090Y0040179D01*
X0025085Y0040240D01*
X0025083Y0040300D01*
X0025083Y0041800D01*
X0025583Y0042300D01*
X0025583Y0061300D01*
X0025083Y0061800D01*
X0025083Y0063300D01*
X0025085Y0063360D01*
X0025090Y0063421D01*
X0025099Y0063480D01*
X0025112Y0063539D01*
X0025128Y0063598D01*
X0025148Y0063655D01*
X0025171Y0063710D01*
X0025198Y0063765D01*
X0025227Y0063817D01*
X0025260Y0063868D01*
X0025296Y0063917D01*
X0025334Y0063963D01*
X0025376Y0064007D01*
X0025420Y0064049D01*
X0025466Y0064087D01*
X0025515Y0064123D01*
X0025566Y0064156D01*
X0025618Y0064185D01*
X0025673Y0064212D01*
X0025728Y0064235D01*
X0025785Y0064255D01*
X0025844Y0064271D01*
X0025903Y0064284D01*
X0025962Y0064293D01*
X0026023Y0064298D01*
X0026083Y0064300D01*
X0033083Y0064300D01*
X0033143Y0064298D01*
X0033204Y0064293D01*
X0033263Y0064284D01*
X0033322Y0064271D01*
X0033381Y0064255D01*
X0033438Y0064235D01*
X0033493Y0064212D01*
X0033548Y0064185D01*
X0033600Y0064156D01*
X0033651Y0064123D01*
X0033700Y0064087D01*
X0033746Y0064049D01*
X0033790Y0064007D01*
X0033832Y0063963D01*
X0033870Y0063917D01*
X0033906Y0063868D01*
X0033939Y0063817D01*
X0033968Y0063765D01*
X0033995Y0063710D01*
X0034018Y0063655D01*
X0034038Y0063598D01*
X0034054Y0063539D01*
X0034067Y0063480D01*
X0034076Y0063421D01*
X0034081Y0063360D01*
X0034083Y0063300D01*
X0035083Y0063300D02*
X0035085Y0063360D01*
X0035090Y0063421D01*
X0035099Y0063480D01*
X0035112Y0063539D01*
X0035128Y0063598D01*
X0035148Y0063655D01*
X0035171Y0063710D01*
X0035198Y0063765D01*
X0035227Y0063817D01*
X0035260Y0063868D01*
X0035296Y0063917D01*
X0035334Y0063963D01*
X0035376Y0064007D01*
X0035420Y0064049D01*
X0035466Y0064087D01*
X0035515Y0064123D01*
X0035566Y0064156D01*
X0035618Y0064185D01*
X0035673Y0064212D01*
X0035728Y0064235D01*
X0035785Y0064255D01*
X0035844Y0064271D01*
X0035903Y0064284D01*
X0035962Y0064293D01*
X0036023Y0064298D01*
X0036083Y0064300D01*
X0043083Y0064300D01*
X0043143Y0064298D01*
X0043204Y0064293D01*
X0043263Y0064284D01*
X0043322Y0064271D01*
X0043381Y0064255D01*
X0043438Y0064235D01*
X0043493Y0064212D01*
X0043548Y0064185D01*
X0043600Y0064156D01*
X0043651Y0064123D01*
X0043700Y0064087D01*
X0043746Y0064049D01*
X0043790Y0064007D01*
X0043832Y0063963D01*
X0043870Y0063917D01*
X0043906Y0063868D01*
X0043939Y0063817D01*
X0043968Y0063765D01*
X0043995Y0063710D01*
X0044018Y0063655D01*
X0044038Y0063598D01*
X0044054Y0063539D01*
X0044067Y0063480D01*
X0044076Y0063421D01*
X0044081Y0063360D01*
X0044083Y0063300D01*
X0044083Y0061800D01*
X0043583Y0061300D01*
X0043583Y0042300D01*
X0044083Y0041800D01*
X0020795Y0054418D02*
X0020795Y0058688D01*
X0019727Y0059755D01*
X0016524Y0059755D01*
X0016524Y0053350D01*
X0019727Y0053350D01*
X0020795Y0054418D01*
X0014349Y0053350D02*
X0014349Y0059755D01*
X0010079Y0059755D02*
X0014349Y0053350D01*
X0010079Y0053350D02*
X0010079Y0059755D01*
X0007904Y0058688D02*
X0006836Y0059755D01*
X0004701Y0059755D01*
X0003633Y0058688D01*
X0003633Y0054418D01*
X0004701Y0053350D01*
X0006836Y0053350D01*
X0007904Y0054418D01*
X0007904Y0056553D01*
X0005768Y0056553D01*
X0018083Y0041800D02*
X0018081Y0041648D01*
X0018075Y0041497D01*
X0018066Y0041346D01*
X0018052Y0041194D01*
X0018035Y0041044D01*
X0018014Y0040894D01*
X0017989Y0040744D01*
X0017961Y0040595D01*
X0017928Y0040447D01*
X0017892Y0040300D01*
X0017853Y0040153D01*
X0017809Y0040008D01*
X0017762Y0039864D01*
X0017711Y0039721D01*
X0017657Y0039580D01*
X0017599Y0039439D01*
X0017538Y0039301D01*
X0017473Y0039164D01*
X0017404Y0039028D01*
X0017333Y0038895D01*
X0017258Y0038763D01*
X0017179Y0038633D01*
X0017098Y0038506D01*
X0017013Y0038380D01*
X0016925Y0038256D01*
X0016834Y0038135D01*
X0016740Y0038016D01*
X0016642Y0037900D01*
X0016542Y0037786D01*
X0016440Y0037674D01*
X0016334Y0037566D01*
X0016226Y0037460D01*
X0016115Y0037356D01*
X0016001Y0037256D01*
X0015885Y0037158D01*
X0015766Y0037064D01*
X0006083Y0041800D02*
X0006085Y0041954D01*
X0006091Y0042108D01*
X0006101Y0042262D01*
X0006115Y0042416D01*
X0006132Y0042569D01*
X0006154Y0042721D01*
X0006180Y0042873D01*
X0006209Y0043025D01*
X0006243Y0043175D01*
X0006280Y0043325D01*
X0006321Y0043473D01*
X0006366Y0043621D01*
X0006415Y0043767D01*
X0006467Y0043912D01*
X0006523Y0044055D01*
X0006583Y0044198D01*
X0006646Y0044338D01*
X0006713Y0044477D01*
X0006784Y0044614D01*
X0006858Y0044749D01*
X0006935Y0044882D01*
X0007016Y0045014D01*
X0007100Y0045143D01*
X0007188Y0045270D01*
X0007279Y0045394D01*
X0007372Y0045516D01*
X0007470Y0045636D01*
X0007570Y0045753D01*
X0007673Y0045868D01*
X0007779Y0045980D01*
X0007887Y0046089D01*
X0007999Y0046195D01*
X0008113Y0046299D01*
X0008230Y0046399D01*
X0008349Y0046497D01*
X0008471Y0046591D01*
X0008596Y0046682D01*
X0006083Y0041800D02*
X0006085Y0041650D01*
X0006091Y0041499D01*
X0006100Y0041349D01*
X0006113Y0041200D01*
X0006130Y0041050D01*
X0006151Y0040901D01*
X0006175Y0040753D01*
X0006203Y0040605D01*
X0006235Y0040458D01*
X0006270Y0040312D01*
X0006310Y0040167D01*
X0006352Y0040023D01*
X0006399Y0039880D01*
X0006449Y0039738D01*
X0006502Y0039597D01*
X0006559Y0039458D01*
X0006619Y0039320D01*
X0006683Y0039184D01*
X0006750Y0039050D01*
X0006821Y0038917D01*
X0006895Y0038786D01*
X0006972Y0038657D01*
X0007053Y0038530D01*
X0007136Y0038405D01*
X0007223Y0038282D01*
X0007312Y0038161D01*
X0007405Y0038043D01*
X0007501Y0037927D01*
X0007599Y0037813D01*
X0007700Y0037702D01*
X0007805Y0037593D01*
X0007911Y0037488D01*
X0008021Y0037384D01*
X0008133Y0037284D01*
X0008247Y0037186D01*
X0008364Y0037092D01*
X0008483Y0037000D01*
X0018083Y0041800D02*
X0018081Y0041952D01*
X0018075Y0042103D01*
X0018066Y0042254D01*
X0018052Y0042406D01*
X0018035Y0042556D01*
X0018014Y0042706D01*
X0017989Y0042856D01*
X0017961Y0043005D01*
X0017928Y0043153D01*
X0017892Y0043300D01*
X0017853Y0043447D01*
X0017809Y0043592D01*
X0017762Y0043736D01*
X0017711Y0043879D01*
X0017657Y0044020D01*
X0017599Y0044161D01*
X0017538Y0044299D01*
X0017473Y0044436D01*
X0017404Y0044572D01*
X0017333Y0044705D01*
X0017258Y0044837D01*
X0017179Y0044967D01*
X0017098Y0045094D01*
X0017013Y0045220D01*
X0016925Y0045344D01*
X0016834Y0045465D01*
X0016740Y0045584D01*
X0016642Y0045700D01*
X0016542Y0045814D01*
X0016440Y0045926D01*
X0016334Y0046034D01*
X0016226Y0046140D01*
X0016115Y0046244D01*
X0016001Y0046344D01*
X0015885Y0046442D01*
X0015766Y0046536D01*
X0014701Y0073350D02*
X0013633Y0074418D01*
X0014701Y0073350D02*
X0016836Y0073350D01*
X0017904Y0074418D01*
X0017904Y0075485D01*
X0016836Y0076553D01*
X0015768Y0076553D01*
X0016836Y0076553D02*
X0017904Y0077620D01*
X0017904Y0078688D01*
X0016836Y0079755D01*
X0014701Y0079755D01*
X0013633Y0078688D01*
X0013633Y0083350D02*
X0013633Y0087620D01*
X0015768Y0089755D01*
X0017904Y0087620D01*
X0017904Y0083350D01*
X0017904Y0086553D02*
X0013633Y0086553D01*
X0020079Y0086553D02*
X0024349Y0086553D01*
X0023282Y0089755D02*
X0020079Y0086553D01*
X0023282Y0083350D02*
X0023282Y0089755D01*
X0023282Y0093350D02*
X0023282Y0099755D01*
X0020079Y0096553D01*
X0024349Y0096553D01*
X0023282Y0103350D02*
X0021146Y0103350D01*
X0020079Y0104418D01*
X0017904Y0104418D02*
X0016836Y0103350D01*
X0013633Y0103350D01*
X0013633Y0109755D01*
X0016836Y0109755D01*
X0017904Y0108688D01*
X0017904Y0107620D01*
X0016836Y0106553D01*
X0013633Y0106553D01*
X0016836Y0106553D02*
X0017904Y0105485D01*
X0017904Y0104418D01*
X0020079Y0108688D02*
X0021146Y0109755D01*
X0023282Y0109755D01*
X0024349Y0108688D01*
X0024349Y0107620D01*
X0023282Y0106553D01*
X0024349Y0105485D01*
X0024349Y0104418D01*
X0023282Y0103350D01*
X0023282Y0106553D02*
X0022214Y0106553D01*
X0024349Y0113350D02*
X0020079Y0113350D01*
X0024349Y0117620D01*
X0024349Y0118688D01*
X0023282Y0119755D01*
X0021146Y0119755D01*
X0020079Y0118688D01*
X0017904Y0118688D02*
X0017904Y0117620D01*
X0016836Y0116553D01*
X0013633Y0116553D01*
X0013633Y0119755D02*
X0016836Y0119755D01*
X0017904Y0118688D01*
X0016836Y0116553D02*
X0017904Y0115485D01*
X0017904Y0114418D01*
X0016836Y0113350D01*
X0013633Y0113350D01*
X0013633Y0119755D01*
X0013633Y0123350D02*
X0013633Y0127620D01*
X0015768Y0129755D01*
X0017904Y0127620D01*
X0017904Y0123350D01*
X0020079Y0123350D02*
X0024349Y0123350D01*
X0022214Y0123350D02*
X0022214Y0129755D01*
X0020079Y0127620D01*
X0017904Y0126553D02*
X0013633Y0126553D01*
X0013633Y0133350D02*
X0013633Y0137620D01*
X0015768Y0139755D01*
X0017904Y0137620D01*
X0017904Y0133350D01*
X0020079Y0134418D02*
X0024349Y0138688D01*
X0024349Y0134418D01*
X0023282Y0133350D01*
X0021146Y0133350D01*
X0020079Y0134418D01*
X0020079Y0138688D01*
X0021146Y0139755D01*
X0023282Y0139755D01*
X0024349Y0138688D01*
X0017904Y0136553D02*
X0013633Y0136553D01*
X0013633Y0099755D02*
X0016836Y0099755D01*
X0017904Y0098688D01*
X0017904Y0097620D01*
X0016836Y0096553D01*
X0013633Y0096553D01*
X0013633Y0099755D02*
X0013633Y0093350D01*
X0016836Y0093350D01*
X0017904Y0094418D01*
X0017904Y0095485D01*
X0016836Y0096553D01*
X0024369Y0079755D02*
X0023302Y0078688D01*
X0024369Y0079755D02*
X0026504Y0079755D01*
X0027572Y0078688D01*
X0027572Y0077620D01*
X0026504Y0076553D01*
X0027572Y0075485D01*
X0027572Y0074418D01*
X0026504Y0073350D01*
X0024369Y0073350D01*
X0023302Y0074418D01*
X0021146Y0074418D02*
X0021146Y0073350D01*
X0020079Y0073350D01*
X0020079Y0074418D01*
X0021146Y0074418D01*
X0025437Y0076553D02*
X0026504Y0076553D01*
X0029747Y0075485D02*
X0031882Y0073350D01*
X0034017Y0075485D01*
X0034017Y0079755D01*
X0029747Y0079755D02*
X0029747Y0075485D01*
X0060583Y0011800D02*
X0060581Y0011646D01*
X0060575Y0011492D01*
X0060565Y0011338D01*
X0060551Y0011184D01*
X0060534Y0011031D01*
X0060512Y0010879D01*
X0060486Y0010727D01*
X0060457Y0010575D01*
X0060423Y0010425D01*
X0060386Y0010275D01*
X0060345Y0010127D01*
X0060300Y0009979D01*
X0060251Y0009833D01*
X0060199Y0009688D01*
X0060143Y0009545D01*
X0060083Y0009402D01*
X0060020Y0009262D01*
X0059953Y0009123D01*
X0059882Y0008986D01*
X0059808Y0008851D01*
X0059731Y0008718D01*
X0059650Y0008586D01*
X0059566Y0008457D01*
X0059478Y0008330D01*
X0059387Y0008206D01*
X0059294Y0008084D01*
X0059196Y0007964D01*
X0059096Y0007847D01*
X0058993Y0007732D01*
X0058887Y0007620D01*
X0058779Y0007511D01*
X0058667Y0007405D01*
X0058553Y0007301D01*
X0058436Y0007201D01*
X0058317Y0007103D01*
X0058195Y0007009D01*
X0058070Y0006918D01*
X0048583Y0011800D02*
X0048585Y0011952D01*
X0048591Y0012103D01*
X0048600Y0012254D01*
X0048614Y0012406D01*
X0048631Y0012556D01*
X0048652Y0012706D01*
X0048677Y0012856D01*
X0048705Y0013005D01*
X0048738Y0013153D01*
X0048774Y0013300D01*
X0048813Y0013447D01*
X0048857Y0013592D01*
X0048904Y0013736D01*
X0048955Y0013879D01*
X0049009Y0014020D01*
X0049067Y0014161D01*
X0049128Y0014299D01*
X0049193Y0014436D01*
X0049262Y0014572D01*
X0049333Y0014705D01*
X0049408Y0014837D01*
X0049487Y0014967D01*
X0049568Y0015094D01*
X0049653Y0015220D01*
X0049741Y0015344D01*
X0049832Y0015465D01*
X0049926Y0015584D01*
X0050024Y0015700D01*
X0050124Y0015814D01*
X0050226Y0015926D01*
X0050332Y0016034D01*
X0050440Y0016140D01*
X0050551Y0016244D01*
X0050665Y0016344D01*
X0050781Y0016442D01*
X0050900Y0016536D01*
X0048583Y0011800D02*
X0048585Y0011648D01*
X0048591Y0011497D01*
X0048600Y0011346D01*
X0048614Y0011194D01*
X0048631Y0011044D01*
X0048652Y0010894D01*
X0048677Y0010744D01*
X0048705Y0010595D01*
X0048738Y0010447D01*
X0048774Y0010300D01*
X0048813Y0010153D01*
X0048857Y0010008D01*
X0048904Y0009864D01*
X0048955Y0009721D01*
X0049009Y0009580D01*
X0049067Y0009439D01*
X0049128Y0009301D01*
X0049193Y0009164D01*
X0049262Y0009028D01*
X0049333Y0008895D01*
X0049408Y0008763D01*
X0049487Y0008633D01*
X0049568Y0008506D01*
X0049653Y0008380D01*
X0049741Y0008256D01*
X0049832Y0008135D01*
X0049926Y0008016D01*
X0050024Y0007900D01*
X0050124Y0007786D01*
X0050226Y0007674D01*
X0050332Y0007566D01*
X0050440Y0007460D01*
X0050551Y0007356D01*
X0050665Y0007256D01*
X0050781Y0007158D01*
X0050900Y0007064D01*
X0060583Y0011800D02*
X0060581Y0011950D01*
X0060575Y0012101D01*
X0060566Y0012251D01*
X0060553Y0012400D01*
X0060536Y0012550D01*
X0060515Y0012699D01*
X0060491Y0012847D01*
X0060463Y0012995D01*
X0060431Y0013142D01*
X0060396Y0013288D01*
X0060356Y0013433D01*
X0060314Y0013577D01*
X0060267Y0013720D01*
X0060217Y0013862D01*
X0060164Y0014003D01*
X0060107Y0014142D01*
X0060047Y0014280D01*
X0059983Y0014416D01*
X0059916Y0014550D01*
X0059845Y0014683D01*
X0059771Y0014814D01*
X0059694Y0014943D01*
X0059613Y0015070D01*
X0059530Y0015195D01*
X0059443Y0015318D01*
X0059354Y0015439D01*
X0059261Y0015557D01*
X0059165Y0015673D01*
X0059067Y0015787D01*
X0058966Y0015898D01*
X0058861Y0016007D01*
X0058755Y0016112D01*
X0058645Y0016216D01*
X0058533Y0016316D01*
X0058419Y0016414D01*
X0058302Y0016508D01*
X0058183Y0016600D01*
D13*
X0143158Y0006450D03*
X0143608Y0006900D03*
X0143608Y0007350D03*
X0144058Y0007500D03*
X0144208Y0007800D03*
X0144358Y0008100D03*
X0144808Y0009000D03*
X0144658Y0009150D03*
X0145108Y0009300D03*
X0144958Y0009600D03*
X0145708Y0010200D03*
X0146008Y0011400D03*
X0146458Y0011550D03*
X0146458Y0012000D03*
X0146608Y0012450D03*
X0147508Y0013800D03*
X0147658Y0014100D03*
X0148108Y0014400D03*
X0148108Y0014850D03*
X0148858Y0015750D03*
X0149158Y0016200D03*
X0149008Y0016500D03*
X0149608Y0017550D03*
X0149908Y0017850D03*
X0150208Y0018150D03*
X0150208Y0018600D03*
X0150808Y0019050D03*
X0150808Y0019500D03*
X0150808Y0019650D03*
X0151408Y0020100D03*
X0151258Y0020400D03*
X0151708Y0020250D03*
X0151708Y0019950D03*
X0152608Y0020250D03*
X0153208Y0019800D03*
X0153508Y0020100D03*
X0153808Y0020250D03*
X0154708Y0020250D03*
X0155008Y0019950D03*
X0155458Y0019950D03*
X0155608Y0020250D03*
X0157108Y0019950D03*
X0158158Y0020250D03*
X0158608Y0020250D03*
X0159208Y0019950D03*
X0159508Y0020100D03*
X0159808Y0020250D03*
X0160708Y0020250D03*
X0161008Y0019950D03*
X0161308Y0020100D03*
X0161608Y0020250D03*
X0161908Y0020100D03*
X0164908Y0020250D03*
X0165508Y0020100D03*
X0165808Y0020250D03*
X0166708Y0019950D03*
X0166708Y0019800D03*
X0167008Y0020250D03*
X0167608Y0020250D03*
X0167758Y0019950D03*
X0167608Y0019800D03*
X0168208Y0019650D03*
X0168358Y0018900D03*
X0168508Y0018600D03*
X0169108Y0018150D03*
X0169108Y0017550D03*
X0169408Y0017100D03*
X0169708Y0016950D03*
X0170008Y0016200D03*
X0170608Y0015600D03*
X0170608Y0015000D03*
X0171208Y0014250D03*
X0171508Y0013650D03*
X0171658Y0013350D03*
X0171808Y0013200D03*
X0171808Y0012750D03*
X0172558Y0012300D03*
X0172708Y0011700D03*
X0173008Y0010950D03*
X0173308Y0010650D03*
X0173458Y0010200D03*
X0173758Y0009750D03*
X0174058Y0008850D03*
X0174358Y0008700D03*
X0174658Y0008400D03*
X0174808Y0008100D03*
X0174808Y0007650D03*
X0175408Y0007200D03*
X0175408Y0006600D03*
X0167608Y0020700D03*
X0166408Y0022500D03*
X0166558Y0022650D03*
X0165808Y0023250D03*
X0165808Y0023700D03*
X0165808Y0023850D03*
X0165208Y0024300D03*
X0165208Y0024750D03*
X0164608Y0025350D03*
X0164308Y0025950D03*
X0164308Y0026550D03*
X0163858Y0026700D03*
X0163858Y0027300D03*
X0163408Y0027300D03*
X0163408Y0027750D03*
X0162808Y0028500D03*
X0162208Y0029550D03*
X0161908Y0030000D03*
X0161908Y0030600D03*
X0161458Y0030750D03*
X0161308Y0031050D03*
X0160708Y0032100D03*
X0160708Y0032250D03*
X0160708Y0032700D03*
X0160408Y0033150D03*
X0159958Y0033600D03*
X0159208Y0033750D03*
X0158908Y0033450D03*
X0158608Y0033150D03*
X0158458Y0032550D03*
X0158008Y0032100D03*
X0157558Y0031500D03*
X0157858Y0031200D03*
X0157558Y0030900D03*
X0157408Y0030600D03*
X0156808Y0030150D03*
X0156958Y0029850D03*
X0156508Y0029100D03*
X0155908Y0028650D03*
X0155758Y0027750D03*
X0155308Y0027600D03*
X0153658Y0024000D03*
X0153208Y0023850D03*
X0153058Y0023550D03*
X0153208Y0023400D03*
X0152908Y0022800D03*
X0152458Y0022650D03*
X0152308Y0021900D03*
X0152308Y0021600D03*
X0159508Y0026100D03*
X0159508Y0026250D03*
D14*
X0162583Y0028800D03*
X0162583Y0028950D03*
X0162433Y0029100D03*
X0162583Y0029250D03*
X0162433Y0029400D03*
X0162583Y0029550D03*
X0162283Y0029700D03*
X0162283Y0029850D03*
X0161983Y0029850D03*
X0162283Y0030150D03*
X0162133Y0030300D03*
X0161683Y0030300D03*
X0161683Y0030450D03*
X0161533Y0030600D03*
X0161683Y0030900D03*
X0161683Y0031200D03*
X0161533Y0031350D03*
X0161383Y0031500D03*
X0161383Y0031650D03*
X0161233Y0031800D03*
X0160933Y0031800D03*
X0160933Y0031650D03*
X0160933Y0031500D03*
X0161083Y0031350D03*
X0161083Y0032100D03*
X0161083Y0032250D03*
X0160933Y0032400D03*
X0160483Y0032400D03*
X0160333Y0032700D03*
X0160483Y0032850D03*
X0160633Y0033000D03*
X0160183Y0033000D03*
X0160033Y0033150D03*
X0159883Y0033300D03*
X0159733Y0033450D03*
X0160183Y0033450D03*
X0160333Y0033600D03*
X0160183Y0033750D03*
X0159883Y0033900D03*
X0159883Y0034050D03*
X0159733Y0034200D03*
X0159733Y0034350D03*
X0159583Y0034500D03*
X0159583Y0034650D03*
X0159433Y0034800D03*
X0159283Y0034500D03*
X0159433Y0034350D03*
X0159283Y0034200D03*
X0159433Y0034050D03*
X0159583Y0033900D03*
X0159283Y0033600D03*
X0159133Y0033900D03*
X0158983Y0034050D03*
X0158683Y0033600D03*
X0158833Y0033300D03*
X0158983Y0033150D03*
X0158833Y0032850D03*
X0158683Y0032700D03*
X0158383Y0032850D03*
X0158533Y0033000D03*
X0158083Y0032550D03*
X0158083Y0032400D03*
X0158233Y0032250D03*
X0158383Y0032100D03*
X0158233Y0031950D03*
X0158083Y0031650D03*
X0157933Y0031500D03*
X0157783Y0031650D03*
X0157783Y0031800D03*
X0157483Y0031200D03*
X0157333Y0031050D03*
X0157183Y0030900D03*
X0157033Y0030600D03*
X0157183Y0030300D03*
X0157333Y0030450D03*
X0157333Y0030150D03*
X0157183Y0030000D03*
X0156883Y0029550D03*
X0156883Y0029400D03*
X0156583Y0029550D03*
X0156583Y0029700D03*
X0156583Y0029850D03*
X0156433Y0029400D03*
X0156283Y0029250D03*
X0156583Y0029250D03*
X0156433Y0028800D03*
X0156433Y0028650D03*
X0156283Y0028500D03*
X0155983Y0028350D03*
X0155683Y0028350D03*
X0155683Y0028200D03*
X0155533Y0027900D03*
X0155683Y0027600D03*
X0155383Y0027450D03*
X0155233Y0027300D03*
X0155083Y0027150D03*
X0155383Y0027150D03*
X0155383Y0027000D03*
X0155233Y0026850D03*
X0155083Y0026700D03*
X0155083Y0026550D03*
X0154783Y0026550D03*
X0154783Y0026700D03*
X0154933Y0026850D03*
X0154783Y0026400D03*
X0154633Y0026250D03*
X0154483Y0026100D03*
X0154333Y0025950D03*
X0154333Y0025800D03*
X0154633Y0025800D03*
X0154633Y0025650D03*
X0154483Y0025500D03*
X0154333Y0025350D03*
X0154333Y0025200D03*
X0154183Y0025050D03*
X0154033Y0025200D03*
X0154033Y0025350D03*
X0154183Y0025500D03*
X0154783Y0025950D03*
X0154783Y0026100D03*
X0155083Y0026250D03*
X0155533Y0027300D03*
X0155983Y0028800D03*
X0156133Y0028950D03*
X0158533Y0032250D03*
X0162133Y0029400D03*
X0162733Y0029100D03*
X0162883Y0029250D03*
X0163033Y0028800D03*
X0162733Y0028650D03*
X0163033Y0028350D03*
X0163183Y0028500D03*
X0163333Y0028200D03*
X0163183Y0028050D03*
X0163033Y0027900D03*
X0162883Y0028050D03*
X0163483Y0028050D03*
X0163333Y0027450D03*
X0163633Y0027000D03*
X0163783Y0026850D03*
X0163933Y0027000D03*
X0164233Y0026850D03*
X0164083Y0026400D03*
X0164083Y0026250D03*
X0164083Y0026100D03*
X0164383Y0025800D03*
X0164533Y0025650D03*
X0164833Y0025800D03*
X0164833Y0025500D03*
X0164983Y0025350D03*
X0164983Y0025200D03*
X0164833Y0025050D03*
X0164833Y0024900D03*
X0164833Y0024750D03*
X0164983Y0024450D03*
X0165283Y0024600D03*
X0165433Y0024450D03*
X0165583Y0024300D03*
X0165583Y0024150D03*
X0165433Y0024000D03*
X0165433Y0023850D03*
X0165583Y0023400D03*
X0165883Y0023100D03*
X0165883Y0022950D03*
X0166033Y0022650D03*
X0166183Y0022800D03*
X0166333Y0022950D03*
X0166333Y0023100D03*
X0166183Y0023250D03*
X0166033Y0023550D03*
X0166333Y0022050D03*
X0166633Y0021750D03*
X0166783Y0021900D03*
X0166933Y0022050D03*
X0167083Y0021750D03*
X0166933Y0021600D03*
X0166783Y0021450D03*
X0166933Y0021300D03*
X0167233Y0021300D03*
X0167233Y0021450D03*
X0167233Y0021600D03*
X0167383Y0021150D03*
X0167533Y0021000D03*
X0167533Y0020850D03*
X0167233Y0020700D03*
X0167083Y0020850D03*
X0167083Y0021000D03*
X0167383Y0020550D03*
X0167383Y0020100D03*
X0167233Y0019950D03*
X0167083Y0020100D03*
X0166633Y0020250D03*
X0166333Y0020100D03*
X0166183Y0019950D03*
X0166033Y0020100D03*
X0165733Y0019950D03*
X0165883Y0019800D03*
X0165433Y0019950D03*
X0165133Y0019950D03*
X0165133Y0019800D03*
X0164833Y0019950D03*
X0164833Y0020100D03*
X0164533Y0019950D03*
X0164533Y0019800D03*
X0164233Y0019800D03*
X0164083Y0019950D03*
X0163783Y0019950D03*
X0163783Y0020100D03*
X0163633Y0020250D03*
X0163483Y0020100D03*
X0163633Y0019800D03*
X0162283Y0019800D03*
X0162133Y0019950D03*
X0162133Y0020250D03*
X0161683Y0019800D03*
X0161533Y0019950D03*
X0161233Y0019800D03*
X0161083Y0020250D03*
X0160783Y0020100D03*
X0160633Y0019950D03*
X0160633Y0019800D03*
X0160333Y0020100D03*
X0160183Y0019950D03*
X0160033Y0020100D03*
X0159733Y0019950D03*
X0159883Y0019800D03*
X0159433Y0019800D03*
X0158983Y0020100D03*
X0158833Y0019950D03*
X0158833Y0019800D03*
X0158533Y0020100D03*
X0158383Y0019950D03*
X0158233Y0019800D03*
X0158083Y0019950D03*
X0157783Y0019950D03*
X0157783Y0020100D03*
X0157633Y0020250D03*
X0157333Y0020100D03*
X0157183Y0020250D03*
X0157033Y0020100D03*
X0156883Y0020250D03*
X0156583Y0020100D03*
X0156733Y0019950D03*
X0156883Y0019800D03*
X0156283Y0019950D03*
X0156133Y0020100D03*
X0155833Y0020100D03*
X0155233Y0020100D03*
X0155083Y0020250D03*
X0154783Y0020100D03*
X0154633Y0019950D03*
X0154633Y0019800D03*
X0154333Y0020100D03*
X0154183Y0019950D03*
X0154033Y0020100D03*
X0153733Y0019950D03*
X0153883Y0019800D03*
X0153283Y0019950D03*
X0153283Y0020250D03*
X0152983Y0020250D03*
X0152983Y0020100D03*
X0152833Y0019950D03*
X0152683Y0020100D03*
X0152383Y0019950D03*
X0152533Y0019800D03*
X0152083Y0019950D03*
X0152083Y0020100D03*
X0152083Y0020250D03*
X0152233Y0020400D03*
X0151633Y0020550D03*
X0151633Y0020700D03*
X0151483Y0020850D03*
X0151633Y0021000D03*
X0151633Y0021150D03*
X0151783Y0021300D03*
X0151783Y0021450D03*
X0151933Y0021600D03*
X0151933Y0021750D03*
X0152083Y0022050D03*
X0152383Y0022050D03*
X0152533Y0022200D03*
X0152533Y0022350D03*
X0152233Y0022350D03*
X0152833Y0022350D03*
X0152833Y0022500D03*
X0152683Y0022950D03*
X0152683Y0023100D03*
X0152833Y0023250D03*
X0152983Y0022950D03*
X0153283Y0023250D03*
X0153433Y0023700D03*
X0153433Y0024150D03*
X0153433Y0024300D03*
X0153583Y0024600D03*
X0153733Y0024750D03*
X0153883Y0024450D03*
X0153883Y0024300D03*
X0153733Y0024150D03*
X0154033Y0024600D03*
X0152233Y0021450D03*
X0152083Y0021300D03*
X0151933Y0021000D03*
X0151783Y0020850D03*
X0151333Y0020550D03*
X0151033Y0020100D03*
X0151033Y0019950D03*
X0151183Y0019800D03*
X0151183Y0019650D03*
X0151033Y0019350D03*
X0150583Y0019350D03*
X0150433Y0019050D03*
X0150433Y0018900D03*
X0150583Y0018750D03*
X0150583Y0018600D03*
X0150433Y0018450D03*
X0150133Y0018750D03*
X0149983Y0018300D03*
X0149833Y0018150D03*
X0149683Y0017700D03*
X0149833Y0017400D03*
X0149983Y0017550D03*
X0149533Y0017250D03*
X0149383Y0017400D03*
X0149383Y0017100D03*
X0149233Y0016950D03*
X0149083Y0016800D03*
X0149083Y0016650D03*
X0149383Y0016650D03*
X0149383Y0016500D03*
X0149533Y0016800D03*
X0149683Y0016950D03*
X0148783Y0016350D03*
X0148633Y0016050D03*
X0148933Y0016050D03*
X0148483Y0015750D03*
X0148333Y0015600D03*
X0148183Y0015300D03*
X0148333Y0015150D03*
X0148333Y0015000D03*
X0148333Y0014700D03*
X0147883Y0014700D03*
X0147733Y0014550D03*
X0147733Y0014400D03*
X0148033Y0014250D03*
X0148033Y0014100D03*
X0147733Y0013650D03*
X0147583Y0013500D03*
X0147433Y0013350D03*
X0147433Y0013200D03*
X0147133Y0013350D03*
X0146983Y0013200D03*
X0147133Y0013050D03*
X0147283Y0012900D03*
X0147133Y0012600D03*
X0146983Y0012450D03*
X0146833Y0012300D03*
X0146833Y0012150D03*
X0146533Y0012150D03*
X0146683Y0011850D03*
X0146233Y0011850D03*
X0146083Y0011550D03*
X0145933Y0011250D03*
X0145783Y0011100D03*
X0145783Y0010950D03*
X0146083Y0010950D03*
X0146083Y0010800D03*
X0146233Y0011100D03*
X0146383Y0011250D03*
X0145783Y0010500D03*
X0145483Y0010350D03*
X0145333Y0010500D03*
X0145183Y0010200D03*
X0145333Y0010050D03*
X0145483Y0009900D03*
X0145483Y0009750D03*
X0145333Y0009600D03*
X0145183Y0009750D03*
X0145033Y0009900D03*
X0145033Y0008850D03*
X0144733Y0008700D03*
X0144433Y0008700D03*
X0144433Y0008850D03*
X0144283Y0008550D03*
X0144133Y0008250D03*
X0143983Y0007950D03*
X0143833Y0007800D03*
X0144133Y0007650D03*
X0143533Y0007050D03*
X0143383Y0006750D03*
X0143533Y0006450D03*
X0143833Y0006750D03*
X0147283Y0013500D03*
X0147283Y0013650D03*
X0147433Y0013950D03*
X0148633Y0015150D03*
X0148483Y0015300D03*
X0150283Y0018000D03*
X0151783Y0019800D03*
X0154183Y0020400D03*
X0155233Y0019800D03*
X0157483Y0019950D03*
X0157633Y0019800D03*
X0159133Y0020250D03*
X0159433Y0020400D03*
X0160183Y0020400D03*
X0165283Y0020250D03*
X0166183Y0020400D03*
X0167833Y0020400D03*
X0168133Y0020100D03*
X0167983Y0019800D03*
X0168133Y0019500D03*
X0168133Y0019350D03*
X0167983Y0019200D03*
X0168283Y0019200D03*
X0168433Y0019350D03*
X0168583Y0019200D03*
X0168733Y0019050D03*
X0168733Y0018900D03*
X0168883Y0018750D03*
X0168883Y0018450D03*
X0168733Y0018300D03*
X0168583Y0018450D03*
X0168733Y0018000D03*
X0168883Y0017850D03*
X0169333Y0017850D03*
X0169333Y0017700D03*
X0169483Y0017550D03*
X0169183Y0017400D03*
X0169333Y0017250D03*
X0169633Y0017250D03*
X0169933Y0016800D03*
X0170083Y0016650D03*
X0170233Y0016350D03*
X0170383Y0016200D03*
X0170383Y0015900D03*
X0170083Y0015900D03*
X0170083Y0015750D03*
X0170233Y0015600D03*
X0170533Y0015450D03*
X0170533Y0015300D03*
X0170383Y0015150D03*
X0170833Y0015150D03*
X0170983Y0015000D03*
X0170983Y0014850D03*
X0171133Y0014700D03*
X0171283Y0014550D03*
X0170983Y0014400D03*
X0170833Y0014550D03*
X0170683Y0014700D03*
X0171133Y0013950D03*
X0171133Y0013800D03*
X0171433Y0013800D03*
X0171583Y0013950D03*
X0171433Y0014100D03*
X0171283Y0013500D03*
X0171883Y0013500D03*
X0171883Y0013650D03*
X0172183Y0013050D03*
X0172183Y0012750D03*
X0172183Y0012600D03*
X0172033Y0012450D03*
X0172183Y0012300D03*
X0172333Y0012150D03*
X0172483Y0012000D03*
X0172333Y0011850D03*
X0172483Y0011550D03*
X0172633Y0011250D03*
X0172783Y0011100D03*
X0172933Y0011400D03*
X0172933Y0011550D03*
X0172783Y0011850D03*
X0172483Y0012450D03*
X0171883Y0012900D03*
X0173083Y0011250D03*
X0173233Y0011100D03*
X0173383Y0010950D03*
X0172933Y0010800D03*
X0173233Y0010500D03*
X0173233Y0010350D03*
X0173533Y0010500D03*
X0173683Y0010350D03*
X0173683Y0010050D03*
X0173533Y0009900D03*
X0173683Y0009600D03*
X0173983Y0009600D03*
X0174133Y0009450D03*
X0174283Y0009300D03*
X0174283Y0009150D03*
X0173983Y0009150D03*
X0173833Y0009300D03*
X0173983Y0009900D03*
X0174433Y0008850D03*
X0174133Y0008550D03*
X0174433Y0008250D03*
X0174583Y0007950D03*
X0174883Y0008250D03*
X0174733Y0008550D03*
X0175033Y0007950D03*
X0175183Y0007800D03*
X0175183Y0007500D03*
X0174883Y0007500D03*
X0174883Y0007350D03*
X0175183Y0007050D03*
X0175183Y0006900D03*
X0175483Y0006750D03*
X0175633Y0006900D03*
X0175783Y0006750D03*
X0175633Y0006450D03*
X0175933Y0006450D03*
X0175483Y0007350D03*
X0170083Y0016050D03*
X0169483Y0016650D03*
X0169033Y0018300D03*
X0165133Y0025050D03*
X0164533Y0026100D03*
X0164533Y0026250D03*
D15*
X0163633Y0027600D03*
X0166633Y0022200D03*
X0169783Y0016500D03*
X0155983Y0019800D03*
X0154033Y0024900D03*
X0155983Y0028050D03*
X0148633Y0015450D03*
X0146833Y0012750D03*
X0145633Y0010650D03*
X0144583Y0008400D03*
X0143833Y0007200D03*
D16*
X0152983Y0014550D03*
X0153133Y0014700D03*
X0153133Y0014850D03*
X0153283Y0015000D03*
X0153283Y0015150D03*
X0153433Y0015300D03*
X0153583Y0015600D03*
X0153733Y0015750D03*
X0153733Y0015900D03*
X0153883Y0016050D03*
X0153883Y0016200D03*
X0154033Y0016350D03*
X0154183Y0016650D03*
X0154333Y0016800D03*
X0154333Y0016950D03*
X0154483Y0017100D03*
X0154483Y0017250D03*
X0154633Y0017400D03*
X0154783Y0017700D03*
X0154933Y0017850D03*
X0154933Y0018000D03*
X0155083Y0018150D03*
X0155083Y0018300D03*
X0155233Y0018450D03*
X0155383Y0018600D03*
X0155383Y0018750D03*
X0155533Y0018900D03*
X0155533Y0019050D03*
X0155683Y0019200D03*
X0155683Y0019350D03*
X0155833Y0019500D03*
X0155983Y0019650D03*
X0156283Y0020400D03*
X0156433Y0020550D03*
X0156583Y0020700D03*
X0156583Y0020850D03*
X0156733Y0021000D03*
X0156733Y0021150D03*
X0156883Y0021300D03*
X0157033Y0021600D03*
X0157183Y0021750D03*
X0157183Y0021900D03*
X0157333Y0022050D03*
X0157333Y0022200D03*
X0157483Y0022350D03*
X0157633Y0022650D03*
X0157783Y0022800D03*
X0157783Y0022950D03*
X0157933Y0023100D03*
X0158083Y0023400D03*
X0158233Y0023700D03*
X0158383Y0023850D03*
X0158383Y0024000D03*
X0158533Y0024150D03*
X0158533Y0024300D03*
X0158683Y0024450D03*
X0158833Y0024750D03*
X0158983Y0024900D03*
X0158983Y0025050D03*
X0160033Y0025050D03*
X0160033Y0024900D03*
X0160183Y0024750D03*
X0160333Y0024600D03*
X0160333Y0024450D03*
X0160483Y0024300D03*
X0160483Y0024150D03*
X0160633Y0024000D03*
X0160633Y0023850D03*
X0160783Y0023700D03*
X0160933Y0023400D03*
X0161083Y0023100D03*
X0161233Y0022950D03*
X0161233Y0022800D03*
X0161383Y0022650D03*
X0161533Y0022350D03*
X0161683Y0022200D03*
X0161683Y0022050D03*
X0161833Y0021900D03*
X0161833Y0021750D03*
X0161983Y0021600D03*
X0162133Y0021300D03*
X0162283Y0021150D03*
X0162283Y0021000D03*
X0162433Y0020850D03*
X0162583Y0020550D03*
X0162883Y0019950D03*
X0163033Y0019800D03*
X0163033Y0019650D03*
X0163183Y0019500D03*
X0163333Y0019200D03*
X0163483Y0019050D03*
X0163483Y0018900D03*
X0163633Y0018750D03*
X0163783Y0018450D03*
X0163933Y0018300D03*
X0163933Y0018150D03*
X0164083Y0018000D03*
X0164083Y0017850D03*
X0164233Y0017700D03*
X0164383Y0017400D03*
X0164533Y0017100D03*
X0164683Y0016950D03*
X0164683Y0016800D03*
X0164833Y0016650D03*
X0164983Y0016350D03*
X0165133Y0016200D03*
X0165133Y0016050D03*
X0165283Y0015900D03*
X0165283Y0015750D03*
X0165433Y0015600D03*
X0165583Y0015300D03*
X0165733Y0015150D03*
X0165733Y0015000D03*
X0165883Y0014850D03*
X0165883Y0014700D03*
X0166033Y0014550D03*
D17*
X0165508Y0015450D03*
X0164908Y0016500D03*
X0164458Y0017250D03*
X0164308Y0017550D03*
X0163708Y0018600D03*
X0163258Y0019350D03*
X0164308Y0020250D03*
X0162508Y0020700D03*
X0162058Y0021450D03*
X0161458Y0022500D03*
X0161008Y0023250D03*
X0160858Y0023550D03*
X0159508Y0025950D03*
X0158758Y0024600D03*
X0158158Y0023550D03*
X0158008Y0023250D03*
X0157558Y0022500D03*
X0156958Y0021450D03*
X0154708Y0017550D03*
X0154108Y0016500D03*
X0153508Y0015450D03*
D18*
X0162658Y0020400D03*
X0162808Y0020250D03*
X0162808Y0020100D03*
X0159508Y0025650D03*
X0159508Y0025800D03*
D19*
X0159508Y0025350D03*
X0159508Y0025200D03*
D20*
X0159508Y0025500D03*
D21*
X0134633Y0112550D02*
X0134633Y0118550D01*
X0132133Y0118550D02*
X0132133Y0112550D01*
X0132133Y0162550D02*
X0132133Y0168550D01*
X0134633Y0168550D02*
X0134633Y0162550D01*
X0145333Y0185600D02*
X0151333Y0185600D01*
X0151333Y0188100D02*
X0145333Y0188100D01*
X0075783Y0179800D02*
X0075783Y0173800D01*
X0073283Y0173800D02*
X0073283Y0179800D01*
X0069633Y0048550D02*
X0069633Y0042550D01*
X0067133Y0042550D02*
X0067133Y0048550D01*
D22*
X0067239Y0051550D02*
X0070242Y0051550D01*
X0068740Y0051550D02*
X0068740Y0056054D01*
X0067239Y0054553D01*
X0065688Y0052301D02*
X0065688Y0051550D01*
X0064937Y0051550D01*
X0064937Y0052301D01*
X0065688Y0052301D01*
X0063336Y0052301D02*
X0062585Y0051550D01*
X0061084Y0051550D01*
X0060333Y0052301D01*
X0063336Y0055303D01*
X0063336Y0052301D01*
X0063336Y0055303D02*
X0062585Y0056054D01*
X0061084Y0056054D01*
X0060333Y0055303D01*
X0060333Y0052301D01*
X0056833Y0052506D02*
X0056833Y0051005D01*
X0056083Y0050254D01*
X0056083Y0048653D02*
X0056833Y0047902D01*
X0056833Y0046401D01*
X0056083Y0045650D01*
X0054581Y0047151D02*
X0054581Y0047902D01*
X0055332Y0048653D01*
X0056083Y0048653D01*
X0054581Y0047902D02*
X0053831Y0048653D01*
X0053080Y0048653D01*
X0052329Y0047902D01*
X0052329Y0046401D01*
X0053080Y0045650D01*
X0053080Y0050254D02*
X0052329Y0051005D01*
X0052329Y0052506D01*
X0053080Y0053256D01*
X0053831Y0053256D01*
X0054581Y0052506D01*
X0055332Y0053256D01*
X0056083Y0053256D01*
X0056833Y0052506D01*
X0054581Y0052506D02*
X0054581Y0051755D01*
X0053080Y0054858D02*
X0052329Y0055608D01*
X0052329Y0057110D01*
X0053080Y0057860D01*
X0056083Y0054858D01*
X0056833Y0055608D01*
X0056833Y0057110D01*
X0056083Y0057860D01*
X0053080Y0057860D01*
X0053080Y0054858D02*
X0056083Y0054858D01*
X0041833Y0055615D02*
X0040332Y0053363D01*
X0038831Y0055615D01*
X0037329Y0053363D02*
X0041833Y0053363D01*
X0041083Y0051762D02*
X0041833Y0051011D01*
X0041833Y0049510D01*
X0041083Y0048759D01*
X0038080Y0051762D01*
X0041083Y0051762D01*
X0041083Y0048759D02*
X0038080Y0048759D01*
X0037329Y0049510D01*
X0037329Y0051011D01*
X0038080Y0051762D01*
X0041833Y0047158D02*
X0041833Y0044156D01*
X0041833Y0045657D02*
X0037329Y0045657D01*
X0038831Y0044156D01*
X0031833Y0046401D02*
X0031083Y0045650D01*
X0031833Y0046401D02*
X0031833Y0047902D01*
X0031083Y0048653D01*
X0030332Y0048653D01*
X0029581Y0047902D01*
X0029581Y0047151D01*
X0029581Y0047902D02*
X0028831Y0048653D01*
X0028080Y0048653D01*
X0027329Y0047902D01*
X0027329Y0046401D01*
X0028080Y0045650D01*
X0028080Y0050254D02*
X0027329Y0051005D01*
X0027329Y0052506D01*
X0028080Y0053256D01*
X0028831Y0053256D01*
X0029581Y0052506D01*
X0030332Y0053256D01*
X0031083Y0053256D01*
X0031833Y0052506D01*
X0031833Y0051005D01*
X0031083Y0050254D01*
X0029581Y0051755D02*
X0029581Y0052506D01*
X0028080Y0054858D02*
X0027329Y0055608D01*
X0027329Y0057110D01*
X0028080Y0057860D01*
X0031083Y0054858D01*
X0031833Y0055608D01*
X0031833Y0057110D01*
X0031083Y0057860D01*
X0028080Y0057860D01*
X0028080Y0054858D02*
X0031083Y0054858D01*
X0071843Y0054553D02*
X0071843Y0052301D01*
X0072594Y0051550D01*
X0074846Y0051550D01*
X0074846Y0054553D01*
X0076447Y0053802D02*
X0077948Y0053802D01*
X0076447Y0051550D02*
X0076447Y0056054D01*
X0079450Y0056054D01*
X0098254Y0066451D02*
X0098254Y0068703D01*
X0099005Y0069453D01*
X0100506Y0069453D01*
X0101257Y0068703D01*
X0101257Y0066451D01*
X0102758Y0066451D02*
X0098254Y0066451D01*
X0098254Y0071055D02*
X0098254Y0072556D01*
X0098254Y0071805D02*
X0102758Y0071805D01*
X0102758Y0071055D02*
X0102758Y0072556D01*
X0102008Y0074124D02*
X0102758Y0074874D01*
X0102758Y0076376D01*
X0102008Y0077126D01*
X0102008Y0078728D02*
X0102758Y0079478D01*
X0102758Y0080980D01*
X0102008Y0081730D01*
X0101257Y0081730D01*
X0100506Y0080980D01*
X0100506Y0080229D01*
X0100506Y0080980D02*
X0099756Y0081730D01*
X0099005Y0081730D01*
X0098254Y0080980D01*
X0098254Y0079478D01*
X0099005Y0078728D01*
X0099005Y0077126D02*
X0098254Y0076376D01*
X0098254Y0074874D01*
X0099005Y0074124D01*
X0102008Y0074124D01*
X0102758Y0083332D02*
X0099756Y0086334D01*
X0099005Y0086334D01*
X0098254Y0085584D01*
X0098254Y0084082D01*
X0099005Y0083332D01*
X0102758Y0083332D02*
X0102758Y0086334D01*
X0102758Y0087936D02*
X0098254Y0087936D01*
X0099756Y0089437D01*
X0098254Y0090938D01*
X0102758Y0090938D01*
X0102758Y0092540D02*
X0098254Y0095542D01*
X0099005Y0097143D02*
X0098254Y0097894D01*
X0098254Y0099395D01*
X0099005Y0100146D01*
X0099756Y0100146D01*
X0102758Y0097143D01*
X0102758Y0100146D01*
X0102008Y0101747D02*
X0102758Y0102498D01*
X0102758Y0103999D01*
X0102008Y0104750D01*
X0100506Y0104750D01*
X0099756Y0103999D01*
X0099756Y0103249D01*
X0100506Y0101747D01*
X0098254Y0101747D01*
X0098254Y0104750D01*
X0099005Y0106351D02*
X0098254Y0107102D01*
X0098254Y0108603D01*
X0099005Y0109354D01*
X0102008Y0106351D01*
X0102758Y0107102D01*
X0102758Y0108603D01*
X0102008Y0109354D01*
X0099005Y0109354D01*
X0098254Y0110955D02*
X0098254Y0113958D01*
X0099756Y0115559D02*
X0098254Y0117060D01*
X0102758Y0117060D01*
X0102758Y0115559D02*
X0102758Y0118562D01*
X0102758Y0120163D02*
X0099756Y0123166D01*
X0099005Y0123166D01*
X0098254Y0122415D01*
X0098254Y0120914D01*
X0099005Y0120163D01*
X0102758Y0120163D02*
X0102758Y0123166D01*
X0102008Y0124767D02*
X0101257Y0124767D01*
X0100506Y0125518D01*
X0100506Y0127019D01*
X0101257Y0127770D01*
X0102008Y0127770D01*
X0102758Y0127019D01*
X0102758Y0125518D01*
X0102008Y0124767D01*
X0100506Y0125518D02*
X0099756Y0124767D01*
X0099005Y0124767D01*
X0098254Y0125518D01*
X0098254Y0127019D01*
X0099005Y0127770D01*
X0099756Y0127770D01*
X0100506Y0127019D01*
X0100506Y0129371D02*
X0100506Y0131623D01*
X0101257Y0132373D01*
X0102008Y0132373D01*
X0102758Y0131623D01*
X0102758Y0129371D01*
X0098254Y0129371D01*
X0098254Y0131623D01*
X0099005Y0132373D01*
X0099756Y0132373D01*
X0100506Y0131623D01*
X0100506Y0112457D02*
X0100506Y0110955D01*
X0102758Y0110955D02*
X0098254Y0110955D01*
X0099005Y0106351D02*
X0102008Y0106351D01*
X0102758Y0095542D02*
X0098254Y0092540D01*
X0123333Y0075553D02*
X0124835Y0077054D01*
X0124835Y0072550D01*
X0126336Y0072550D02*
X0123333Y0072550D01*
X0127937Y0073301D02*
X0127937Y0076303D01*
X0128688Y0077054D01*
X0130189Y0077054D01*
X0130940Y0076303D01*
X0127937Y0073301D01*
X0128688Y0072550D01*
X0130189Y0072550D01*
X0130940Y0073301D01*
X0130940Y0076303D01*
X0132541Y0075553D02*
X0132541Y0073301D01*
X0133292Y0072550D01*
X0135544Y0072550D01*
X0135544Y0075553D01*
X0137145Y0074802D02*
X0138646Y0074802D01*
X0137145Y0072550D02*
X0137145Y0077054D01*
X0140148Y0077054D01*
X0139846Y0105300D02*
X0137594Y0105300D01*
X0136843Y0106051D01*
X0136843Y0108303D01*
X0139846Y0108303D02*
X0139846Y0105300D01*
X0141447Y0105300D02*
X0141447Y0109804D01*
X0144450Y0109804D01*
X0142948Y0107552D02*
X0141447Y0107552D01*
X0135242Y0105300D02*
X0132239Y0105300D01*
X0133740Y0105300D02*
X0133740Y0109804D01*
X0132239Y0108303D01*
X0130688Y0106051D02*
X0129937Y0106051D01*
X0129937Y0105300D01*
X0130688Y0105300D01*
X0130688Y0106051D01*
X0128336Y0106051D02*
X0127585Y0105300D01*
X0126084Y0105300D01*
X0125333Y0106051D01*
X0128336Y0109053D01*
X0128336Y0106051D01*
X0128336Y0109053D02*
X0127585Y0109804D01*
X0126084Y0109804D01*
X0125333Y0109053D01*
X0125333Y0106051D01*
X0162329Y0129407D02*
X0166833Y0129407D01*
X0166833Y0127906D02*
X0166833Y0130908D01*
X0166083Y0132509D02*
X0163080Y0135512D01*
X0166083Y0135512D01*
X0166833Y0134761D01*
X0166833Y0133260D01*
X0166083Y0132509D01*
X0163080Y0132509D01*
X0162329Y0133260D01*
X0162329Y0134761D01*
X0163080Y0135512D01*
X0162329Y0137113D02*
X0166833Y0137113D01*
X0165332Y0137113D02*
X0166833Y0139365D01*
X0165332Y0137113D02*
X0163831Y0139365D01*
X0162329Y0129407D02*
X0163831Y0127906D01*
X0141447Y0155300D02*
X0141447Y0159804D01*
X0144450Y0159804D01*
X0142948Y0157552D02*
X0141447Y0157552D01*
X0139846Y0158303D02*
X0139846Y0155300D01*
X0137594Y0155300D01*
X0136843Y0156051D01*
X0136843Y0158303D01*
X0135242Y0155300D02*
X0132239Y0155300D01*
X0133740Y0155300D02*
X0133740Y0159804D01*
X0132239Y0158303D01*
X0130688Y0156051D02*
X0129937Y0156051D01*
X0129937Y0155300D01*
X0130688Y0155300D01*
X0130688Y0156051D01*
X0128336Y0156051D02*
X0127585Y0155300D01*
X0126084Y0155300D01*
X0125333Y0156051D01*
X0128336Y0159053D01*
X0128336Y0156051D01*
X0128336Y0159053D02*
X0127585Y0159804D01*
X0126084Y0159804D01*
X0125333Y0159053D01*
X0125333Y0156051D01*
X0125342Y0172550D02*
X0124591Y0173301D01*
X0124591Y0175553D01*
X0122990Y0176303D02*
X0122239Y0177054D01*
X0120738Y0177054D01*
X0119987Y0176303D01*
X0119987Y0173301D01*
X0122990Y0176303D01*
X0122990Y0173301D01*
X0122239Y0172550D01*
X0120738Y0172550D01*
X0119987Y0173301D01*
X0118386Y0172550D02*
X0115383Y0172550D01*
X0116885Y0172550D02*
X0116885Y0177054D01*
X0115383Y0175553D01*
X0125342Y0172550D02*
X0127594Y0172550D01*
X0127594Y0175553D01*
X0129195Y0174802D02*
X0130696Y0174802D01*
X0129195Y0172550D02*
X0129195Y0177054D01*
X0132198Y0177054D01*
X0138366Y0176303D02*
X0138366Y0173301D01*
X0141368Y0176303D01*
X0141368Y0173301D01*
X0140618Y0172550D01*
X0139116Y0172550D01*
X0138366Y0173301D01*
X0138366Y0176303D02*
X0139116Y0177054D01*
X0140618Y0177054D01*
X0141368Y0176303D01*
X0142970Y0173301D02*
X0143720Y0173301D01*
X0143720Y0172550D01*
X0142970Y0172550D01*
X0142970Y0173301D01*
X0145272Y0172550D02*
X0148274Y0172550D01*
X0146773Y0172550D02*
X0146773Y0177054D01*
X0145272Y0175553D01*
X0149875Y0175553D02*
X0149875Y0173301D01*
X0150626Y0172550D01*
X0152878Y0172550D01*
X0152878Y0175553D01*
X0154479Y0174802D02*
X0155981Y0174802D01*
X0154479Y0177054D02*
X0157482Y0177054D01*
X0154479Y0177054D02*
X0154479Y0172550D01*
X0120961Y0190300D02*
X0119381Y0190300D01*
X0118754Y0195800D02*
X0102262Y0195800D01*
X0101635Y0190300D02*
X0100056Y0190300D01*
X0109381Y0190300D02*
X0111635Y0190300D01*
X0118754Y0195800D02*
X0118907Y0195601D01*
X0119055Y0195399D01*
X0119198Y0195194D01*
X0119336Y0194985D01*
X0119469Y0194773D01*
X0119597Y0194558D01*
X0119719Y0194340D01*
X0119837Y0194119D01*
X0119949Y0193895D01*
X0120056Y0193669D01*
X0120157Y0193440D01*
X0120253Y0193209D01*
X0120344Y0192975D01*
X0120429Y0192740D01*
X0120508Y0192502D01*
X0120581Y0192263D01*
X0120649Y0192022D01*
X0120711Y0191780D01*
X0120767Y0191536D01*
X0120818Y0191290D01*
X0120862Y0191044D01*
X0120901Y0190797D01*
X0120933Y0190549D01*
X0120960Y0190300D01*
X0107412Y0179267D02*
X0107170Y0179345D01*
X0106930Y0179429D01*
X0106692Y0179518D01*
X0106456Y0179614D01*
X0106222Y0179715D01*
X0105991Y0179821D01*
X0105763Y0179934D01*
X0105537Y0180051D01*
X0105314Y0180174D01*
X0105095Y0180303D01*
X0104878Y0180437D01*
X0104665Y0180576D01*
X0104455Y0180720D01*
X0104249Y0180869D01*
X0104047Y0181023D01*
X0103848Y0181182D01*
X0103653Y0181346D01*
X0103462Y0181515D01*
X0103276Y0181688D01*
X0103093Y0181865D01*
X0102915Y0182047D01*
X0102742Y0182233D01*
X0102573Y0182424D01*
X0102409Y0182618D01*
X0102249Y0182816D01*
X0102094Y0183018D01*
X0101945Y0183224D01*
X0101800Y0183433D01*
X0101660Y0183646D01*
X0101526Y0183862D01*
X0101397Y0184082D01*
X0101273Y0184304D01*
X0101154Y0184529D01*
X0101042Y0184757D01*
X0100934Y0184988D01*
X0100833Y0185221D01*
X0100737Y0185457D01*
X0100646Y0185695D01*
X0100562Y0185935D01*
X0100483Y0186177D01*
X0100410Y0186421D01*
X0100344Y0186667D01*
X0100283Y0186914D01*
X0100228Y0187162D01*
X0100179Y0187412D01*
X0100136Y0187663D01*
X0100100Y0187915D01*
X0100069Y0188167D01*
X0100045Y0188421D01*
X0100027Y0188674D01*
X0100015Y0188929D01*
X0100009Y0189183D01*
X0100009Y0189438D01*
X0100015Y0189692D01*
X0100028Y0189946D01*
X0100047Y0190200D01*
X0100072Y0190453D01*
X0100103Y0190706D01*
X0100140Y0190958D01*
X0100183Y0191208D01*
X0100232Y0191458D01*
X0100287Y0191707D01*
X0100349Y0191954D01*
X0100416Y0192199D01*
X0100489Y0192443D01*
X0100568Y0192685D01*
X0100653Y0192924D01*
X0100744Y0193162D01*
X0100841Y0193398D01*
X0100943Y0193631D01*
X0101051Y0193861D01*
X0101164Y0194089D01*
X0101283Y0194314D01*
X0101407Y0194536D01*
X0101536Y0194755D01*
X0101671Y0194971D01*
X0101811Y0195184D01*
X0101957Y0195393D01*
X0102107Y0195598D01*
X0102262Y0195800D01*
X0120960Y0190300D02*
X0120982Y0190045D01*
X0120997Y0189789D01*
X0121005Y0189533D01*
X0121008Y0189276D01*
X0121004Y0189020D01*
X0120994Y0188764D01*
X0120978Y0188508D01*
X0120956Y0188253D01*
X0120927Y0187998D01*
X0120892Y0187744D01*
X0120851Y0187491D01*
X0120804Y0187239D01*
X0120750Y0186989D01*
X0120691Y0186740D01*
X0120625Y0186492D01*
X0120554Y0186246D01*
X0120476Y0186001D01*
X0120393Y0185759D01*
X0120304Y0185519D01*
X0120208Y0185281D01*
X0120107Y0185045D01*
X0120001Y0184812D01*
X0119888Y0184582D01*
X0119770Y0184354D01*
X0119647Y0184130D01*
X0119518Y0183908D01*
X0119384Y0183690D01*
X0119244Y0183475D01*
X0119099Y0183264D01*
X0118949Y0183056D01*
X0118795Y0182852D01*
X0118635Y0182651D01*
X0118470Y0182455D01*
X0118301Y0182263D01*
X0118126Y0182074D01*
X0117948Y0181891D01*
X0117765Y0181711D01*
X0117577Y0181536D01*
X0117386Y0181366D01*
X0117190Y0181201D01*
X0116990Y0181040D01*
X0116787Y0180884D01*
X0116580Y0180734D01*
X0116369Y0180588D01*
X0116154Y0180447D01*
X0115937Y0180312D01*
X0115716Y0180182D01*
X0115492Y0180058D01*
X0115265Y0179939D01*
X0115035Y0179826D01*
X0114802Y0179718D01*
X0114567Y0179616D01*
X0114329Y0179520D01*
X0114090Y0179430D01*
X0113848Y0179345D01*
X0113604Y0179267D01*
X0062732Y0179554D02*
X0059729Y0179554D01*
X0059729Y0175050D01*
X0058128Y0175050D02*
X0058128Y0178053D01*
X0059729Y0177302D02*
X0061231Y0177302D01*
X0058128Y0175050D02*
X0055876Y0175050D01*
X0055125Y0175801D01*
X0055125Y0178053D01*
X0053524Y0175050D02*
X0050522Y0175050D01*
X0052023Y0175050D02*
X0052023Y0179554D01*
X0050522Y0178053D01*
X0048970Y0175801D02*
X0048970Y0175050D01*
X0048220Y0175050D01*
X0048220Y0175801D01*
X0048970Y0175801D01*
X0046618Y0175801D02*
X0046618Y0178803D01*
X0043616Y0175801D01*
X0044366Y0175050D01*
X0045868Y0175050D01*
X0046618Y0175801D01*
X0046618Y0178803D02*
X0045868Y0179554D01*
X0044366Y0179554D01*
X0043616Y0178803D01*
X0043616Y0175801D01*
D23*
X0047083Y0188050D02*
X0052083Y0188050D01*
X0054583Y0190550D01*
X0057083Y0188050D01*
X0062083Y0188050D01*
X0064583Y0190550D01*
X0067083Y0188050D01*
X0072083Y0188050D01*
X0074583Y0190550D01*
X0077083Y0188050D01*
X0082083Y0188050D01*
X0084583Y0190550D01*
X0087083Y0188050D01*
X0092083Y0188050D01*
X0094583Y0190550D01*
X0094583Y0195550D01*
X0092083Y0198050D01*
X0087083Y0198050D01*
X0084583Y0195550D01*
X0082083Y0198050D01*
X0077083Y0198050D01*
X0074583Y0195550D01*
X0072083Y0198050D01*
X0067083Y0198050D01*
X0064583Y0195550D01*
X0062083Y0198050D01*
X0057083Y0198050D01*
X0054583Y0195550D01*
X0052083Y0198050D01*
X0047083Y0198050D01*
X0044583Y0195550D01*
X0044583Y0190550D01*
X0047083Y0188050D01*
X0009583Y0141800D02*
X0004583Y0141800D01*
X0002083Y0139300D01*
X0002083Y0134300D01*
X0004583Y0131800D01*
X0002083Y0129300D01*
X0002083Y0124300D01*
X0004583Y0121800D01*
X0002083Y0119300D01*
X0002083Y0114300D01*
X0004583Y0111800D01*
X0002083Y0109300D01*
X0002083Y0104300D01*
X0004583Y0101800D01*
X0002083Y0099300D01*
X0002083Y0094300D01*
X0004583Y0091800D01*
X0002083Y0089300D01*
X0002083Y0084300D01*
X0004583Y0081800D01*
X0002083Y0079300D01*
X0002083Y0074300D01*
X0004583Y0071800D01*
X0002083Y0069300D01*
X0002083Y0064300D01*
X0004583Y0061800D01*
X0009583Y0061800D01*
X0012083Y0064300D01*
X0012083Y0069300D01*
X0009583Y0071800D01*
X0012083Y0074300D01*
X0012083Y0079300D01*
X0009583Y0081800D01*
X0012083Y0084300D01*
X0012083Y0089300D01*
X0009583Y0091800D01*
X0012083Y0094300D01*
X0012083Y0099300D01*
X0009583Y0101800D01*
X0012083Y0104300D01*
X0012083Y0109300D01*
X0009583Y0111800D01*
X0012083Y0114300D01*
X0012083Y0119300D01*
X0009583Y0121800D01*
X0012083Y0124300D01*
X0012083Y0129300D01*
X0009583Y0131800D01*
X0012083Y0134300D01*
X0012083Y0139300D01*
X0009583Y0141800D01*
X0067083Y0093050D02*
X0067083Y0088050D01*
X0069583Y0085550D01*
X0067083Y0083050D01*
X0067083Y0078050D01*
X0069583Y0075550D01*
X0067083Y0073050D01*
X0067083Y0068050D01*
X0069583Y0065550D01*
X0074583Y0065550D01*
X0077083Y0068050D01*
X0077083Y0073050D01*
X0074583Y0075550D01*
X0077083Y0078050D01*
X0077083Y0083050D01*
X0074583Y0085550D01*
X0077083Y0088050D01*
X0077083Y0093050D01*
X0074583Y0095550D01*
X0069583Y0095550D01*
X0067083Y0093050D01*
X0074583Y0016800D02*
X0072083Y0014300D01*
X0072083Y0009300D01*
X0074583Y0006800D01*
X0079583Y0006800D01*
X0082083Y0009300D01*
X0084583Y0006800D01*
X0089583Y0006800D01*
X0092083Y0009300D01*
X0094583Y0006800D01*
X0099583Y0006800D01*
X0102083Y0009300D01*
X0102083Y0014300D01*
X0099583Y0016800D01*
X0094583Y0016800D01*
X0092083Y0014300D01*
X0089583Y0016800D01*
X0084583Y0016800D01*
X0082083Y0014300D01*
X0079583Y0016800D01*
X0074583Y0016800D01*
X0189583Y0064300D02*
X0192083Y0061800D01*
X0197083Y0061800D01*
X0199583Y0064300D01*
X0199583Y0069300D01*
X0197083Y0071800D01*
X0199583Y0074300D01*
X0199583Y0079300D01*
X0197083Y0081800D01*
X0199583Y0084300D01*
X0199583Y0089300D01*
X0197083Y0091800D01*
X0199583Y0094300D01*
X0199583Y0099300D01*
X0197083Y0101800D01*
X0199583Y0104300D01*
X0199583Y0109300D01*
X0197083Y0111800D01*
X0199583Y0114300D01*
X0199583Y0119300D01*
X0197083Y0121800D01*
X0199583Y0124300D01*
X0199583Y0129300D01*
X0197083Y0131800D01*
X0199583Y0134300D01*
X0199583Y0139300D01*
X0197083Y0141800D01*
X0192083Y0141800D01*
X0189583Y0139300D01*
X0189583Y0134300D01*
X0192083Y0131800D01*
X0189583Y0129300D01*
X0189583Y0124300D01*
X0192083Y0121800D01*
X0189583Y0119300D01*
X0189583Y0114300D01*
X0192083Y0111800D01*
X0189583Y0109300D01*
X0189583Y0104300D01*
X0192083Y0101800D01*
X0189583Y0099300D01*
X0189583Y0094300D01*
X0192083Y0091800D01*
X0189583Y0089300D01*
X0189583Y0084300D01*
X0192083Y0081800D01*
X0189583Y0079300D01*
X0189583Y0074300D01*
X0192083Y0071800D01*
X0189583Y0069300D01*
X0189583Y0064300D01*
X0192083Y0144300D02*
X0197083Y0144300D01*
X0199583Y0146800D01*
X0199583Y0151800D01*
X0197083Y0154300D01*
X0199583Y0156800D01*
X0199583Y0161800D01*
X0197083Y0164300D01*
X0199583Y0166800D01*
X0199583Y0171800D01*
X0197083Y0174300D01*
X0199583Y0176800D01*
X0199583Y0181800D01*
X0197083Y0184300D01*
X0199583Y0186800D01*
X0199583Y0191800D01*
X0197083Y0194300D01*
X0192083Y0194300D01*
X0189583Y0191800D01*
X0189583Y0186800D01*
X0192083Y0184300D01*
X0189583Y0181800D01*
X0189583Y0176800D01*
X0192083Y0174300D01*
X0189583Y0171800D01*
X0189583Y0166800D01*
X0192083Y0164300D01*
X0189583Y0161800D01*
X0189583Y0156800D01*
X0192083Y0154300D01*
X0189583Y0151800D01*
X0189583Y0146800D01*
X0192083Y0144300D01*
X0183333Y0184300D02*
X0178333Y0184300D01*
X0175833Y0186800D01*
X0173333Y0184300D01*
X0168333Y0184300D01*
X0165833Y0186800D01*
X0163333Y0184300D01*
X0158333Y0184300D01*
X0155833Y0186800D01*
X0155833Y0191800D01*
X0158333Y0194300D01*
X0163333Y0194300D01*
X0165833Y0191800D01*
X0168333Y0194300D01*
X0173333Y0194300D01*
X0175833Y0191800D01*
X0178333Y0194300D01*
X0183333Y0194300D01*
X0185833Y0191800D01*
X0185833Y0186800D01*
X0183333Y0184300D01*
D24*
X0182914Y0176604D02*
X0179845Y0176604D01*
X0179845Y0172000D01*
X0182914Y0172000D01*
X0181380Y0174302D02*
X0179845Y0174302D01*
X0178310Y0173535D02*
X0178310Y0172767D01*
X0177543Y0172000D01*
X0176008Y0172000D01*
X0175241Y0172767D01*
X0173707Y0172000D02*
X0170637Y0172000D01*
X0170637Y0176604D01*
X0173707Y0176604D01*
X0175241Y0175837D02*
X0175241Y0175069D01*
X0176008Y0174302D01*
X0177543Y0174302D01*
X0178310Y0173535D01*
X0178310Y0175837D02*
X0177543Y0176604D01*
X0176008Y0176604D01*
X0175241Y0175837D01*
X0172172Y0174302D02*
X0170637Y0174302D01*
X0169103Y0174302D02*
X0168335Y0173535D01*
X0166033Y0173535D01*
X0167568Y0173535D02*
X0169103Y0172000D01*
X0169103Y0174302D02*
X0169103Y0175837D01*
X0168335Y0176604D01*
X0166033Y0176604D01*
X0166033Y0172000D01*
X0184449Y0176604D02*
X0187518Y0176604D01*
X0185984Y0176604D02*
X0185984Y0172000D01*
X0064383Y0088881D02*
X0064383Y0085812D01*
X0061314Y0088881D01*
X0061314Y0085812D01*
X0062081Y0084277D02*
X0062081Y0081208D01*
X0064383Y0081208D02*
X0059779Y0081208D01*
X0059779Y0079673D02*
X0064383Y0079673D01*
X0064383Y0076604D02*
X0059779Y0076604D01*
X0061314Y0078139D01*
X0059779Y0079673D01*
X0060547Y0075069D02*
X0059779Y0074302D01*
X0059779Y0072767D01*
X0060547Y0072000D01*
X0061314Y0072000D01*
X0062081Y0072767D01*
X0062081Y0074302D01*
X0062849Y0075069D01*
X0063616Y0075069D01*
X0064383Y0074302D01*
X0064383Y0072767D01*
X0063616Y0072000D01*
X0062849Y0072000D01*
X0062081Y0072767D01*
X0062081Y0074302D02*
X0061314Y0075069D01*
X0060547Y0075069D01*
X0059779Y0084277D02*
X0064383Y0084277D01*
X0107283Y0014104D02*
X0107283Y0010267D01*
X0108051Y0009500D01*
X0109585Y0009500D01*
X0110353Y0010267D01*
X0110353Y0014104D01*
X0111887Y0013337D02*
X0111887Y0012569D01*
X0112655Y0011802D01*
X0114189Y0011802D01*
X0114957Y0011035D01*
X0114957Y0010267D01*
X0114189Y0009500D01*
X0112655Y0009500D01*
X0111887Y0010267D01*
X0111887Y0013337D02*
X0112655Y0014104D01*
X0114189Y0014104D01*
X0114957Y0013337D01*
X0116491Y0014104D02*
X0116491Y0009500D01*
X0119560Y0009500D01*
X0121095Y0009500D02*
X0121095Y0014104D01*
X0123397Y0014104D01*
X0124164Y0013337D01*
X0124164Y0011802D01*
X0123397Y0011035D01*
X0121095Y0011035D01*
X0122630Y0011035D02*
X0124164Y0009500D01*
X0119560Y0014104D02*
X0116491Y0014104D01*
X0116491Y0011802D02*
X0118026Y0011802D01*
D25*
X0050614Y0018746D02*
X0050445Y0018647D01*
X0050279Y0018543D01*
X0050115Y0018436D01*
X0049954Y0018325D01*
X0049796Y0018210D01*
X0049641Y0018091D01*
X0049488Y0017968D01*
X0049339Y0017842D01*
X0049193Y0017712D01*
X0049050Y0017578D01*
X0048910Y0017441D01*
X0048774Y0017301D01*
X0048641Y0017157D01*
X0048512Y0017010D01*
X0048386Y0016860D01*
X0048265Y0016707D01*
X0048146Y0016551D01*
X0048032Y0016392D01*
X0047922Y0016231D01*
X0047816Y0016066D01*
X0047713Y0015900D01*
X0047615Y0015730D01*
X0047521Y0015559D01*
X0047431Y0015385D01*
X0047346Y0015209D01*
X0047264Y0015031D01*
X0047188Y0014851D01*
X0047115Y0014669D01*
X0047047Y0014486D01*
X0046984Y0014301D01*
X0046925Y0014114D01*
X0046871Y0013926D01*
X0046821Y0013737D01*
X0046776Y0013547D01*
X0046736Y0013355D01*
X0046700Y0013163D01*
X0046669Y0012970D01*
X0046643Y0012776D01*
X0046621Y0012581D01*
X0046605Y0012386D01*
X0046593Y0012191D01*
X0046585Y0011995D01*
X0046583Y0011800D01*
X0058348Y0018859D02*
X0058516Y0018766D01*
X0058682Y0018670D01*
X0058846Y0018570D01*
X0059007Y0018465D01*
X0059166Y0018357D01*
X0059322Y0018245D01*
X0059476Y0018129D01*
X0059626Y0018010D01*
X0059774Y0017887D01*
X0059919Y0017761D01*
X0060060Y0017631D01*
X0060199Y0017498D01*
X0060334Y0017361D01*
X0060466Y0017221D01*
X0060594Y0017079D01*
X0060719Y0016933D01*
X0060841Y0016784D01*
X0060959Y0016632D01*
X0061073Y0016478D01*
X0061183Y0016320D01*
X0061290Y0016161D01*
X0061393Y0015998D01*
X0061492Y0015833D01*
X0061587Y0015666D01*
X0061677Y0015497D01*
X0061764Y0015326D01*
X0061847Y0015152D01*
X0061925Y0014977D01*
X0061999Y0014799D01*
X0062069Y0014620D01*
X0062135Y0014440D01*
X0062196Y0014258D01*
X0062253Y0014074D01*
X0062305Y0013889D01*
X0062353Y0013703D01*
X0062397Y0013516D01*
X0062436Y0013328D01*
X0062470Y0013139D01*
X0062500Y0012949D01*
X0062525Y0012759D01*
X0062546Y0012568D01*
X0062562Y0012376D01*
X0062574Y0012184D01*
X0062581Y0011992D01*
X0062583Y0011800D01*
X0049415Y0005693D02*
X0049269Y0005820D01*
X0049127Y0005949D01*
X0048987Y0006083D01*
X0048851Y0006219D01*
X0048718Y0006359D01*
X0048588Y0006502D01*
X0048462Y0006649D01*
X0048340Y0006798D01*
X0048221Y0006950D01*
X0048106Y0007105D01*
X0047994Y0007262D01*
X0047887Y0007422D01*
X0047783Y0007585D01*
X0047684Y0007751D01*
X0047588Y0007918D01*
X0047496Y0008088D01*
X0047409Y0008260D01*
X0047325Y0008434D01*
X0047246Y0008610D01*
X0047172Y0008788D01*
X0047101Y0008968D01*
X0047035Y0009149D01*
X0046973Y0009332D01*
X0046916Y0009516D01*
X0046863Y0009702D01*
X0046815Y0009889D01*
X0046771Y0010077D01*
X0046732Y0010266D01*
X0046697Y0010456D01*
X0046667Y0010646D01*
X0046641Y0010837D01*
X0046620Y0011029D01*
X0046604Y0011222D01*
X0046592Y0011414D01*
X0046585Y0011607D01*
X0046583Y0011800D01*
X0059705Y0005654D02*
X0059853Y0005781D01*
X0059998Y0005911D01*
X0060139Y0006044D01*
X0060278Y0006181D01*
X0060413Y0006321D01*
X0060544Y0006465D01*
X0060672Y0006612D01*
X0060797Y0006761D01*
X0060918Y0006914D01*
X0061035Y0007069D01*
X0061148Y0007228D01*
X0061257Y0007389D01*
X0061362Y0007553D01*
X0061464Y0007719D01*
X0061561Y0007888D01*
X0061654Y0008058D01*
X0061743Y0008232D01*
X0061828Y0008407D01*
X0061908Y0008584D01*
X0061984Y0008763D01*
X0062056Y0008944D01*
X0062123Y0009127D01*
X0062186Y0009311D01*
X0062244Y0009497D01*
X0062298Y0009684D01*
X0062347Y0009872D01*
X0062392Y0010062D01*
X0062432Y0010252D01*
X0062467Y0010444D01*
X0062498Y0010636D01*
X0062524Y0010829D01*
X0062545Y0011023D01*
X0062562Y0011217D01*
X0062574Y0011411D01*
X0062581Y0011605D01*
X0062583Y0011800D01*
X0016052Y0034854D02*
X0016221Y0034953D01*
X0016387Y0035057D01*
X0016551Y0035164D01*
X0016712Y0035275D01*
X0016870Y0035390D01*
X0017025Y0035509D01*
X0017178Y0035632D01*
X0017327Y0035758D01*
X0017473Y0035888D01*
X0017616Y0036022D01*
X0017756Y0036159D01*
X0017892Y0036299D01*
X0018025Y0036443D01*
X0018154Y0036590D01*
X0018280Y0036740D01*
X0018401Y0036893D01*
X0018520Y0037049D01*
X0018634Y0037208D01*
X0018744Y0037369D01*
X0018850Y0037534D01*
X0018953Y0037700D01*
X0019051Y0037870D01*
X0019145Y0038041D01*
X0019235Y0038215D01*
X0019320Y0038391D01*
X0019402Y0038569D01*
X0019478Y0038749D01*
X0019551Y0038931D01*
X0019619Y0039114D01*
X0019682Y0039299D01*
X0019741Y0039486D01*
X0019795Y0039674D01*
X0019845Y0039863D01*
X0019890Y0040053D01*
X0019930Y0040245D01*
X0019966Y0040437D01*
X0019997Y0040630D01*
X0020023Y0040824D01*
X0020045Y0041019D01*
X0020061Y0041214D01*
X0020073Y0041409D01*
X0020081Y0041605D01*
X0020083Y0041800D01*
X0008318Y0034741D02*
X0008150Y0034834D01*
X0007984Y0034930D01*
X0007820Y0035030D01*
X0007659Y0035135D01*
X0007500Y0035243D01*
X0007344Y0035355D01*
X0007190Y0035471D01*
X0007040Y0035590D01*
X0006892Y0035713D01*
X0006747Y0035839D01*
X0006606Y0035969D01*
X0006467Y0036102D01*
X0006332Y0036239D01*
X0006200Y0036379D01*
X0006072Y0036521D01*
X0005947Y0036667D01*
X0005825Y0036816D01*
X0005707Y0036968D01*
X0005593Y0037122D01*
X0005483Y0037280D01*
X0005376Y0037439D01*
X0005273Y0037602D01*
X0005174Y0037767D01*
X0005079Y0037934D01*
X0004989Y0038103D01*
X0004902Y0038274D01*
X0004819Y0038448D01*
X0004741Y0038623D01*
X0004667Y0038801D01*
X0004597Y0038980D01*
X0004531Y0039160D01*
X0004470Y0039342D01*
X0004413Y0039526D01*
X0004361Y0039711D01*
X0004313Y0039897D01*
X0004269Y0040084D01*
X0004230Y0040272D01*
X0004196Y0040461D01*
X0004166Y0040651D01*
X0004141Y0040841D01*
X0004120Y0041032D01*
X0004104Y0041224D01*
X0004092Y0041416D01*
X0004085Y0041608D01*
X0004083Y0041800D01*
X0017251Y0047907D02*
X0017397Y0047780D01*
X0017539Y0047651D01*
X0017679Y0047517D01*
X0017815Y0047381D01*
X0017948Y0047241D01*
X0018078Y0047098D01*
X0018204Y0046951D01*
X0018326Y0046802D01*
X0018445Y0046650D01*
X0018560Y0046495D01*
X0018672Y0046338D01*
X0018779Y0046178D01*
X0018883Y0046015D01*
X0018982Y0045849D01*
X0019078Y0045682D01*
X0019170Y0045512D01*
X0019257Y0045340D01*
X0019341Y0045166D01*
X0019420Y0044990D01*
X0019494Y0044812D01*
X0019565Y0044632D01*
X0019631Y0044451D01*
X0019693Y0044268D01*
X0019750Y0044084D01*
X0019803Y0043898D01*
X0019851Y0043711D01*
X0019895Y0043523D01*
X0019934Y0043334D01*
X0019969Y0043144D01*
X0019999Y0042954D01*
X0020025Y0042763D01*
X0020046Y0042571D01*
X0020062Y0042378D01*
X0020074Y0042186D01*
X0020081Y0041993D01*
X0020083Y0041800D01*
X0006961Y0047946D02*
X0006813Y0047819D01*
X0006668Y0047689D01*
X0006527Y0047556D01*
X0006388Y0047419D01*
X0006253Y0047279D01*
X0006122Y0047135D01*
X0005994Y0046988D01*
X0005869Y0046839D01*
X0005748Y0046686D01*
X0005631Y0046531D01*
X0005518Y0046372D01*
X0005409Y0046211D01*
X0005304Y0046047D01*
X0005202Y0045881D01*
X0005105Y0045712D01*
X0005012Y0045542D01*
X0004923Y0045368D01*
X0004838Y0045193D01*
X0004758Y0045016D01*
X0004682Y0044837D01*
X0004610Y0044656D01*
X0004543Y0044473D01*
X0004480Y0044289D01*
X0004422Y0044103D01*
X0004368Y0043916D01*
X0004319Y0043728D01*
X0004274Y0043538D01*
X0004234Y0043348D01*
X0004199Y0043156D01*
X0004168Y0042964D01*
X0004142Y0042771D01*
X0004121Y0042577D01*
X0004104Y0042383D01*
X0004092Y0042189D01*
X0004085Y0041995D01*
X0004083Y0041800D01*
D26*
X0029583Y0037600D03*
X0039583Y0037600D03*
X0054583Y0037600D03*
X0054583Y0066000D03*
X0039583Y0066000D03*
X0029583Y0066000D03*
X0164583Y0121350D03*
X0164583Y0149750D03*
M02*
